<?xml version="1.0" encoding="UTF-8" standalone="no"?>
<svg width="137px" height="35px" viewBox="0 0 137 35" version="1.1" xmlns="http://www.w3.org/2000/svg" xmlns:xlink="http://www.w3.org/1999/xlink">
    <!-- Generator: Sketch 3.7.1 (28215) - http://www.bohemiancoding.com/sketch -->
    <title>(content)</title>
    <desc>Created with Sketch.</desc>
    <defs></defs>
    <g id="Page-1" stroke="none" stroke-width="1" fill="none" fill-rule="evenodd">
        <path d="M4.21117368,16 L4.15117368,14.41 L4.21117368,11.5 C4.21117368,10.63 4.15117368,9.79 4.24117368,8.92 L4.24117368,7.78 C4.33117368,6.97 4.15117368,5.89 4.54117368,5.14 L4.69117368,4.96 L4.90117368,4.78 L5.23117368,4.63 C5.44117368,4.54 5.56117368,4.51 5.77117368,4.51 C5.86117368,4.51 5.95117368,4.48 6.04117368,4.48 C6.31117368,4.51 6.64117368,4.48 7.03117368,4.42 C7.12117368,4.39 7.18117368,4.36 7.24117368,4.36 C7.51117368,4.3 7.72117368,4.15 7.87117368,3.91 C7.90117368,3.88 7.96117368,3.79 7.99117368,3.67 C8.14117368,3.28 8.14117368,2.86 8.11117368,2.47 C8.11117368,2.35 8.08117368,2.26 8.08117368,2.14 C7.99117368,1.33 7.27117368,0.85 6.52117368,0.94 C6.43117368,0.94 6.34117368,0.91 6.25117368,0.91 C5.68117368,0.88 5.23117368,0.88 4.66117368,0.97 L4.36117368,0.97 C3.28117368,1.06 2.29117368,1.6 1.48117368,2.29 L1.27117368,2.53 L0.911173677,2.98 C0.821173677,3.07 0.791173677,3.13 0.761173677,3.22 C0.611173677,3.43 0.491173677,3.7 0.401173677,3.97 L0.311173677,4.27 C0.161173677,4.9 0.0411736766,5.56 0.0711736766,6.25 L0.0711736766,8.29 L0.0711736766,11.83 C0.0711736766,11.92 0.0411736766,12.22 0.0411736766,12.79 C0.0411736766,13.75 0.0111736766,15.28 0.0111736766,16.81 L0.0111736766,19.63 L0.0111736766,21.55 L0.0411736766,21.55 C0.0411736766,22.12 0.0411736766,22.63 0.0111736766,23.14 L0.0111736766,24.04 C0.0111736766,24.73 0.0711736766,25.33 0.0711736766,26.02 L0.0711736766,28.96 C0.161173677,29.83 0.371173677,30.7 0.641173677,31.54 C0.671173677,31.57 0.731173677,31.63 0.761173677,31.72 C0.791173677,31.81 0.821173677,31.9 0.911173677,31.96 L1.27117368,32.41 L1.48117368,32.65 C2.29117368,33.34 3.28117368,33.88 4.36117368,33.97 L4.66117368,33.97 C5.53117368,34.06 6.22117368,34.06 7.15117368,33.94 L7.42117368,33.82 L7.66117368,33.64 C7.75117368,33.58 7.81117368,33.52 7.87117368,33.43 C8.23117368,32.68 8.14117368,31.72 7.93117368,31 L7.75117368,30.79 C7.54117368,30.64 7.30117368,30.55 6.97117368,30.49 L6.70117368,30.49 C6.34117368,30.46 5.95117368,30.49 5.59117368,30.4 C5.47117368,30.4 5.35117368,30.37 5.23117368,30.31 L4.90117368,30.16 L4.69117368,29.98 L4.54117368,29.8 C4.15117368,29.05 4.33117368,27.97 4.24117368,27.16 L4.24117368,25.33 C4.33117368,24.76 4.21117368,24.19 4.24117368,23.62 L4.24117368,23.29 C4.24117368,22.72 4.21117368,22.06 4.21117368,21.55 L4.21117368,18.82 L4.21117368,16 Z M6.46117368,32.5 C5.89117368,32.5 5.29117368,32.56 4.72117368,32.44 C4.63117368,32.44 4.63117368,32.41 4.54117368,32.41 C1.84117368,31.87 1.87117368,28.96 1.78117368,26.95 L1.78117368,25.48 C1.78117368,24.49 1.84117368,23.5 1.75117368,22.51 C1.75117368,20.68 1.81117368,18.91 1.81117368,17.11 C1.81117368,15.31 1.75117368,13.6 1.75117368,11.83 C1.75117368,10.9 1.75117368,10.06 1.78117368,9.13 C1.78117368,8.14 1.78117368,7.18 1.81117368,6.19 C1.81117368,5.47 1.90117368,4.72 2.26117368,4.03 C2.47117368,3.58 2.80117368,3.19 3.19117368,2.89 C3.28117368,2.8 3.34117368,2.83 3.43117368,2.74 C4.30117368,2.26 5.32117368,2.35 6.25117368,2.14 C6.40117368,2.14 6.52117368,2.14 6.61117368,2.17 C6.82117368,2.17 6.91117368,2.26 6.91117368,2.47 C6.91117368,2.56 6.85117368,2.59 6.82117368,2.68 C6.76117368,2.74 6.70117368,2.77 6.61117368,2.77 C5.62117368,2.77 4.60117368,2.89 3.67117368,3.28 L3.46117368,3.43 C3.16117368,3.67 2.92117368,4 2.71117368,4.45 C2.44117368,5.08 2.41117368,5.74 2.41117368,6.43 C2.38117368,7.36 2.38117368,8.26 2.38117368,9.19 C2.35117368,10.15 2.35117368,11.11 2.35117368,12.07 C2.35117368,12.76 2.38117368,13.36 2.38117368,14.05 C2.41117368,15.28 2.47117368,16.48 2.47117368,17.68 C2.47117368,18.4 2.41117368,19.09 2.41117368,19.81 C2.41117368,21.58 2.38117368,23.29 2.38117368,25.06 C2.35117368,25.69 2.35117368,26.29 2.38117368,26.89 C2.38117368,26.98 2.41117368,27.07 2.41117368,27.16 C2.41117368,28.96 2.50117368,31.12 4.33117368,31.75 C4.45117368,31.78 4.54117368,31.81 4.63117368,31.81 C5.20117368,32.02 5.68117368,31.84 6.25117368,31.81 C6.58117368,31.81 6.85117368,32.05 6.64117368,32.38 C6.61117368,32.47 6.55117368,32.5 6.46117368,32.5 L6.46117368,32.5 Z M24.3111737,20.77 C24.2511737,20.71 24.1311737,20.65 23.9811737,20.59 C23.8911737,20.56 23.7411737,20.56 23.5311737,20.56 C22.5111737,20.71 21.4011737,20.26 20.4711737,20.74 C20.3211737,20.83 20.2311737,20.98 20.1711737,21.13 C20.0811737,21.28 20.0511737,21.49 20.0511737,21.7 C20.0511737,21.79 20.0211737,21.82 20.0211737,21.91 L19.9611737,22.21 C19.8711737,22.57 19.7511737,22.93 19.4811737,23.26 C19.3911737,23.41 19.3011737,23.5 19.2111737,23.62 L19.0311737,23.77 L18.8511737,23.89 C18.0411737,24.28 17.0811737,24.34 16.2111737,24.25 L15.9111737,24.16 C15.5811737,24.07 15.3111737,23.89 15.0711737,23.62 L14.8611737,23.41 C14.7711737,23.29 14.7411737,23.2 14.7111737,23.14 C14.6211737,22.99 14.5311737,22.87 14.4711737,22.72 C14.3811737,22.42 14.2911737,22.09 14.2611737,21.73 C14.2611737,21.64 14.2311737,21.55 14.2311737,21.46 C14.1711737,21.13 14.1411737,20.83 14.1411737,20.5 C14.1111737,20.05 14.0811737,19.69 14.0811737,19.3 C14.0811737,19.18 14.0511737,19.09 14.0511737,19 C14.0511737,18.88 14.0211737,18.79 14.0211737,18.67 C14.0211737,17.8 14.1411737,16.9 14.0511737,16.03 C14.0511737,15.94 14.0811737,15.85 14.0811737,15.73 C14.0811737,15.34 14.1111737,14.98 14.1411737,14.53 C14.1411737,14.23 14.1711737,13.9 14.2311737,13.57 C14.2311737,13.48 14.2611737,13.39 14.2611737,13.3 C14.2911737,12.94 14.3811737,12.61 14.4711737,12.31 C14.5311737,12.16 14.6211737,12.04 14.7111737,11.89 C14.7411737,11.83 14.7711737,11.74 14.8611737,11.62 L15.0711737,11.41 C15.3111737,11.14 15.5811737,10.96 15.9111737,10.87 L16.2111737,10.78 C17.0811737,10.69 18.0411737,10.75 18.8511737,11.14 L19.0311737,11.26 L19.2111737,11.41 C19.3011737,11.53 19.3911737,11.62 19.4811737,11.77 C19.6911737,12.04 19.8111737,12.28 19.9011737,12.55 L19.9611737,12.82 C20.0511737,13.21 20.0811737,13.66 20.3211737,13.93 C20.5311737,14.14 20.9211737,14.05 21.2511737,14.05 L21.4611737,14.05 L22.0611737,14.05 L22.2711737,14.05 C22.9611737,14.2 23.6211737,14.23 24.2211737,13.9 C24.2211737,13.84 24.2211737,13.78 24.2511737,13.75 C24.5811737,13.18 24.3711737,12.52 24.2811737,11.92 L24.2211737,11.68 C24.1311737,11.23 24.0411737,10.84 23.8011737,10.45 C23.7111737,10.24 23.5911737,10.03 23.5011737,9.88 C23.3511737,9.52 23.1111737,9.16 22.8111737,8.8 L22.6011737,8.59 C22.2711737,8.26 21.9111737,7.96 21.5511737,7.72 L21.3111737,7.54 C20.4711737,7.03 19.5111737,6.88 18.5811737,6.67 L18.1311737,6.67 C16.7811737,6.76 15.4011737,6.58 14.1111737,7.06 L13.7211737,7.21 C13.0311737,7.54 12.4011737,7.84 11.9211737,8.41 L11.6811737,8.68 C11.4711737,8.95 11.2611737,9.22 11.1111737,9.55 C10.9011737,9.94 10.6911737,10.39 10.5411737,10.9 C10.2711737,11.65 10.1511737,12.46 10.0611737,13.27 L10.0011737,13.84 C10.0011737,13.93 9.97117368,14.02 9.97117368,14.11 L9.91117368,14.92 C9.91117368,15.01 9.88117368,15.1 9.88117368,15.19 C9.79117368,15.94 9.79117368,16.66 9.82117368,17.41 L9.82117368,17.68 C9.91117368,18.49 9.88117368,19.24 9.91117368,20.05 L9.91117368,20.32 C9.94117368,20.8 9.97117368,21.28 10.0611737,21.76 C10.1511737,22.57 10.2711737,23.38 10.5411737,24.13 C10.6911737,24.64 10.9011737,25.09 11.1111737,25.48 C11.2611737,25.81 11.4711737,26.08 11.6811737,26.35 L11.9211737,26.62 C12.4011737,27.19 13.0311737,27.49 13.7211737,27.82 L14.1111737,27.97 C15.4011737,28.45 16.7811737,28.27 18.1311737,28.36 L18.5811737,28.36 C19.5111737,28.15 20.4711737,28 21.3111737,27.49 L21.5511737,27.31 C21.9111737,27.07 22.2711737,26.77 22.6011737,26.44 L22.8111737,26.23 C23.4111737,25.48 23.8011737,24.61 24.1911737,23.74 C24.1911737,23.65 24.2211737,23.56 24.2211737,23.47 C24.2211737,23.38 24.2511737,23.26 24.2511737,23.17 L24.4011737,22.24 L24.4011737,22.06 C24.4911737,21.61 24.5511737,21.04 24.3111737,20.77 L24.3111737,20.77 Z M22.6911737,22.63 C22.6911737,22.72 22.6911737,22.78 22.6611737,22.81 C22.6611737,22.87 22.6311737,22.96 22.6011737,23.08 C22.6011737,23.17 22.5711737,23.26 22.5411737,23.38 C22.2111737,24.31 21.6111737,25.06 20.9211737,25.69 C20.8311737,25.78 20.8011737,25.75 20.7111737,25.84 C20.6211737,25.93 20.5611737,25.9 20.4711737,25.99 C19.7511737,26.44 18.9411737,26.8 18.0711737,26.83 C17.9811737,26.83 17.9211737,26.83 17.8611737,26.86 C17.6511737,26.86 17.5011737,26.86 17.2911737,26.89 L17.0511737,26.89 C16.7811737,26.89 16.5411737,26.89 16.2711737,26.86 C16.1811737,26.86 16.0911737,26.83 16.0011737,26.83 C15.1911737,26.68 14.4411737,26.38 13.7511737,25.87 C13.6611737,25.78 13.5711737,25.75 13.4811737,25.66 L13.2711737,25.48 C12.7611737,24.97 12.4311737,24.31 12.1911737,23.62 L12.1011737,23.35 L12.0111737,23.08 L11.9211737,22.81 C11.7111737,22 11.6511737,21.16 11.5611737,20.32 L11.5611737,20.05 C11.4711737,19.12 11.5011737,18.25 11.5011737,17.38 L11.5011737,17.11 C11.5011737,16.39 11.5311737,15.67 11.5311737,14.98 C11.5611737,14.92 11.5611737,14.83 11.5611737,14.71 C11.5911737,14.2 11.6211737,13.69 11.7111737,13.12 C11.7111737,13.03 11.7411737,12.94 11.7411737,12.82 L11.8011737,12.58 C11.8611737,12.16 11.9811737,11.74 12.1311737,11.32 L12.2211737,11.05 C12.6111737,10.3 13.0311737,9.49 13.7811737,9.04 C13.9011737,9.01 13.9911737,8.98 14.0211737,8.95 C14.3211737,8.8 14.6211737,8.68 14.9211737,8.59 C14.9511737,8.56 15.0411737,8.53 15.1611737,8.5 C15.6711737,8.41 16.1511737,8.35 16.6011737,8.35 L16.8711737,8.35 L17.6811737,8.35 C17.7411737,8.38 17.8311737,8.38 17.9511737,8.38 C18.6411737,8.47 19.3011737,8.5 19.9911737,8.77 C20.1111737,8.8 20.2011737,8.83 20.2311737,8.86 C20.2911737,8.89 20.3811737,8.92 20.5011737,9.01 C21.3111737,9.58 22.0611737,10.27 22.3011737,11.26 L22.3611737,11.53 C22.4511737,11.8 22.4811737,12.07 22.5711737,12.34 C22.6611737,12.7 22.0911737,12.85 21.9711737,12.49 C21.8811737,12.25 21.8511737,11.98 21.8211737,11.74 C21.7911737,11.62 21.7611737,11.53 21.7611737,11.5 C21.5511737,10.69 21.0711737,10.12 20.3811737,9.67 C20.2911737,9.64 20.2611737,9.58 20.1711737,9.55 C19.3311737,9.04 18.3711737,8.95 17.4111737,8.95 L17.1711737,8.95 L16.9011737,8.95 L16.6611737,8.95 C16.2111737,8.95 15.8511737,8.95 15.4011737,9.04 L15.1611737,9.1 C14.8611737,9.19 14.6211737,9.31 14.4111737,9.4 C14.2911737,9.43 14.2011737,9.49 14.1711737,9.52 C13.4511737,9.88 13.0311737,10.57 12.7011737,11.29 C12.6711737,11.41 12.6411737,11.5 12.6411737,11.53 C12.5211737,11.86 12.4311737,12.25 12.3711737,12.7 C12.3711737,12.79 12.3411737,12.85 12.3411737,12.94 C12.3411737,13.03 12.3111737,13.06 12.3111737,13.15 C12.2211737,13.3 12.2511737,13.45 12.2211737,13.6 C12.2211737,13.93 12.1911737,14.29 12.1311737,14.65 C12.1311737,14.74 12.1011737,14.77 12.1011737,14.86 C12.1311737,15.61 12.1311737,16.36 12.1311737,17.08 L12.1311737,17.38 C12.1011737,18.25 12.0711737,19.12 12.1611737,19.99 L12.1611737,20.26 C12.1911737,21.13 12.3111737,21.97 12.5211737,22.78 C12.5511737,22.81 12.5811737,22.9 12.6111737,23.02 L12.6711737,23.23 C12.7011737,23.35 12.7311737,23.44 12.7311737,23.47 C12.9411737,24.04 13.2111737,24.52 13.6011737,24.97 L13.7811737,25.12 L13.9311737,25.24 C14.0211737,25.27 13.9911737,25.33 14.0811737,25.36 C14.7711737,25.87 15.6111737,26.2 16.4811737,26.29 L16.7511737,26.29 C16.8411737,26.29 16.9611737,26.32 17.0511737,26.32 C17.1411737,26.32 17.2011737,26.29 17.2911737,26.29 C17.4711737,26.29 17.5911737,26.29 17.6811737,26.26 L17.8611737,26.26 C18.7011737,26.2 19.4811737,25.93 20.2311737,25.48 C20.3211737,25.39 20.3511737,25.42 20.4411737,25.33 C21.1611737,24.76 21.6411737,23.92 22.0011737,23.11 C22.0011737,23.02 22.0311737,22.96 22.0311737,22.87 L22.0911737,22.6 L22.0911737,22.36 C22.0911737,22.27 22.1211737,22.21 22.1211737,22.12 C22.1211737,22.03 22.1511737,21.94 22.2111737,21.88 C22.3611737,21.79 22.4811737,21.79 22.6311737,21.88 C22.6911737,21.94 22.7211737,22 22.7211737,22.09 C22.7211737,22.3 22.6911737,22.42 22.6911737,22.63 L22.6911737,22.63 Z M42.2511737,17.35 C42.2811737,16.39 42.3411737,15.4 42.2511737,14.41 L42.1911737,13.81 L42.1911737,13.6 L42.1311737,13.03 C41.9811737,12.16 41.9811737,11.26 41.5011737,10.45 C41.4111737,10.24 41.2911737,10.03 41.2011737,9.88 C41.0511737,9.52 40.8111737,9.16 40.5111737,8.8 L40.3011737,8.59 C39.9711737,8.26 39.6111737,7.96 39.2511737,7.72 L39.0111737,7.54 C38.1711737,7.03 37.2111737,6.88 36.2811737,6.67 L35.8311737,6.67 C34.4811737,6.76 33.1011737,6.58 31.8111737,7.06 L31.4211737,7.21 C30.7311737,7.54 30.1011737,7.84 29.6211737,8.41 L29.3811737,8.68 C29.1711737,8.95 28.9611737,9.22 28.8111737,9.55 C28.6011737,9.94 28.3911737,10.39 28.2411737,10.9 C27.9711737,11.65 27.8511737,12.46 27.7611737,13.27 L27.7011737,13.84 C27.7011737,13.93 27.6711737,14.02 27.6711737,14.11 L27.6111737,14.92 C27.6111737,15.01 27.5811737,15.1 27.5811737,15.19 C27.4911737,15.94 27.4911737,16.66 27.5211737,17.41 L27.5211737,17.68 C27.6111737,18.49 27.5811737,19.24 27.6111737,20.05 L27.6111737,20.32 C27.6411737,20.8 27.6711737,21.28 27.7611737,21.76 C27.8511737,22.57 27.9711737,23.38 28.2411737,24.13 C28.3911737,24.64 28.6011737,25.09 28.8111737,25.48 C28.9611737,25.81 29.1711737,26.08 29.3811737,26.35 L29.6211737,26.62 C30.1011737,27.19 30.7311737,27.49 31.4211737,27.82 L31.8111737,27.97 C33.1011737,28.45 34.4811737,28.27 35.8311737,28.36 L36.2811737,28.36 C37.2111737,28.15 38.1711737,28 39.0111737,27.49 L39.2511737,27.31 C39.6111737,27.07 39.9711737,26.77 40.3011737,26.44 L40.5111737,26.23 C41.1111737,25.48 41.5011737,24.61 41.8911737,23.74 C41.8911737,23.65 41.9211737,23.56 41.9211737,23.47 C41.9211737,23.38 41.9511737,23.26 41.9511737,23.17 L42.1011737,22.24 C42.1011737,22.12 42.1011737,21.97 42.1311737,21.85 C42.2211737,21.4 42.2211737,21.01 42.2511737,20.62 C42.3411737,19.63 42.2811737,18.64 42.2511737,17.68 L42.2511737,17.35 Z M37.9311737,19.87 L37.9311737,20.05 C37.9311737,20.23 37.9311737,20.35 37.9611737,20.44 L37.9011737,20.77 C37.9011737,21.01 37.8711737,21.37 37.7511737,21.61 C37.6611737,22.21 37.5711737,22.78 37.1811737,23.26 C37.0911737,23.41 37.0011737,23.5 36.9111737,23.62 L36.7311737,23.77 L36.5511737,23.89 C35.7411737,24.28 34.7811737,24.34 33.9111737,24.25 L33.6111737,24.16 C33.2811737,24.07 33.0111737,23.89 32.7711737,23.62 L32.5611737,23.41 C32.4711737,23.29 32.4411737,23.2 32.4111737,23.14 C32.3211737,22.99 32.2311737,22.87 32.1711737,22.72 C32.0811737,22.42 31.9911737,22.09 31.9611737,21.73 C31.9611737,21.64 31.9311737,21.55 31.9311737,21.46 C31.8711737,21.13 31.8411737,20.83 31.8411737,20.5 C31.8111737,20.05 31.7811737,19.69 31.7811737,19.3 C31.7811737,19.18 31.7511737,19.09 31.7511737,19 C31.7511737,18.88 31.7211737,18.79 31.7211737,18.67 C31.7211737,17.8 31.8411737,16.9 31.7511737,16.03 C31.7511737,15.94 31.7811737,15.85 31.7811737,15.73 C31.7811737,15.34 31.8111737,14.98 31.8411737,14.53 C31.8411737,14.23 31.8711737,13.9 31.9311737,13.57 C31.9311737,13.48 31.9611737,13.39 31.9611737,13.3 C31.9911737,12.94 32.0811737,12.61 32.1711737,12.31 C32.2311737,12.16 32.3211737,12.04 32.4111737,11.89 C32.4411737,11.83 32.4711737,11.74 32.5611737,11.62 L32.7711737,11.41 C33.0111737,11.14 33.2811737,10.96 33.6111737,10.87 L33.9111737,10.78 C34.7811737,10.69 35.7411737,10.75 36.5511737,11.14 L36.7311737,11.26 L36.9111737,11.41 C37.0011737,11.53 37.0911737,11.62 37.1811737,11.77 C37.5711737,12.25 37.6611737,12.82 37.7511737,13.42 C37.8711737,13.66 37.9011737,14.02 37.9011737,14.26 L37.9611737,14.59 C37.9311737,14.83 37.9311737,15.1 37.9311737,15.37 L37.9311737,15.61 L37.9311737,16.33 L37.9311737,16.57 C37.9611737,16.84 37.9911737,17.08 37.9911737,17.41 L37.9911737,17.68 C37.9911737,18.19 37.8711737,18.7 37.9011737,19.21 C37.9011737,19.3 37.9311737,19.33 37.9311737,19.42 L37.9311737,19.87 Z M40.4511737,20.77 L40.3911737,21.4 C40.3911737,21.49 40.3911737,21.58 40.3611737,21.61 C40.2411737,22.66 39.8211737,23.65 39.4311737,24.46 L39.4011737,24.49 L39.2211737,24.73 L39.0411737,24.97 L38.8011737,25.21 C38.2611737,25.72 37.6611737,26.11 36.9711737,26.35 L36.9411737,26.35 L36.6711737,26.41 L36.4911737,26.47 C36.4011737,26.47 36.3111737,26.5 36.1911737,26.53 C36.1011737,26.53 35.9811737,26.56 35.8911737,26.56 C35.5611737,26.65 35.2011737,26.68 34.8111737,26.68 C34.1811737,26.68 33.5211737,26.59 32.8311737,26.38 L32.5311737,26.29 L32.5011737,26.29 L32.2311737,26.17 L31.7211737,25.93 C30.9711737,25.54 30.4011737,24.85 29.9511737,23.86 L29.7711737,23.32 C29.5611737,22.75 29.5011737,22.12 29.4111737,21.55 C29.3211737,21.22 29.3211737,20.86 29.2911737,20.5 L29.2911737,19.51 C29.2611737,19 29.2611737,18.43 29.2311737,18.1 L29.2311737,17.89 C29.2311737,17.32 29.2611737,15.37 29.2611737,14.83 C29.2611737,14.74 29.2911737,14.71 29.2911737,14.68 L29.2911737,14.62 L29.3511737,14.02 L29.3511737,13.84 L29.4111737,13.42 C29.4411737,12.91 29.5311737,12.43 29.6811737,11.92 L29.7711737,11.62 C29.8011737,11.53 29.8011737,11.41 29.8911737,11.32 C29.9211737,11.26 29.9511737,11.17 30.0411737,11.05 L30.0411737,11.02 C30.4911737,10.33 31.1511737,9.37 32.2011737,8.8 L32.2311737,8.8 L32.5311737,8.68 C33.2511737,8.41 34.0311737,8.41 34.7811737,8.38 L35.9511737,8.38 C36.5211737,8.5 37.1511737,8.59 37.7211737,8.92 L37.9611737,9.04 L37.9911737,9.07 C38.2611737,9.28 38.4411737,9.4 38.6511737,9.61 L38.8611737,9.82 C39.7011737,10.75 40.2411737,11.8 40.3311737,12.97 C40.3311737,13.06 40.3611737,13.12 40.3611737,13.21 L40.3611737,13.24 L40.4211737,13.66 L40.4211737,13.81 L40.4511737,14.26 C40.5411737,14.98 40.4511737,17.14 40.4511737,17.83 L40.4511737,18.07 C40.4811737,18.91 40.4811737,20.02 40.4511737,20.71 L40.4511737,20.77 Z M39.8811737,17.83 C39.8811737,17.14 39.9711737,14.98 39.8811737,14.29 L39.8511737,13.84 L39.8511737,13.69 L39.8211737,13.3 L39.7611737,13.03 L39.7611737,13 C39.6711737,11.95 39.2211737,11.02 38.4711737,10.21 L38.2611737,10.03 C38.1111737,9.88 37.9011737,9.7 37.6611737,9.52 L37.4811737,9.43 C36.9711737,9.16 36.4011737,9.04 35.8311737,8.95 L34.7811737,8.95 C34.0611737,8.95 33.4011737,8.98 32.7111737,9.22 L32.4411737,9.31 C31.5111737,9.79 30.9111737,10.66 30.5211737,11.29 L30.4011737,11.56 L30.3111737,11.83 L30.2211737,12.07 C30.0711737,12.55 30.0411737,13.03 29.9511737,13.48 L29.9211737,13.87 L29.9211737,13.99 C29.8911737,14.02 29.8911737,14.05 29.8911737,14.05 L29.8911737,14.08 L29.8611737,14.65 C29.8611737,14.71 29.8611737,14.74 29.8311737,14.77 L29.8311737,14.86 C29.8311737,15.37 29.8011737,17.32 29.8011737,17.86 L29.8011737,18.07 C29.8311737,18.43 29.8311737,19 29.8311737,19.48 C29.8311737,19.81 29.8611737,20.05 29.8611737,20.26 L29.8611737,20.47 L29.9511737,21.49 C30.0411737,22.06 30.1011737,22.57 30.3111737,23.14 L30.4611737,23.62 C30.9111737,24.55 31.4211737,25.15 31.9911737,25.42 C32.0811737,25.51 32.2311737,25.57 32.4411737,25.63 L32.7111737,25.75 L32.9811737,25.84 C33.6411737,26.02 34.2411737,26.11 34.8111737,26.11 C35.1411737,26.11 35.4711737,26.08 35.7711737,26.02 L35.8011737,26.02 L36.0711737,25.96 C36.1311737,25.96 36.2211737,25.93 36.3411737,25.9 L36.3711737,25.9 C36.4611737,25.9 36.4611737,25.87 36.5511737,25.87 C36.6711737,25.84 36.7611737,25.81 36.7911737,25.81 C37.3611737,25.6 37.9311737,25.27 38.4111737,24.79 L38.6211737,24.61 L38.7711737,24.4 L38.9211737,24.19 C39.3111737,23.38 39.7011737,22.51 39.8211737,21.55 L39.8211737,21.34 C39.8511737,21.13 39.8811737,20.95 39.8811737,20.74 L39.8811737,20.68 C39.9711737,19.99 39.9111737,18.91 39.8811737,18.07 L39.8811737,17.83 Z M61.0011737,8.56 C61.0011737,8.44 61.0011737,8.35 60.9711737,8.32 C61.0611737,7.96 61.0011737,7.54 60.8511737,7.27 C60.8211737,7.18 60.7911737,7.12 60.7011737,7.09 C60.6711737,7.06 60.6111737,7 60.5211737,6.97 C59.5911737,6.82 58.7811737,6.88 57.8511737,6.91 C57.7611737,6.91 57.6711737,6.94 57.5811737,6.94 C57.2511737,7.03 56.9511737,7.15 56.8011737,7.54 C56.8011737,7.63 56.7711737,7.72 56.7711737,7.84 C56.7411737,8.02 56.7711737,8.23 56.8311737,8.47 L56.8311737,8.89 L56.8311737,9.34 L56.8311737,9.55 L56.8311737,10.09 L56.8311737,10.36 C56.7711737,11.14 56.7411737,11.92 56.7411737,12.7 C56.7111737,12.76 56.7111737,12.85 56.7111737,12.97 C56.7111737,13.51 56.7411737,14.02 56.8011737,14.53 C56.8011737,14.62 56.7711737,14.71 56.7711737,14.8 L56.7711737,15.07 C56.6811737,15.76 56.7111737,16.42 56.7111737,17.11 L56.7111737,17.41 L56.7111737,18.31 L56.7111737,18.55 L56.7111737,19.3 C56.5011737,18.85 56.2611737,18.43 55.9911737,18.04 L55.8411737,17.83 L55.7211737,17.62 L55.5711737,17.38 C55.2411737,16.69 54.9411737,16.06 54.4611737,15.49 L54.2811737,15.25 C54.0411737,14.95 53.8611737,14.65 53.7111737,14.32 L53.5611737,14.08 L53.1111737,13.15 C53.0811737,13.06 53.0211737,13 52.9611737,12.91 C52.7211737,12.46 52.4511737,12.07 52.2411737,11.62 C52.2111737,11.5 52.1511737,11.41 52.1211737,11.35 C52.0911737,11.29 52.0311737,11.2 51.9411737,11.11 L51.7911737,10.9 L51.2211737,9.97 L51.1011737,9.73 L50.9511737,9.52 C50.8611737,9.43 50.8611737,9.4 50.8311737,9.31 C50.4411737,8.68 49.9311737,8.14 49.7211737,7.45 L49.6311737,7.3 L49.5111737,7.15 C49.4811737,7.12 49.4211737,7.06 49.3311737,7.03 C48.8811737,6.82 48.3711737,6.85 47.8611737,6.88 L47.5911737,6.88 C47.3511737,6.88 47.0811737,6.91 46.8111737,6.91 C46.7211737,6.91 46.6311737,6.94 46.5411737,6.94 C46.2111737,7.03 45.9111737,7.15 45.7611737,7.54 C45.7611737,7.63 45.7311737,7.72 45.7311737,7.84 C45.7011737,8.02 45.7311737,8.23 45.7911737,8.47 L45.7911737,8.89 L45.7911737,9.01 L45.7911737,9.34 L45.7911737,9.55 L45.7911737,14.11 L45.7911737,14.14 C45.7911737,14.17 45.7611737,14.2 45.7611737,14.23 L45.7611737,14.53 L45.6711737,17.14 L45.6711737,17.41 L45.6711737,17.68 L45.6711737,18.52 L45.6711737,18.79 C45.6711737,19.66 45.7011737,23.47 45.7011737,25.99 L45.7011737,26.2 C45.7011737,26.8 45.4611737,27.61 45.7911737,27.88 L46.0011737,28.03 C46.3311737,28.15 46.7211737,28.18 47.1411737,28.15 L47.4411737,28.15 C48.2811737,27.97 49.3311737,28.57 49.7211737,27.85 C49.9311737,27.46 49.8111737,26.98 49.7811737,26.47 L49.7811737,26.2 C49.7811737,25.84 49.7511737,25.48 49.8411737,25.12 L49.8411737,24.91 L49.8411737,22.69 L49.8411737,18.67 C49.8411737,18.31 49.8411737,17.95 49.8711737,17.59 L49.8711737,17.38 C49.9011737,16.81 49.8411737,16.3 49.8111737,15.73 C50.2611737,16.45 50.5011737,17.17 51.0111737,17.86 C51.0411737,17.89 51.1011737,17.95 51.1311737,18.04 C51.2211737,18.13 51.2211737,18.16 51.2511737,18.25 L51.3411737,18.46 C51.4311737,18.55 51.4311737,18.58 51.4611737,18.67 C52.0311737,19.42 52.3911737,20.2 52.8411737,21.01 L52.9611737,21.22 L53.1111737,21.43 C53.5911737,22.06 53.8311737,22.81 54.4011737,23.38 C54.4911737,23.53 54.5511737,23.65 54.5511737,23.77 L54.6711737,23.95 L54.8811737,24.31 L55.0311737,24.55 C55.4811737,25.24 55.8411737,25.87 56.2311737,26.56 C56.2911737,26.65 56.3511737,26.71 56.3811737,26.8 C56.7711737,27.28 57.0111737,28.3 57.8211737,28.15 L58.0011737,28.15 L58.1811737,28.15 L58.4811737,28.15 C59.3211737,27.97 60.3711737,28.57 60.7611737,27.85 C60.9711737,27.37 60.7911737,26.74 60.8211737,26.11 L60.8211737,25.96 L60.8211737,25.69 C60.8211737,25.48 60.8511737,25.33 60.8811737,25.12 L60.8811737,24.91 L60.8811737,22.69 L60.8811737,18.67 C60.8811737,17.8 61.0011737,16.9 60.9111737,16.03 C60.9111737,15.94 60.9411737,15.85 60.9411737,15.73 C60.9411737,15.34 60.9711737,14.98 61.0011737,14.53 L61.0011737,11.89 C61.0011737,11.74 60.9711737,10.78 60.9711737,9.73 L60.9711737,9.49 C61.0011737,9.28 61.0011737,9.1 61.0011737,8.89 L61.0011737,8.56 Z M59.1111737,14.14 C59.1411737,14.35 59.1411737,14.53 59.1411737,14.74 L59.1411737,17.2 L59.1411737,20.89 C59.1111737,21.37 59.1111737,21.88 59.1111737,22.36 L59.1111737,22.66 C59.2611737,23.53 58.9911737,24.37 59.0811737,25.24 C59.0811737,25.36 59.0811737,25.45 59.1111737,25.48 C59.1111737,25.69 59.1111737,25.84 59.1411737,25.99 L59.1411737,26.32 C59.1111737,26.53 59.2311737,26.71 59.0811737,26.83 C58.6611737,27.16 58.3311737,26.56 58.1211737,26.29 L58.0611737,26.2 C58.0311737,26.11 57.9711737,26.11 57.9411737,26.02 L57.6411737,25.51 C57.5811737,25.42 57.5211737,25.33 57.4911737,25.24 C57.1611737,24.55 56.7711737,23.98 56.4111737,23.35 L55.6011737,22.06 L55.4811737,21.82 L55.3311737,21.58 C55.1211737,21.19 54.8811737,20.83 54.6411737,20.47 C54.5511737,20.35 54.4911737,20.23 54.4611737,20.14 C54.2511737,19.75 53.9811737,19.42 53.7411737,19.03 C53.4111737,18.55 53.2311737,18.01 52.9011737,17.53 L52.7511737,17.29 C52.2711737,16.36 51.6111737,15.49 51.0411737,14.65 L50.8011737,14.26 C50.4111737,13.63 50.0511737,13 49.7211737,12.31 L49.2411737,11.53 C48.8811737,10.81 48.4911737,10.15 48.0411737,9.46 C48.0411737,9.94 48.0411737,10.45 48.0111737,10.96 L48.0111737,11.89 C47.9211737,12.61 47.8911737,13.36 47.9811737,14.08 C48.0111737,14.29 48.0111737,14.47 48.0111737,14.68 L48.0111737,17.14 L48.0111737,20.83 C47.9811737,21.31 47.9811737,21.82 47.9811737,22.3 L47.9811737,22.6 C48.1311737,23.47 47.8611737,24.31 47.9511737,25.18 C47.9511737,25.3 47.9511737,25.39 47.9811737,25.42 C47.9811737,25.63 47.9811737,25.78 48.0111737,25.93 L48.0111737,26.59 C48.0111737,26.77 47.9211737,26.86 47.7111737,26.86 C47.6211737,26.86 47.5311737,26.83 47.5011737,26.8 C47.4111737,26.56 47.4111737,26.29 47.3811737,26.05 L47.3811737,25 C47.4711737,24.37 47.3811737,23.77 47.4111737,23.14 L47.4111737,21.82 C47.4411737,21.79 47.4411737,21.7 47.4411737,21.61 L47.4411737,21.37 C47.4411737,20.98 47.4411737,20.62 47.4111737,20.23 C47.4111737,20.11 47.4111737,20.02 47.4411737,19.93 C47.4711737,19.06 47.5011737,18.22 47.4111737,17.29 L47.4111737,17.05 C47.4711737,16.18 47.4711737,15.28 47.4111737,14.41 L47.4111737,14.02 C47.3811737,13.33 47.3211737,12.76 47.4111737,12.07 L47.4111737,11.29 C47.5011737,10.42 47.5011737,9.55 47.4111737,8.71 L47.4111737,8.5 C47.4111737,8.17 47.7111737,8.14 47.9211737,8.29 C48.0111737,8.32 48.0411737,8.38 48.0711737,8.44 L48.3411737,8.86 C48.7911737,9.52 49.1811737,10.21 49.5711737,10.9 L50.1111737,11.83 C50.4711737,12.58 50.8311737,13.33 51.3111737,14.02 C51.4611737,14.23 51.6111737,14.41 51.7011737,14.62 L53.3211737,17.05 L54.2211737,18.7 L55.5111737,20.74 C55.7811737,21.25 56.1111737,21.73 56.3811737,22.21 L56.5611737,22.51 C57.2511737,23.32 57.4911737,24.28 58.0611737,25.12 L58.2411737,25.36 L58.5111737,25.78 L58.5111737,25.06 C58.6011737,24.43 58.5111737,23.83 58.5411737,23.2 L58.5411737,21.88 C58.5711737,21.85 58.5711737,21.76 58.5711737,21.67 L58.5711737,21.43 C58.5711737,21.04 58.5711737,20.68 58.5411737,20.29 C58.5411737,20.17 58.5411737,20.08 58.5711737,19.99 C58.6011737,19.12 58.6311737,18.28 58.5411737,17.35 L58.5411737,17.11 C58.6011737,16.24 58.6011737,15.34 58.5411737,14.47 L58.5411737,14.08 C58.5111737,13.39 58.4511737,12.82 58.5411737,12.13 L58.5411737,11.35 C58.6311737,10.48 58.6311737,9.61 58.5411737,8.77 L58.5411737,8.56 C58.5411737,8.17 59.1411737,8.17 59.1411737,8.56 L59.1411737,8.98 C59.1711737,9.64 59.1711737,10.33 59.1411737,11.02 L59.1411737,11.95 C59.0511737,12.67 59.0211737,13.42 59.1111737,14.14 L59.1111737,14.14 Z M77.0811737,9.07 C77.0811737,8.95 77.0811737,8.86 77.1111737,8.8 C77.0211737,8.17 77.3511737,7.42 76.8111737,7.06 C76.2111737,6.73 75.4311737,6.97 74.7411737,6.94 L73.9311737,6.94 L73.5711737,6.94 C72.9711737,6.94 72.3411737,7.03 71.7411737,6.94 L71.4111737,6.94 C71.0811737,6.91 70.7811737,6.91 70.4811737,6.94 C70.3311737,6.94 70.2111737,6.94 70.1211737,6.91 L69.6411737,6.91 L69.4011737,6.91 C68.9511737,6.94 68.6211737,6.94 68.1711737,6.94 L67.9311737,6.94 C67.7211737,6.97 67.5711737,6.97 67.3611737,6.97 L66.7611737,6.97 C66.0711737,6.94 65.3811737,6.88 64.6611737,6.97 C64.4511737,6.91 64.2711737,6.91 64.1211737,6.97 C63.9111737,7.06 63.7611737,7.27 63.7311737,7.66 C63.7011737,7.72 63.7011737,7.81 63.7311737,7.9 C63.7611737,8.77 63.6711737,9.61 63.7611737,10.48 L63.8511737,10.75 C63.8811737,10.81 63.9111737,10.9 64.0011737,11.02 L64.2411737,11.14 L64.4511737,11.14 C64.6611737,11.14 64.8711737,11.11 65.0811737,11.11 L65.2911737,11.11 C66.0411737,11.14 66.4911737,11.14 67.2411737,11.14 C67.3011737,11.11 67.3911737,11.11 67.5411737,11.11 L68.0511737,11.11 C68.1111737,11.14 68.1711737,11.14 68.2611737,11.14 L68.3511737,11.14 C68.4711737,11.5 68.4411737,11.89 68.4411737,12.28 L68.4411737,12.61 C68.3511737,13.24 68.3511737,13.9 68.3811737,14.53 L68.3811737,16.84 C68.4111737,17.08 68.4111737,17.32 68.3811737,17.56 C68.3811737,17.68 68.3811737,17.77 68.4111737,17.86 L68.4111737,18.16 C68.4111737,18.97 68.3211737,19.81 68.4111737,20.62 L68.4111737,20.92 C68.3811737,21.43 68.1711737,21.91 68.2611737,22.42 L68.2611737,22.93 C68.2611737,23.86 68.2311737,24.76 68.3211737,25.69 L68.3211737,25.96 C68.3211737,26.68 68.0811737,27.64 68.7111737,28.03 L68.8911737,28.09 L69.1011737,28.09 C69.1611737,28.12 69.2511737,28.12 69.3711737,28.12 C69.5211737,28.15 69.7011737,28.15 69.8511737,28.15 C70.0011737,28.15 70.0911737,28.15 70.1811737,28.12 L70.4211737,28.12 C70.7811737,28.12 71.1111737,28.09 71.4711737,28.09 C71.5611737,28.09 71.6511737,28.06 71.7411737,28.06 C72.0711737,27.97 72.3711737,27.85 72.5211737,27.46 C72.5211737,27.37 72.5511737,27.28 72.5511737,27.16 C72.5811737,26.98 72.5511737,26.77 72.4911737,26.53 L72.4911737,25.45 C72.4911737,24.61 72.5211737,23.74 72.4911737,22.99 L72.4911737,22.78 C72.5811737,21.7 72.5511737,20.62 72.5811737,19.54 L72.5811737,19.21 C72.6111737,18.64 72.6411737,18.16 72.6111737,17.59 L72.6111737,16.21 C72.6111737,15.61 72.5811737,13.69 72.5811737,11.71 L72.5811737,11.53 C72.5811737,11.38 72.6411737,11.26 72.6111737,11.11 C72.9711737,11.14 73.2111737,11.14 73.5411737,11.14 C73.6311737,11.14 73.7211737,11.14 73.7511737,11.11 L74.7111737,11.11 L74.9211737,11.11 C75.1311737,11.11 75.3411737,11.11 75.5511737,11.14 L75.7911737,11.14 C76.3611737,11.23 76.8411737,11.17 77.0511737,10.6 C77.0811737,10.51 77.1111737,10.45 77.1111737,10.39 C77.2011737,9.94 77.0811737,9.52 77.0811737,9.07 L77.0811737,9.07 Z M75.8511737,9.13 C75.7611737,9.22 75.7011737,9.25 75.6411737,9.22 C74.7111737,9.19 73.7811737,9.25 72.8511737,9.25 L72.6111737,9.25 L71.4411737,9.25 L71.2011737,9.25 L70.9311737,9.25 L70.7211737,9.25 L70.7211737,9.49 L70.7211737,11.02 L70.7211737,11.95 C70.6311737,12.67 70.6011737,13.42 70.6911737,14.14 C70.7211737,14.35 70.7211737,14.53 70.7211737,14.74 L70.7211737,20.89 C70.6911737,21.37 70.6911737,21.88 70.6911737,22.36 L70.6911737,22.66 C70.8411737,23.53 70.5711737,24.37 70.6611737,25.24 C70.6611737,25.36 70.6611737,25.45 70.6911737,25.48 C70.6911737,25.69 70.6911737,25.84 70.7211737,25.99 L70.7211737,26.65 C70.7211737,26.83 70.6311737,26.92 70.4211737,26.92 C70.3311737,26.92 70.2411737,26.89 70.2111737,26.86 C70.1211737,26.62 70.1211737,26.35 70.0911737,26.11 L70.0911737,25.06 C70.1811737,24.43 70.0911737,23.83 70.1211737,23.2 L70.1211737,21.88 C70.1511737,21.85 70.1511737,21.76 70.1511737,21.67 L70.1511737,21.43 C70.1511737,21.04 70.1511737,20.68 70.1211737,20.29 C70.1211737,20.17 70.1211737,20.08 70.1511737,19.99 C70.1811737,19.12 70.2111737,18.28 70.1211737,17.35 L70.1211737,17.11 C70.1811737,16.24 70.1811737,15.34 70.1211737,14.47 L70.1211737,14.08 C70.0911737,13.39 70.0311737,12.82 70.1211737,12.13 L70.1211737,11.35 C70.2111737,10.6 70.1811737,10.21 70.1511737,9.58 C70.1211737,9.52 70.1211737,9.43 70.1211737,9.28 C69.9111737,9.25 69.7611737,9.25 69.6111737,9.25 L69.3411737,9.25 L67.7811737,9.25 L67.5111737,9.25 L66.9411737,9.25 L66.3411737,9.25 L65.5311737,9.25 L65.2311737,9.25 C65.0211737,9.25 64.9311737,9.16 64.9311737,8.95 C65.1711737,8.29 66.2211737,8.83 66.7911737,8.68 C67.0011737,8.71 67.2111737,8.71 67.4211737,8.71 C67.6611737,8.74 67.8711737,8.74 68.0811737,8.74 L68.3511737,8.74 C68.8311737,8.74 69.2811737,8.71 69.7611737,8.68 C69.8211737,8.65 69.9111737,8.65 70.0611737,8.65 L70.3611737,8.65 L70.6311737,8.65 C70.6911737,8.68 70.7811737,8.68 70.9011737,8.68 C71.5311737,8.71 72.1611737,8.71 72.7611737,8.68 L73.0311737,8.68 C73.7811737,8.65 74.5611737,8.62 75.3111737,8.62 C75.3711737,8.65 75.4611737,8.65 75.5511737,8.65 L75.7911737,8.71 C75.9111737,8.74 75.9411737,8.98 75.8511737,9.13 L75.8511737,9.13 Z M92.5611737,24.4 C92.5311737,24.25 92.4111737,24.1 92.2311737,24.01 C91.7211737,23.77 91.0311737,24.04 90.3411737,23.95 L90.0711737,23.95 C89.8611737,23.95 89.7111737,23.92 89.5011737,23.89 L84.0711737,23.89 L84.0711737,22.09 C84.0711737,21.16 84.1011737,20.32 84.0711737,19.39 L84.0711737,19.12 C85.4511737,19.12 87.9411737,19.09 90.0111737,19.09 L90.3711737,19.09 C91.0911737,19 92.4711737,19.42 92.3211737,18.22 L92.3211737,17.92 C92.3211737,17.71 92.3211737,17.53 92.3511737,17.32 L92.3511737,16.99 L92.4411737,16 L92.4411737,15.79 C92.4711737,15.52 92.3811737,15.28 92.1711737,15.13 C91.7211737,14.86 91.2111737,15.1 90.7011737,15.01 L90.0711737,15.01 C89.8611737,15.01 89.7111737,14.98 89.5011737,14.95 L84.1611737,14.95 C84.1611737,14.83 84.1611737,14.68 84.1911737,14.53 L84.1911737,11.89 C84.1911737,11.8 84.1611737,11.5 84.1611737,11.11 C85.6911737,11.11 88.3011737,11.08 90.3711737,11.08 L90.5811737,11.08 C91.1811737,11.08 91.9911737,11.32 92.2611737,10.99 L92.4111737,10.78 C92.4411737,10.63 92.5011737,10.45 92.5311737,10.21 L92.5311737,10.03 C92.5611737,9.46 92.4411737,8.95 92.5611737,8.38 C92.5611737,8.26 92.5911737,8.14 92.5911737,8.05 C92.6211737,7.6 92.5911737,7.27 92.2311737,7.06 C91.7211737,6.82 91.0311737,7.09 90.3411737,7 L90.0711737,7 C89.8611737,7 89.7111737,6.97 89.5011737,6.94 L83.5311737,6.94 C82.6911737,6.82 81.8811737,6.88 81.0411737,6.91 C80.9511737,6.91 80.8611737,6.94 80.7711737,6.94 C80.4411737,7.03 80.1411737,7.15 79.9911737,7.54 C79.9911737,7.63 79.9611737,7.72 79.9611737,7.84 C79.9311737,8.02 79.9611737,8.23 80.0211737,8.47 L80.0211737,9.55 C80.0211737,10.39 79.9911737,11.26 80.0211737,12.01 L80.0211737,12.22 C79.9311737,13.3 79.9611737,14.38 79.9311737,15.46 L79.9311737,15.79 C79.9011737,16.36 79.8711737,16.84 79.9011737,17.41 L79.9011737,18.79 C79.9011737,19.66 79.9311737,23.47 79.9311737,25.99 L79.9311737,26.2 C79.9311737,26.71 79.7811737,27.34 79.9011737,27.7 C79.9311737,27.79 79.9911737,27.85 80.0211737,27.88 C80.4711737,28.12 80.8911737,28.12 81.3711737,28.09 L81.6711737,28.09 C82.6011737,28 83.5011737,28.09 84.4311737,28.06 L85.0911737,28.06 C86.6211737,28.06 88.6911737,28.03 90.3711737,28.03 L90.5811737,28.03 C91.1811737,28.03 91.9911737,28.27 92.2611737,27.94 L92.4111737,27.73 L92.4711737,27.55 C92.7411737,26.59 92.5311737,25.63 92.6211737,24.7 L92.5611737,24.4 Z M90.7011737,26.23 C89.7711737,26.44 88.9311737,26.29 88.0611737,26.26 C87.9711737,26.26 87.8811737,26.23 87.7611737,26.23 C87.0711737,26.2 86.4111737,26.2 85.7211737,26.29 L84.5211737,26.29 C83.6511737,26.26 82.7811737,26.38 81.9111737,26.29 C81.8211737,26.23 81.7611737,26.14 81.7611737,26.02 L81.7611737,17.8 C81.7611737,17.11 81.7011737,16.45 81.7311737,15.76 L81.7311737,15.49 C81.7611737,15.34 81.7611737,15.19 81.7611737,14.98 L81.7611737,14.35 C81.7311737,13.42 81.7011737,12.58 81.8211737,11.65 L81.8211737,11.38 C81.8211737,10.81 81.7911737,10.36 81.7611737,9.79 L81.7611737,8.77 C81.7611737,8.53 81.9711737,8.41 82.1811737,8.5 L83.4111737,8.5 C84.2211737,8.5 85.0311737,8.44 85.8411737,8.47 L86.7411737,8.47 C86.8311737,8.47 86.9211737,8.5 87.0111737,8.5 C87.9411737,8.47 88.7811737,8.59 89.7111737,8.5 L89.9811737,8.5 C90.2511737,8.47 90.5211737,8.44 90.7911737,8.44 C91.1811737,8.44 91.1811737,9.04 90.7911737,9.04 C90.5211737,9.04 90.2511737,9.07 89.9811737,9.1 C89.8311737,9.1 89.7411737,9.1 89.6811737,9.13 C88.7511737,9.16 87.9411737,9.01 87.0111737,9.1 C86.9511737,9.07 86.8611737,9.07 86.7411737,9.07 L85.8711737,9.07 C85.0011737,9.04 84.1011737,9.1 83.2311737,9.1 L82.3611737,9.1 L82.3611737,10.12 C82.3911737,10.69 82.3911737,11.2 82.3911737,11.71 C82.3611737,11.77 82.3611737,11.86 82.3611737,11.98 L82.3611737,16.81 L83.5011737,16.81 C84.3711737,16.84 85.2711737,16.84 86.1411737,16.84 L88.3311737,16.84 C89.0211737,16.87 89.7411737,16.81 90.4311737,16.81 C90.5211737,16.81 90.5811737,16.84 90.6411737,16.9 C90.7611737,17.05 90.7311737,17.32 90.5811737,17.35 C89.7711737,17.56 89.0811737,17.44 88.3311737,17.44 L86.1411737,17.44 C85.2711737,17.44 84.3711737,17.38 83.5011737,17.41 L82.3611737,17.41 L82.3611737,19.03 C82.2711737,19.84 82.4211737,20.65 82.3311737,21.46 L82.3311737,22.9 C82.3611737,22.96 82.3611737,23.05 82.3611737,23.14 L82.3611737,25.18 C82.3611737,25.39 82.3311737,25.63 82.3611737,25.63 C82.9611737,25.84 83.5911737,25.69 84.2211737,25.69 L85.8411737,25.69 C86.4711737,25.6 87.0711737,25.63 87.7011737,25.66 L87.9711737,25.66 C88.9011737,25.75 89.7111737,25.6 90.6411737,25.72 C90.8811737,25.75 90.9411737,26.14 90.7011737,26.23 L90.7011737,26.23 Z M111.341174,8.56 C111.341174,8.44 111.341174,8.35 111.311174,8.32 C111.401174,7.96 111.341174,7.54 111.191174,7.27 C111.161174,7.18 111.131174,7.12 111.041174,7.09 C111.011174,7.06 110.951174,7 110.861174,6.97 C109.931174,6.82 109.121174,6.88 108.191174,6.91 C108.101174,6.91 108.011174,6.94 107.921174,6.94 C107.591174,7.03 107.291174,7.15 107.141174,7.54 C107.141174,7.63 107.111174,7.72 107.111174,7.84 C107.081174,8.02 107.111174,8.23 107.171174,8.47 L107.171174,8.89 L107.171174,9.34 L107.171174,9.55 L107.171174,10.09 L107.171174,10.36 C107.111174,11.14 107.081174,11.92 107.081174,12.7 C107.051174,12.76 107.051174,12.85 107.051174,12.97 C107.051174,13.51 107.081174,14.02 107.141174,14.53 C107.141174,14.62 107.111174,14.71 107.111174,14.8 L107.111174,15.07 C107.021174,15.76 107.051174,16.42 107.051174,17.11 L107.051174,17.41 L107.051174,18.31 L107.051174,18.55 L107.051174,19.3 C106.841174,18.85 106.601174,18.43 106.331174,18.04 L106.181174,17.83 L106.061174,17.62 L105.911174,17.38 C105.581174,16.69 105.281174,16.06 104.801174,15.49 L104.621174,15.25 C104.381174,14.95 104.201174,14.65 104.051174,14.32 L103.901174,14.08 L103.451174,13.15 C103.421174,13.06 103.361174,13 103.301174,12.91 C103.061174,12.46 102.791174,12.07 102.581174,11.62 C102.551174,11.5 102.491174,11.41 102.461174,11.35 C102.431174,11.29 102.371174,11.2 102.281174,11.11 L102.131174,10.9 L101.561174,9.97 L101.441174,9.73 L101.291174,9.52 C101.201174,9.43 101.201174,9.4 101.171174,9.31 C100.781174,8.68 100.271174,8.14 100.061174,7.45 L99.9711737,7.3 L99.8511737,7.15 C99.8211737,7.12 99.7611737,7.06 99.6711737,7.03 C99.2211737,6.82 98.7111737,6.85 98.2011737,6.88 L97.9311737,6.88 C97.6911737,6.88 97.4211737,6.91 97.1511737,6.91 C97.0611737,6.91 96.9711737,6.94 96.8811737,6.94 C96.5511737,7.03 96.2511737,7.15 96.1011737,7.54 C96.1011737,7.63 96.0711737,7.72 96.0711737,7.84 C96.0411737,8.02 96.0711737,8.23 96.1311737,8.47 L96.1311737,8.89 L96.1311737,9.01 L96.1311737,9.34 L96.1311737,9.55 L96.1311737,14.11 L96.1311737,14.14 C96.1311737,14.17 96.1011737,14.2 96.1011737,14.23 L96.1011737,14.53 L96.0111737,17.14 L96.0111737,17.41 L96.0111737,17.68 L96.0111737,18.52 L96.0111737,18.79 C96.0111737,19.66 96.0411737,23.47 96.0411737,25.99 L96.0411737,26.2 C96.0411737,26.8 95.8011737,27.61 96.1311737,27.88 L96.3411737,28.03 C96.6711737,28.15 97.0611737,28.18 97.4811737,28.15 L97.7811737,28.15 C98.6211737,27.97 99.6711737,28.57 100.061174,27.85 C100.271174,27.46 100.151174,26.98 100.121174,26.47 L100.121174,26.2 C100.121174,25.84 100.091174,25.48 100.181174,25.12 L100.181174,24.91 L100.181174,22.69 L100.181174,18.67 C100.181174,18.31 100.181174,17.95 100.211174,17.59 L100.211174,17.38 C100.241174,16.81 100.181174,16.3 100.151174,15.73 C100.601174,16.45 100.841174,17.17 101.351174,17.86 C101.381174,17.89 101.441174,17.95 101.471174,18.04 C101.561174,18.13 101.561174,18.16 101.591174,18.25 L101.681174,18.46 C101.771174,18.55 101.771174,18.58 101.801174,18.67 C102.371174,19.42 102.731174,20.2 103.181174,21.01 L103.301174,21.22 L103.451174,21.43 C103.931174,22.06 104.171174,22.81 104.741174,23.38 C104.831174,23.53 104.891174,23.65 104.891174,23.77 L105.011174,23.95 L105.221174,24.31 L105.371174,24.55 C105.821174,25.24 106.181174,25.87 106.571174,26.56 C106.631174,26.65 106.691174,26.71 106.721174,26.8 C107.111174,27.28 107.351174,28.3 108.161174,28.15 L108.341174,28.15 L108.521174,28.15 L108.821174,28.15 C109.661174,27.97 110.711174,28.57 111.101174,27.85 C111.311174,27.37 111.131174,26.74 111.161174,26.11 L111.161174,25.96 L111.161174,25.69 C111.161174,25.48 111.191174,25.33 111.221174,25.12 L111.221174,24.91 L111.221174,22.69 L111.221174,18.67 C111.221174,17.8 111.341174,16.9 111.251174,16.03 C111.251174,15.94 111.281174,15.85 111.281174,15.73 C111.281174,15.34 111.311174,14.98 111.341174,14.53 L111.341174,11.89 C111.341174,11.74 111.311174,10.78 111.311174,9.73 L111.311174,9.49 C111.341174,9.28 111.341174,9.1 111.341174,8.89 L111.341174,8.56 Z M109.451174,14.14 C109.481174,14.35 109.481174,14.53 109.481174,14.74 L109.481174,17.2 L109.481174,20.89 C109.451174,21.37 109.451174,21.88 109.451174,22.36 L109.451174,22.66 C109.601174,23.53 109.331174,24.37 109.421174,25.24 C109.421174,25.36 109.421174,25.45 109.451174,25.48 C109.451174,25.69 109.451174,25.84 109.481174,25.99 L109.481174,26.32 C109.451174,26.53 109.571174,26.71 109.421174,26.83 C109.001174,27.16 108.671174,26.56 108.461174,26.29 L108.401174,26.2 C108.371174,26.11 108.311174,26.11 108.281174,26.02 L107.981174,25.51 C107.921174,25.42 107.861174,25.33 107.831174,25.24 C107.501174,24.55 107.111174,23.98 106.751174,23.35 L105.941174,22.06 L105.821174,21.82 L105.671174,21.58 C105.461174,21.19 105.221174,20.83 104.981174,20.47 C104.891174,20.35 104.831174,20.23 104.801174,20.14 C104.591174,19.75 104.321174,19.42 104.081174,19.03 C103.751174,18.55 103.571174,18.01 103.241174,17.53 L103.091174,17.29 C102.611174,16.36 101.951174,15.49 101.381174,14.65 L101.141174,14.26 C100.751174,13.63 100.391174,13 100.061174,12.31 L99.5811737,11.53 C99.2211737,10.81 98.8311737,10.15 98.3811737,9.46 C98.3811737,9.94 98.3811737,10.45 98.3511737,10.96 L98.3511737,11.89 C98.2611737,12.61 98.2311737,13.36 98.3211737,14.08 C98.3511737,14.29 98.3511737,14.47 98.3511737,14.68 L98.3511737,17.14 L98.3511737,20.83 C98.3211737,21.31 98.3211737,21.82 98.3211737,22.3 L98.3211737,22.6 C98.4711737,23.47 98.2011737,24.31 98.2911737,25.18 C98.2911737,25.3 98.2911737,25.39 98.3211737,25.42 C98.3211737,25.63 98.3211737,25.78 98.3511737,25.93 L98.3511737,26.59 C98.3511737,26.77 98.2611737,26.86 98.0511737,26.86 C97.9611737,26.86 97.8711737,26.83 97.8411737,26.8 C97.7511737,26.56 97.7511737,26.29 97.7211737,26.05 L97.7211737,25 C97.8111737,24.37 97.7211737,23.77 97.7511737,23.14 L97.7511737,21.82 C97.7811737,21.79 97.7811737,21.7 97.7811737,21.61 L97.7811737,21.37 C97.7811737,20.98 97.7811737,20.62 97.7511737,20.23 C97.7511737,20.11 97.7511737,20.02 97.7811737,19.93 C97.8111737,19.06 97.8411737,18.22 97.7511737,17.29 L97.7511737,17.05 C97.8111737,16.18 97.8111737,15.28 97.7511737,14.41 L97.7511737,14.02 C97.7211737,13.33 97.6611737,12.76 97.7511737,12.07 L97.7511737,11.29 C97.8411737,10.42 97.8411737,9.55 97.7511737,8.71 L97.7511737,8.5 C97.7511737,8.17 98.0511737,8.14 98.2611737,8.29 C98.3511737,8.32 98.3811737,8.38 98.4111737,8.44 L98.6811737,8.86 C99.1311737,9.52 99.5211737,10.21 99.9111737,10.9 L100.451174,11.83 C100.811174,12.58 101.171174,13.33 101.651174,14.02 C101.801174,14.23 101.951174,14.41 102.041174,14.62 L103.661174,17.05 L104.561174,18.7 L105.851174,20.74 C106.121174,21.25 106.451174,21.73 106.721174,22.21 L106.901174,22.51 C107.591174,23.32 107.831174,24.28 108.401174,25.12 L108.581174,25.36 L108.851174,25.78 L108.851174,25.06 C108.941174,24.43 108.851174,23.83 108.881174,23.2 L108.881174,21.88 C108.911174,21.85 108.911174,21.76 108.911174,21.67 L108.911174,21.43 C108.911174,21.04 108.911174,20.68 108.881174,20.29 C108.881174,20.17 108.881174,20.08 108.911174,19.99 C108.941174,19.12 108.971174,18.28 108.881174,17.35 L108.881174,17.11 C108.941174,16.24 108.941174,15.34 108.881174,14.47 L108.881174,14.08 C108.851174,13.39 108.791174,12.82 108.881174,12.13 L108.881174,11.35 C108.971174,10.48 108.971174,9.61 108.881174,8.77 L108.881174,8.56 C108.881174,8.17 109.481174,8.17 109.481174,8.56 L109.481174,8.98 C109.511174,9.64 109.511174,10.33 109.481174,11.02 L109.481174,11.95 C109.391174,12.67 109.361174,13.42 109.451174,14.14 L109.451174,14.14 Z M127.421174,9.07 C127.421174,8.95 127.421174,8.86 127.451174,8.8 C127.361174,8.17 127.691174,7.42 127.151174,7.06 C126.551174,6.73 125.771174,6.97 125.081174,6.94 L124.271174,6.94 L123.911174,6.94 C123.311174,6.94 122.681174,7.03 122.081174,6.94 L121.751174,6.94 C121.421174,6.91 121.121174,6.91 120.821174,6.94 C120.671174,6.94 120.551174,6.94 120.461174,6.91 L119.981174,6.91 L119.741174,6.91 C119.291174,6.94 118.961174,6.94 118.511174,6.94 L118.271174,6.94 C118.061174,6.97 117.911174,6.97 117.701174,6.97 L117.101174,6.97 C116.411174,6.94 115.721174,6.88 115.001174,6.97 C114.791174,6.91 114.611174,6.91 114.461174,6.97 C114.251174,7.06 114.101174,7.27 114.071174,7.66 C114.041174,7.72 114.041174,7.81 114.071174,7.9 C114.101174,8.77 114.011174,9.61 114.101174,10.48 L114.191174,10.75 C114.221174,10.81 114.251174,10.9 114.341174,11.02 L114.581174,11.14 L114.791174,11.14 C115.001174,11.14 115.211174,11.11 115.421174,11.11 L115.631174,11.11 C116.381174,11.14 116.831174,11.14 117.581174,11.14 C117.641174,11.11 117.731174,11.11 117.881174,11.11 L118.391174,11.11 C118.451174,11.14 118.511174,11.14 118.601174,11.14 L118.691174,11.14 C118.811174,11.5 118.781174,11.89 118.781174,12.28 L118.781174,12.61 C118.691174,13.24 118.691174,13.9 118.721174,14.53 L118.721174,16.84 C118.751174,17.08 118.751174,17.32 118.721174,17.56 C118.721174,17.68 118.721174,17.77 118.751174,17.86 L118.751174,18.16 C118.751174,18.97 118.661174,19.81 118.751174,20.62 L118.751174,20.92 C118.721174,21.43 118.511174,21.91 118.601174,22.42 L118.601174,22.93 C118.601174,23.86 118.571174,24.76 118.661174,25.69 L118.661174,25.96 C118.661174,26.68 118.421174,27.64 119.051174,28.03 L119.231174,28.09 L119.441174,28.09 C119.501174,28.12 119.591174,28.12 119.711174,28.12 C119.861174,28.15 120.041174,28.15 120.191174,28.15 C120.341174,28.15 120.431174,28.15 120.521174,28.12 L120.761174,28.12 C121.121174,28.12 121.451174,28.09 121.811174,28.09 C121.901174,28.09 121.991174,28.06 122.081174,28.06 C122.411174,27.97 122.711174,27.85 122.861174,27.46 C122.861174,27.37 122.891174,27.28 122.891174,27.16 C122.921174,26.98 122.891174,26.77 122.831174,26.53 L122.831174,25.45 C122.831174,24.61 122.861174,23.74 122.831174,22.99 L122.831174,22.78 C122.921174,21.7 122.891174,20.62 122.921174,19.54 L122.921174,19.21 C122.951174,18.64 122.981174,18.16 122.951174,17.59 L122.951174,16.21 C122.951174,15.61 122.921174,13.69 122.921174,11.71 L122.921174,11.53 C122.921174,11.38 122.981174,11.26 122.951174,11.11 C123.311174,11.14 123.551174,11.14 123.881174,11.14 C123.971174,11.14 124.061174,11.14 124.091174,11.11 L125.051174,11.11 L125.261174,11.11 C125.471174,11.11 125.681174,11.11 125.891174,11.14 L126.131174,11.14 C126.701174,11.23 127.181174,11.17 127.391174,10.6 C127.421174,10.51 127.451174,10.45 127.451174,10.39 C127.541174,9.94 127.421174,9.52 127.421174,9.07 L127.421174,9.07 Z M126.191174,9.13 C126.101174,9.22 126.041174,9.25 125.981174,9.22 C125.051174,9.19 124.121174,9.25 123.191174,9.25 L122.951174,9.25 L121.781174,9.25 L121.541174,9.25 L121.271174,9.25 L121.061174,9.25 L121.061174,9.49 L121.061174,11.02 L121.061174,11.95 C120.971174,12.67 120.941174,13.42 121.031174,14.14 C121.061174,14.35 121.061174,14.53 121.061174,14.74 L121.061174,20.89 C121.031174,21.37 121.031174,21.88 121.031174,22.36 L121.031174,22.66 C121.181174,23.53 120.911174,24.37 121.001174,25.24 C121.001174,25.36 121.001174,25.45 121.031174,25.48 C121.031174,25.69 121.031174,25.84 121.061174,25.99 L121.061174,26.65 C121.061174,26.83 120.971174,26.92 120.761174,26.92 C120.671174,26.92 120.581174,26.89 120.551174,26.86 C120.461174,26.62 120.461174,26.35 120.431174,26.11 L120.431174,25.06 C120.521174,24.43 120.431174,23.83 120.461174,23.2 L120.461174,21.88 C120.491174,21.85 120.491174,21.76 120.491174,21.67 L120.491174,21.43 C120.491174,21.04 120.491174,20.68 120.461174,20.29 C120.461174,20.17 120.461174,20.08 120.491174,19.99 C120.521174,19.12 120.551174,18.28 120.461174,17.35 L120.461174,17.11 C120.521174,16.24 120.521174,15.34 120.461174,14.47 L120.461174,14.08 C120.431174,13.39 120.371174,12.82 120.461174,12.13 L120.461174,11.35 C120.551174,10.6 120.521174,10.21 120.491174,9.58 C120.461174,9.52 120.461174,9.43 120.461174,9.28 C120.251174,9.25 120.101174,9.25 119.951174,9.25 L119.681174,9.25 L118.121174,9.25 L117.851174,9.25 L117.281174,9.25 L116.681174,9.25 L115.871174,9.25 L115.571174,9.25 C115.361174,9.25 115.271174,9.16 115.271174,8.95 C115.511174,8.29 116.561174,8.83 117.131174,8.68 C117.341174,8.71 117.551174,8.71 117.761174,8.71 C118.001174,8.74 118.211174,8.74 118.421174,8.74 L118.691174,8.74 C119.171174,8.74 119.621174,8.71 120.101174,8.68 C120.161174,8.65 120.251174,8.65 120.401174,8.65 L120.701174,8.65 L120.971174,8.65 C121.031174,8.68 121.121174,8.68 121.241174,8.68 C121.871174,8.71 122.501174,8.71 123.101174,8.68 L123.371174,8.68 C124.121174,8.65 124.901174,8.62 125.651174,8.62 C125.711174,8.65 125.801174,8.65 125.891174,8.65 L126.131174,8.71 C126.251174,8.74 126.281174,8.98 126.191174,9.13 L126.191174,9.13 Z M130.211174,32.5 C130.121174,32.5 130.061174,32.47 130.031174,32.38 C129.821174,32.05 130.091174,31.81 130.421174,31.81 C130.991174,31.84 131.471174,32.02 132.041174,31.81 C132.131174,31.81 132.221174,31.78 132.341174,31.75 C134.171174,31.12 134.261174,28.96 134.261174,27.16 C134.261174,27.07 134.291174,26.98 134.291174,26.89 C134.321174,26.29 134.321174,25.69 134.291174,25.06 C134.291174,23.29 134.261174,21.58 134.261174,19.81 C134.261174,19.09 134.201174,18.4 134.201174,17.68 C134.201174,16.48 134.261174,15.28 134.291174,14.05 C134.291174,13.36 134.321174,12.76 134.321174,12.07 C134.321174,11.11 134.321174,10.15 134.291174,9.19 C134.291174,8.26 134.291174,7.36 134.261174,6.43 C134.261174,5.74 134.231174,5.08 133.961174,4.45 C133.751174,4 133.511174,3.67 133.211174,3.43 L133.001174,3.28 C132.071174,2.89 131.051174,2.77 130.061174,2.77 C129.971174,2.77 129.911174,2.74 129.851174,2.68 C129.821174,2.59 129.761174,2.56 129.761174,2.47 C129.761174,2.26 129.851174,2.17 130.061174,2.17 C130.151174,2.14 130.271174,2.14 130.421174,2.14 C131.351174,2.35 132.371174,2.26 133.241174,2.74 C133.331174,2.83 133.391174,2.8 133.481174,2.89 C133.871174,3.19 134.171174,3.58 134.411174,4.03 C134.771174,4.72 134.861174,5.47 134.861174,6.19 C134.891174,7.18 134.891174,8.14 134.891174,9.13 C134.921174,10.06 134.921174,10.9 134.921174,11.83 C134.921174,13.6 134.861174,15.31 134.861174,17.11 C134.861174,18.91 134.921174,20.68 134.921174,22.51 C134.831174,23.5 134.891174,24.49 134.891174,25.48 L134.891174,26.95 C134.741174,28.96 134.891174,31.84 132.131174,32.41 C132.041174,32.41 132.041174,32.44 131.951174,32.44 C131.381174,32.56 130.781174,32.5 130.211174,32.5 L130.211174,32.5 Z M132.461174,18.82 L132.461174,21.55 C132.461174,22.06 132.431174,22.72 132.431174,23.29 L132.431174,23.62 C132.461174,24.19 132.341174,24.76 132.431174,25.33 L132.431174,27.16 C132.341174,27.97 132.521174,29.05 132.131174,29.8 L131.981174,29.98 L131.771174,30.16 L131.441174,30.31 C131.321174,30.37 131.201174,30.4 131.081174,30.4 C130.721174,30.49 130.331174,30.46 129.971174,30.49 L129.701174,30.49 C129.371174,30.55 129.131174,30.64 128.921174,30.79 L128.741174,31 C128.531174,31.72 128.441174,32.68 128.801174,33.43 C128.861174,33.52 128.921174,33.58 129.011174,33.64 L129.251174,33.82 L129.521174,33.94 C130.451174,34.06 131.141174,34.06 132.011174,33.97 L132.311174,33.97 C133.391174,33.88 134.381174,33.34 135.191174,32.65 L135.401174,32.41 L135.761174,31.96 C135.821174,31.9 135.881174,31.81 135.911174,31.72 C135.941174,31.63 136.001174,31.57 136.031174,31.54 C136.301174,30.7 136.511174,29.83 136.601174,28.96 L136.601174,26.02 C136.601174,25.33 136.661174,24.73 136.661174,24.04 L136.661174,23.14 C136.631174,22.63 136.631174,22.12 136.631174,21.55 L136.661174,21.55 L136.661174,19.63 L136.661174,16.81 C136.661174,15.28 136.631174,13.75 136.631174,12.79 C136.631174,12.22 136.601174,11.92 136.601174,11.83 L136.601174,8.29 L136.601174,6.25 C136.631174,5.56 136.511174,4.9 136.361174,4.27 L136.271174,3.97 C136.181174,3.7 136.061174,3.43 135.911174,3.22 C135.881174,3.13 135.821174,3.07 135.761174,2.98 L135.401174,2.53 L135.191174,2.29 C134.381174,1.6 133.391174,1.06 132.311174,0.97 L132.011174,0.97 C131.441174,0.88 130.991174,0.88 130.421174,0.91 C130.331174,0.91 130.241174,0.94 130.151174,0.94 C129.401174,0.85 128.681174,1.33 128.591174,2.14 C128.591174,2.26 128.561174,2.35 128.561174,2.47 C128.531174,2.86 128.531174,3.28 128.681174,3.67 C128.711174,3.79 128.771174,3.88 128.801174,3.91 C128.951174,4.15 129.161174,4.3 129.431174,4.36 C129.491174,4.36 129.551174,4.39 129.641174,4.42 C130.031174,4.48 130.361174,4.51 130.631174,4.48 C130.721174,4.48 130.811174,4.51 130.901174,4.51 C131.111174,4.51 131.231174,4.54 131.441174,4.63 L131.771174,4.78 L131.981174,4.96 L132.131174,5.14 C132.521174,5.89 132.341174,6.97 132.431174,7.78 L132.431174,8.92 C132.521174,9.79 132.461174,10.63 132.461174,11.5 L132.521174,14.41 L132.461174,16 L132.461174,18.82 Z" id="(content)" fill="#5D6063"></path>
    </g>
</svg>