<?xml version="1.0" encoding="UTF-8" standalone="no"?>
<svg width="135px" height="35px" viewBox="0 0 135 35" version="1.1" xmlns="http://www.w3.org/2000/svg" xmlns:xlink="http://www.w3.org/1999/xlink">
    <!-- Generator: Sketch 3.7.1 (28215) - http://www.bohemiancoding.com/sketch -->
    <title>feature</title>
    <desc>Created with Sketch.</desc>
    <defs></defs>
    <g id="Page-1" stroke="none" stroke-width="1" fill="none" fill-rule="evenodd">
        <path d="M5.01386565,16 L4.95386565,14.41 L5.01386565,11.5 C5.01386565,10.63 4.95386565,9.79 5.04386565,8.92 L5.04386565,7.78 C5.13386565,6.97 4.95386565,5.89 5.34386565,5.14 L5.49386565,4.96 L5.70386565,4.78 L6.03386565,4.63 C6.24386565,4.54 6.36386565,4.51 6.57386565,4.51 C6.66386565,4.51 6.75386565,4.48 6.84386565,4.48 C7.11386565,4.51 7.44386565,4.48 7.83386565,4.42 C7.92386565,4.39 7.98386565,4.36 8.04386565,4.36 C8.31386565,4.3 8.52386565,4.15 8.67386565,3.91 C8.70386565,3.88 8.76386565,3.79 8.79386565,3.67 C8.94386565,3.28 8.94386565,2.86 8.91386565,2.47 C8.91386565,2.35 8.88386565,2.26 8.88386565,2.14 C8.79386565,1.33 8.07386565,0.85 7.32386565,0.94 C7.23386565,0.94 7.14386565,0.91 7.05386565,0.91 C6.48386565,0.88 6.03386565,0.88 5.46386565,0.97 L5.16386565,0.97 C4.08386565,1.06 3.09386565,1.6 2.28386565,2.29 L2.07386565,2.53 L1.71386565,2.98 C1.62386565,3.07 1.59386565,3.13 1.56386565,3.22 C1.41386565,3.43 1.29386565,3.7 1.20386565,3.97 L1.11386565,4.27 C0.963865646,4.9 0.843865646,5.56 0.873865646,6.25 L0.873865646,8.29 L0.873865646,11.83 C0.873865646,11.92 0.843865646,12.22 0.843865646,12.79 C0.843865646,13.75 0.813865646,15.28 0.813865646,16.81 L0.813865646,19.63 L0.813865646,21.55 L0.843865646,21.55 C0.843865646,22.12 0.843865646,22.63 0.813865646,23.14 L0.813865646,24.04 C0.813865646,24.73 0.873865646,25.33 0.873865646,26.02 L0.873865646,28.96 C0.963865646,29.83 1.17386565,30.7 1.44386565,31.54 C1.47386565,31.57 1.53386565,31.63 1.56386565,31.72 C1.59386565,31.81 1.62386565,31.9 1.71386565,31.96 L2.07386565,32.41 L2.28386565,32.65 C3.09386565,33.34 4.08386565,33.88 5.16386565,33.97 L5.46386565,33.97 C6.33386565,34.06 7.02386565,34.06 7.95386565,33.94 L8.22386565,33.82 L8.46386565,33.64 C8.55386565,33.58 8.61386565,33.52 8.67386565,33.43 C9.03386565,32.68 8.94386565,31.72 8.73386565,31 L8.55386565,30.79 C8.34386565,30.64 8.10386565,30.55 7.77386565,30.49 L7.50386565,30.49 C7.14386565,30.46 6.75386565,30.49 6.39386565,30.4 C6.27386565,30.4 6.15386565,30.37 6.03386565,30.31 L5.70386565,30.16 L5.49386565,29.98 L5.34386565,29.8 C4.95386565,29.05 5.13386565,27.97 5.04386565,27.16 L5.04386565,25.33 C5.13386565,24.76 5.01386565,24.19 5.04386565,23.62 L5.04386565,23.29 C5.04386565,22.72 5.01386565,22.06 5.01386565,21.55 L5.01386565,18.82 L5.01386565,16 Z M7.26386565,32.5 C6.69386565,32.5 6.09386565,32.56 5.52386565,32.44 C5.43386565,32.44 5.43386565,32.41 5.34386565,32.41 C2.64386565,31.87 2.67386565,28.96 2.58386565,26.95 L2.58386565,25.48 C2.58386565,24.49 2.64386565,23.5 2.55386565,22.51 C2.55386565,20.68 2.61386565,18.91 2.61386565,17.11 C2.61386565,15.31 2.55386565,13.6 2.55386565,11.83 C2.55386565,10.9 2.55386565,10.06 2.58386565,9.13 C2.58386565,8.14 2.58386565,7.18 2.61386565,6.19 C2.61386565,5.47 2.70386565,4.72 3.06386565,4.03 C3.27386565,3.58 3.60386565,3.19 3.99386565,2.89 C4.08386565,2.8 4.14386565,2.83 4.23386565,2.74 C5.10386565,2.26 6.12386565,2.35 7.05386565,2.14 C7.20386565,2.14 7.32386565,2.14 7.41386565,2.17 C7.62386565,2.17 7.71386565,2.26 7.71386565,2.47 C7.71386565,2.56 7.65386565,2.59 7.62386565,2.68 C7.56386565,2.74 7.50386565,2.77 7.41386565,2.77 C6.42386565,2.77 5.40386565,2.89 4.47386565,3.28 L4.26386565,3.43 C3.96386565,3.67 3.72386565,4 3.51386565,4.45 C3.24386565,5.08 3.21386565,5.74 3.21386565,6.43 C3.18386565,7.36 3.18386565,8.26 3.18386565,9.19 C3.15386565,10.15 3.15386565,11.11 3.15386565,12.07 C3.15386565,12.76 3.18386565,13.36 3.18386565,14.05 C3.21386565,15.28 3.27386565,16.48 3.27386565,17.68 C3.27386565,18.4 3.21386565,19.09 3.21386565,19.81 C3.21386565,21.58 3.18386565,23.29 3.18386565,25.06 C3.15386565,25.69 3.15386565,26.29 3.18386565,26.89 C3.18386565,26.98 3.21386565,27.07 3.21386565,27.16 C3.21386565,28.96 3.30386565,31.12 5.13386565,31.75 C5.25386565,31.78 5.34386565,31.81 5.43386565,31.81 C6.00386565,32.02 6.48386565,31.84 7.05386565,31.81 C7.38386565,31.81 7.65386565,32.05 7.44386565,32.38 C7.41386565,32.47 7.35386565,32.5 7.26386565,32.5 L7.26386565,32.5 Z M15.1238656,19.12 L16.2038656,19.12 L16.5038656,19.12 C17.8538656,19.12 19.5938656,19.09 21.0638656,19.09 L21.4238656,19.09 C22.1438656,19 23.5238656,19.42 23.3738656,18.22 L23.3738656,17.92 C23.3738656,17.71 23.3738656,17.53 23.4038656,17.32 L23.4038656,16.99 L23.4938656,16 L23.4938656,15.79 C23.5238656,15.52 23.4338656,15.28 23.2238656,15.13 C22.7738656,14.86 22.2638656,15.1 21.7538656,15.01 L21.1238656,15.01 C20.9138656,15.01 20.7638656,14.98 20.5538656,14.95 L15.2138656,14.95 C15.2138656,14.83 15.2138656,14.68 15.2438656,14.53 L15.2438656,11.89 C15.2438656,11.8 15.2138656,11.5 15.2138656,11.11 C16.7438656,11.11 19.3538656,11.08 21.4238656,11.08 L21.6338656,11.08 C22.2338656,11.08 23.0438656,11.32 23.3138656,10.99 L23.4638656,10.78 C23.4938656,10.63 23.5538656,10.45 23.5838656,10.21 L23.5838656,10.03 C23.6138656,9.46 23.4938656,8.95 23.6138656,8.38 C23.6138656,8.26 23.6438656,8.14 23.6438656,8.05 C23.6738656,7.6 23.6438656,7.27 23.2838656,7.06 C22.7738656,6.82 22.0838656,7.09 21.3938656,7 L21.1238656,7 C20.9138656,7 20.7638656,6.97 20.5538656,6.94 L14.5838656,6.94 C13.7438656,6.82 12.9338656,6.88 12.0938656,6.91 C12.0038656,6.91 11.9138656,6.94 11.8238656,6.94 L11.5838656,7 C10.8938656,7.3 11.0738656,8.29 11.0738656,8.92 C11.1038656,9.01 11.1038656,9.1 11.1038656,9.25 C11.1038656,9.4 11.1038656,9.49 11.0738656,9.55 L11.0738656,10.18 C11.0738656,10.81 11.0438656,11.44 11.0738656,12.01 L11.0738656,12.22 C10.9838656,13.3 11.0138656,14.38 10.9838656,15.46 L10.9838656,15.79 C10.9538656,16.36 10.9238656,16.84 10.9538656,17.41 L10.9538656,18.79 C10.9538656,19.66 10.9838656,23.47 10.9838656,25.99 L10.9838656,26.2 C10.9838656,26.71 10.8338656,27.34 10.9538656,27.7 C10.9838656,27.79 11.0438656,27.85 11.0738656,27.88 C11.5238656,28.12 11.9438656,28.12 12.4238656,28.09 L12.7238656,28.09 L13.5338656,28.03 L13.7138656,28.03 C14.2538656,28.12 14.6438656,28 14.9138656,27.61 C14.9438656,27.58 15.0038656,27.49 15.0338656,27.4 C15.3038656,26.47 15.0338656,25.51 15.0338656,24.55 C15.0338656,24.46 15.0638656,24.37 15.0638656,24.25 C15.1538656,23.56 15.1538656,22.9 15.1238656,22.21 L15.1238656,21.88 C15.0938656,21.55 15.0638656,21.22 15.0638656,20.89 L15.0638656,20.59 C15.0938656,20.2 15.1238656,19.81 15.1238656,19.42 L15.1238656,19.12 Z M12.8138656,17.8 C12.8138656,17.11 12.7538656,16.45 12.7838656,15.76 L12.7838656,15.49 C12.8138656,15.34 12.8138656,15.19 12.8138656,14.98 L12.8138656,14.35 C12.7838656,13.42 12.7538656,12.58 12.8738656,11.65 L12.8738656,11.38 C12.8738656,10.81 12.8438656,10.36 12.8138656,9.79 L12.8138656,8.77 C12.8138656,8.53 13.0238656,8.41 13.2338656,8.5 L14.4638656,8.5 C15.2738656,8.5 16.0838656,8.44 16.8938656,8.47 L17.7938656,8.47 C17.8838656,8.47 17.9738656,8.5 18.0638656,8.5 C18.9938656,8.47 19.8338656,8.59 20.7638656,8.5 L21.0338656,8.5 C21.3038656,8.47 21.5738656,8.44 21.8438656,8.44 C22.2338656,8.44 22.2338656,9.04 21.8438656,9.04 C21.5738656,9.04 21.3038656,9.07 21.0338656,9.1 C20.8838656,9.1 20.7938656,9.1 20.7338656,9.13 C19.8038656,9.16 18.9938656,9.01 18.0638656,9.1 C18.0038656,9.07 17.9138656,9.07 17.7938656,9.07 L16.9238656,9.07 C16.0538656,9.04 15.1538656,9.1 14.2838656,9.1 L13.4138656,9.1 L13.4138656,10.12 C13.4438656,10.69 13.4438656,11.2 13.4438656,11.71 C13.4138656,11.77 13.4138656,11.86 13.4138656,11.98 L13.4138656,16.81 L14.5538656,16.81 C15.4238656,16.84 16.3238656,16.84 17.1938656,16.84 L19.3838656,16.84 C20.0738656,16.87 20.7938656,16.81 21.4838656,16.81 C21.5738656,16.81 21.6338656,16.84 21.6938656,16.9 C21.8138656,17.05 21.7838656,17.32 21.6338656,17.35 C20.8238656,17.56 20.1338656,17.44 19.3838656,17.44 L17.1938656,17.44 C16.3238656,17.44 15.4238656,17.38 14.5538656,17.41 L13.4138656,17.41 L13.4138656,19.03 C13.3238656,19.84 13.4738656,20.65 13.3838656,21.46 L13.3838656,22.9 C13.4138656,22.96 13.4138656,23.05 13.4138656,23.14 L13.3838656,25.9 L13.3838656,26.29 C13.2938656,26.65 12.8138656,26.62 12.7838656,26.26 L12.8138656,17.8 Z M39.6938656,24.4 C39.6638656,24.25 39.5438656,24.1 39.3638656,24.01 C38.8538656,23.77 38.1638656,24.04 37.4738656,23.95 L37.2038656,23.95 C36.9938656,23.95 36.8438656,23.92 36.6338656,23.89 L31.2038656,23.89 L31.2038656,22.09 C31.2038656,21.16 31.2338656,20.32 31.2038656,19.39 L31.2038656,19.12 C32.5838656,19.12 35.0738656,19.09 37.1438656,19.09 L37.5038656,19.09 C38.2238656,19 39.6038656,19.42 39.4538656,18.22 L39.4538656,17.92 C39.4538656,17.71 39.4538656,17.53 39.4838656,17.32 L39.4838656,16.99 L39.5738656,16 L39.5738656,15.79 C39.6038656,15.52 39.5138656,15.28 39.3038656,15.13 C38.8538656,14.86 38.3438656,15.1 37.8338656,15.01 L37.2038656,15.01 C36.9938656,15.01 36.8438656,14.98 36.6338656,14.95 L31.2938656,14.95 C31.2938656,14.83 31.2938656,14.68 31.3238656,14.53 L31.3238656,11.89 C31.3238656,11.8 31.2938656,11.5 31.2938656,11.11 C32.8238656,11.11 35.4338656,11.08 37.5038656,11.08 L37.7138656,11.08 C38.3138656,11.08 39.1238656,11.32 39.3938656,10.99 L39.5438656,10.78 C39.5738656,10.63 39.6338656,10.45 39.6638656,10.21 L39.6638656,10.03 C39.6938656,9.46 39.5738656,8.95 39.6938656,8.38 C39.6938656,8.26 39.7238656,8.14 39.7238656,8.05 C39.7538656,7.6 39.7238656,7.27 39.3638656,7.06 C38.8538656,6.82 38.1638656,7.09 37.4738656,7 L37.2038656,7 C36.9938656,7 36.8438656,6.97 36.6338656,6.94 L30.6638656,6.94 C29.8238656,6.82 29.0138656,6.88 28.1738656,6.91 C28.0838656,6.91 27.9938656,6.94 27.9038656,6.94 C27.5738656,7.03 27.2738656,7.15 27.1238656,7.54 C27.1238656,7.63 27.0938656,7.72 27.0938656,7.84 C27.0638656,8.02 27.0938656,8.23 27.1538656,8.47 L27.1538656,9.55 C27.1538656,10.39 27.1238656,11.26 27.1538656,12.01 L27.1538656,12.22 C27.0638656,13.3 27.0938656,14.38 27.0638656,15.46 L27.0638656,15.79 C27.0338656,16.36 27.0038656,16.84 27.0338656,17.41 L27.0338656,18.79 C27.0338656,19.66 27.0638656,23.47 27.0638656,25.99 L27.0638656,26.2 C27.0638656,26.71 26.9138656,27.34 27.0338656,27.7 C27.0638656,27.79 27.1238656,27.85 27.1538656,27.88 C27.6038656,28.12 28.0238656,28.12 28.5038656,28.09 L28.8038656,28.09 C29.7338656,28 30.6338656,28.09 31.5638656,28.06 L32.2238656,28.06 C33.7538656,28.06 35.8238656,28.03 37.5038656,28.03 L37.7138656,28.03 C38.3138656,28.03 39.1238656,28.27 39.3938656,27.94 L39.5438656,27.73 L39.6038656,27.55 C39.8738656,26.59 39.6638656,25.63 39.7538656,24.7 L39.6938656,24.4 Z M37.8338656,26.23 C36.9038656,26.44 36.0638656,26.29 35.1938656,26.26 C35.1038656,26.26 35.0138656,26.23 34.8938656,26.23 C34.2038656,26.2 33.5438656,26.2 32.8538656,26.29 L31.6538656,26.29 C30.7838656,26.26 29.9138656,26.38 29.0438656,26.29 C28.9538656,26.23 28.8938656,26.14 28.8938656,26.02 L28.8938656,17.8 C28.8938656,17.11 28.8338656,16.45 28.8638656,15.76 L28.8638656,15.49 C28.8938656,15.34 28.8938656,15.19 28.8938656,14.98 L28.8938656,14.35 C28.8638656,13.42 28.8338656,12.58 28.9538656,11.65 L28.9538656,11.38 C28.9538656,10.81 28.9238656,10.36 28.8938656,9.79 L28.8938656,8.77 C28.8938656,8.53 29.1038656,8.41 29.3138656,8.5 L30.5438656,8.5 C31.3538656,8.5 32.1638656,8.44 32.9738656,8.47 L33.8738656,8.47 C33.9638656,8.47 34.0538656,8.5 34.1438656,8.5 C35.0738656,8.47 35.9138656,8.59 36.8438656,8.5 L37.1138656,8.5 C37.3838656,8.47 37.6538656,8.44 37.9238656,8.44 C38.3138656,8.44 38.3138656,9.04 37.9238656,9.04 C37.6538656,9.04 37.3838656,9.07 37.1138656,9.1 C36.9638656,9.1 36.8738656,9.1 36.8138656,9.13 C35.8838656,9.16 35.0738656,9.01 34.1438656,9.1 C34.0838656,9.07 33.9938656,9.07 33.8738656,9.07 L33.0038656,9.07 C32.1338656,9.04 31.2338656,9.1 30.3638656,9.1 L29.4938656,9.1 L29.4938656,10.12 C29.5238656,10.69 29.5238656,11.2 29.5238656,11.71 C29.4938656,11.77 29.4938656,11.86 29.4938656,11.98 L29.4938656,16.81 L30.6338656,16.81 C31.5038656,16.84 32.4038656,16.84 33.2738656,16.84 L35.4638656,16.84 C36.1538656,16.87 36.8738656,16.81 37.5638656,16.81 C37.6538656,16.81 37.7138656,16.84 37.7738656,16.9 C37.8938656,17.05 37.8638656,17.32 37.7138656,17.35 C36.9038656,17.56 36.2138656,17.44 35.4638656,17.44 L33.2738656,17.44 C32.4038656,17.44 31.5038656,17.38 30.6338656,17.41 L29.4938656,17.41 L29.4938656,19.03 C29.4038656,19.84 29.5538656,20.65 29.4638656,21.46 L29.4638656,22.9 C29.4938656,22.96 29.4938656,23.05 29.4938656,23.14 L29.4938656,25.18 C29.4938656,25.39 29.4638656,25.63 29.4938656,25.63 C30.0938656,25.84 30.7238656,25.69 31.3538656,25.69 L32.9738656,25.69 C33.6038656,25.6 34.2038656,25.63 34.8338656,25.66 L35.1038656,25.66 C36.0338656,25.75 36.8438656,25.6 37.7738656,25.72 C38.0138656,25.75 38.0738656,26.14 37.8338656,26.23 L37.8338656,26.23 Z M57.7238656,17.17 C57.7538656,16.21 57.8138656,15.22 57.7238656,14.23 C57.6938656,13.84 57.6938656,13.45 57.6038656,13 C57.5738656,12.88 57.5738656,12.73 57.5738656,12.61 L57.4238656,11.68 C57.4238656,11.59 57.3938656,11.47 57.3938656,11.38 C57.3638656,11.02 57.2738656,10.72 57.1838656,10.39 L57.0638656,10.06 C56.6138656,9.19 56.0138656,8.41 55.3238656,7.72 L55.1738656,7.6 C54.2138656,6.79 52.9538656,6.61 51.7538656,6.49 L51.3038656,6.49 C49.9538656,6.58 48.5738656,6.4 47.2838656,6.88 L46.8938656,7.03 C46.2038656,7.36 45.5738656,7.66 45.0938656,8.23 L44.8538656,8.5 C44.6438656,8.77 44.4338656,9.04 44.2838656,9.37 C44.0738656,9.76 43.8638656,10.21 43.7138656,10.72 C43.4438656,11.47 43.3238656,12.28 43.2338656,13.09 C43.1438656,13.84 43.0838656,14.59 43.0538656,15.31 C43.0238656,16.3 42.9638656,17.32 42.9638656,18.31 C42.9638656,18.79 42.9338656,19.3 42.9338656,19.78 L42.9338656,20.14 C42.9038656,20.71 42.9338656,21.28 42.9638656,21.85 C42.9938656,21.91 42.9938656,22 42.9938656,22.12 C42.9938656,22.96 43.0238656,23.77 42.9338656,24.61 L42.9338656,24.85 C42.9038656,24.94 42.9038656,25.09 42.9038656,25.3 C42.9038656,25.45 42.9038656,25.54 42.8738656,25.63 C42.9038656,26.32 42.6338656,27.01 42.9938656,27.64 C43.3238656,28.21 44.1038656,28.09 44.6738656,28.12 C44.7638656,28.09 44.8538656,28.09 45.0038656,28.09 C45.5138656,28.06 46.0238656,27.97 46.5938656,28 C46.6838656,28 46.7738656,27.97 46.8638656,27.88 C47.0738656,27.67 47.0738656,27.25 47.1038656,26.92 L47.1038656,26.56 C47.0738656,26.35 47.0738656,26.11 47.1038656,25.9 L47.1038656,25.42 C47.1038656,25.09 47.1338656,24.82 47.1638656,24.49 C47.1638656,24.34 47.1638656,24.25 47.1938656,24.19 C47.1938656,23.23 47.1638656,22.24 47.1938656,21.28 C47.1638656,21.25 47.1638656,21.22 47.1638656,21.13 C48.1538656,21.13 49.1138656,21.16 50.1038656,21.16 L52.0238656,21.16 C52.4738656,21.16 52.8938656,21.22 53.3438656,21.25 L53.3438656,21.46 C53.3438656,21.91 53.3138656,22.27 53.3138656,22.72 C53.2838656,22.81 53.2838656,22.96 53.2838656,23.14 C53.2838656,23.29 53.3138656,23.44 53.3138656,23.59 L53.3138656,24.07 C53.4038656,25.12 53.1038656,26.14 53.2538656,27.19 C53.3138656,27.61 53.5238656,27.88 53.8838656,27.97 C53.9738656,28.06 54.0938656,28.03 54.2438656,28.06 C54.6038656,28.09 55.0538656,28.12 55.5338656,28.12 L55.8638656,28.12 C56.4938656,28.03 57.4538656,28.3 57.6338656,27.46 C57.8438656,26.59 57.6638656,25.72 57.6338656,24.85 C57.6338656,24.76 57.6338656,24.67 57.6038656,24.64 L57.6038656,23.59 C57.6038656,23.32 57.6038656,23.02 57.6338656,22.75 C57.6638656,22.66 57.6638656,22.51 57.6638656,22.3 C57.6938656,21.49 57.6938656,20.8 57.6938656,19.99 C57.6938656,19.84 57.6938656,19.72 57.6638656,19.51 L57.6638656,18.67 C57.6938656,18.16 57.7238656,17.68 57.7238656,17.17 L57.7238656,17.17 Z M55.9238656,20.47 C55.9238656,20.74 55.9238656,21.01 55.8938656,21.34 L55.8938656,21.64 C55.8938656,21.88 55.8638656,22.15 55.8638656,22.42 L55.8638656,22.69 C55.8638656,23.62 55.8938656,24.55 55.8038656,25.51 L55.8038656,26.26 C55.8038656,26.65 55.2038656,26.65 55.2038656,26.26 L55.2038656,25.36 C55.2938656,24.52 55.2338656,23.71 55.2338656,22.87 C55.2638656,22.81 55.2638656,22.72 55.2638656,22.57 C55.2638656,22.3 55.2938656,22.03 55.2938656,21.7 L55.2938656,21.49 C55.2938656,21.4 55.3238656,21.37 55.3238656,21.28 C55.3238656,20.71 55.3538656,20.2 55.3538656,19.63 L55.3538656,19.42 L52.9238656,19.42 C52.1138656,19.39 51.3938656,19.33 50.5838656,19.33 C50.3138656,19.3 50.0438656,19.3 49.7138656,19.3 L49.5038656,19.3 C48.5738656,19.27 47.6138656,19.3 46.6838656,19.21 C46.5638656,19.21 46.4738656,19.21 46.4138656,19.18 L45.1838656,19.18 C45.1538656,19.63 45.1538656,20.05 45.1538656,20.5 L45.1538656,23.47 C45.1538656,24.46 45.0638656,25.42 45.0638656,26.41 C45.0638656,26.8 44.4638656,26.8 44.4638656,26.41 C44.4638656,25.48 44.5538656,24.64 44.5538656,23.71 L44.5538656,21.04 C44.5538656,20.05 44.5538656,19.06 44.6438656,18.07 C44.7338656,17.11 44.7638656,16.12 44.8538656,15.16 C44.9138656,14.17 45.0338656,13.21 45.2438656,12.34 C45.4538656,11.53 45.6038656,10.69 46.0838656,10 C46.5038656,9.4 47.0738656,8.95 47.7638656,8.62 C48.1238656,8.47 48.4538656,8.35 48.8138656,8.26 C49.2638656,8.17 49.5938656,8.2 50.0438656,8.2 L50.7638656,8.2 C50.8538656,8.2 50.9438656,8.2 51.0038656,8.23 C51.6938656,8.23 52.3238656,8.35 52.9238656,8.62 L53.1638656,8.71 C54.0938656,9.1 54.6938656,9.91 55.1438656,10.84 L55.2338656,11.08 C55.3238656,11.29 55.3238656,11.44 55.4138656,11.59 L55.4738656,11.86 C55.4738656,11.95 55.5038656,11.95 55.5038656,12.04 C55.7138656,12.97 55.7138656,13.84 55.8038656,14.77 L55.8038656,15.04 C55.8338656,15.31 55.8638656,15.58 55.8638656,15.85 C55.8638656,15.94 55.8938656,16 55.8938656,16.09 L55.9538656,17.53 C55.9538656,18.52 55.9538656,19.48 55.9238656,20.47 L55.9238656,20.47 Z M55.2638656,15.88 C55.2338656,15.79 55.2338656,15.7 55.2338656,15.58 L55.1738656,15.07 L55.1738656,14.8 C55.1438656,13.87 55.1138656,13.03 54.9038656,12.1 C54.9038656,12.01 54.8738656,11.95 54.8738656,11.86 L54.6038656,11.14 L54.5138656,10.93 C54.1538656,10.24 53.7038656,9.55 52.9538656,9.31 L52.7138656,9.22 C52.1438656,8.98 51.5738656,8.89 50.9738656,8.8 L49.8038656,8.8 C49.4438656,8.8 49.0838656,8.8 48.7238656,8.89 C48.0338656,9.07 47.4338656,9.4 46.9238656,9.91 C46.6538656,10.18 46.4738656,10.45 46.3238656,10.72 C46.1138656,11.08 46.0538656,11.5 45.9638656,11.89 C45.7238656,12.82 45.5738656,13.72 45.4838656,14.65 C45.3938656,15.61 45.3638656,16.57 45.2738656,17.56 C45.2438656,17.89 45.2138656,18.25 45.2138656,18.58 L45.6038656,18.58 C45.9338656,18.55 46.2938656,18.55 46.6538656,18.58 C46.7438656,18.58 46.7738656,18.61 46.8638656,18.61 C47.7038656,18.7 48.5738656,18.67 49.4138656,18.7 L49.6838656,18.7 C50.0738656,18.7 50.4338656,18.7 50.8238656,18.73 L53.1038656,18.82 L55.3538656,18.82 C55.3538656,18.13 55.3538656,17.41 55.3238656,16.72 C55.3238656,16.45 55.2938656,16.15 55.2638656,15.88 L55.2638656,15.88 Z M52.0538656,16.96 C51.4238656,16.93 50.7938656,16.96 50.1038656,16.96 C49.1438656,16.96 48.1538656,16.93 47.1938656,16.93 C47.2238656,16.06 47.2238656,15.22 47.3138656,14.35 C47.3138656,14.05 47.3438656,13.72 47.4038656,13.39 C47.4038656,13.3 47.4338656,13.21 47.4338656,13.12 C47.4638656,12.76 47.5538656,12.43 47.6438656,12.13 C47.7038656,11.98 47.7938656,11.86 47.8838656,11.71 C47.9138656,11.65 47.9438656,11.56 48.0338656,11.44 L48.2438656,11.23 C48.4838656,10.96 48.7538656,10.78 49.0838656,10.69 L49.3838656,10.6 C50.2538656,10.51 51.2138656,10.57 52.0238656,10.96 L52.2038656,11.08 L52.3838656,11.23 C52.4738656,11.35 52.5638656,11.44 52.6538656,11.59 C53.0438656,12.07 53.1338656,12.64 53.2238656,13.24 C53.3438656,13.48 53.3738656,13.84 53.3738656,14.08 L53.4338656,14.41 C53.4038656,14.92 53.4038656,15.43 53.4338656,15.97 C53.4338656,16.06 53.4638656,16.18 53.4638656,16.27 C53.4638656,16.54 53.4938656,16.78 53.4938656,17.05 C53.0138656,17.02 52.5338656,16.96 52.0538656,16.96 L52.0538656,16.96 Z M73.5638656,9.07 C73.5638656,8.95 73.5638656,8.86 73.5938656,8.8 C73.5038656,8.17 73.8338656,7.42 73.2938656,7.06 C72.6938656,6.73 71.9138656,6.97 71.2238656,6.94 L70.4138656,6.94 L70.0538656,6.94 C69.4538656,6.94 68.8238656,7.03 68.2238656,6.94 L67.8938656,6.94 C67.5638656,6.91 67.2638656,6.91 66.9638656,6.94 C66.8138656,6.94 66.6938656,6.94 66.6038656,6.91 L66.1238656,6.91 L65.8838656,6.91 C65.4338656,6.94 65.1038656,6.94 64.6538656,6.94 L64.4138656,6.94 C64.2038656,6.97 64.0538656,6.97 63.8438656,6.97 L63.2438656,6.97 C62.5538656,6.94 61.8638656,6.88 61.1438656,6.97 C60.9338656,6.91 60.7538656,6.91 60.6038656,6.97 C60.3938656,7.06 60.2438656,7.27 60.2138656,7.66 C60.1838656,7.72 60.1838656,7.81 60.2138656,7.9 C60.2438656,8.77 60.1538656,9.61 60.2438656,10.48 L60.3338656,10.75 C60.3638656,10.81 60.3938656,10.9 60.4838656,11.02 L60.7238656,11.14 L60.9338656,11.14 C61.1438656,11.14 61.3538656,11.11 61.5638656,11.11 L61.7738656,11.11 C62.5238656,11.14 62.9738656,11.14 63.7238656,11.14 C63.7838656,11.11 63.8738656,11.11 64.0238656,11.11 L64.5338656,11.11 C64.5938656,11.14 64.6538656,11.14 64.7438656,11.14 L64.8338656,11.14 C64.9538656,11.5 64.9238656,11.89 64.9238656,12.28 L64.9238656,12.61 C64.8338656,13.24 64.8338656,13.9 64.8638656,14.53 L64.8638656,16.84 C64.8938656,17.08 64.8938656,17.32 64.8638656,17.56 C64.8638656,17.68 64.8638656,17.77 64.8938656,17.86 L64.8938656,18.16 C64.8938656,18.97 64.8038656,19.81 64.8938656,20.62 L64.8938656,20.92 C64.8638656,21.43 64.6538656,21.91 64.7438656,22.42 L64.7438656,22.93 C64.7438656,23.86 64.7138656,24.76 64.8038656,25.69 L64.8038656,25.96 C64.8038656,26.68 64.5638656,27.64 65.1938656,28.03 L65.3738656,28.09 L65.5838656,28.09 C65.6438656,28.12 65.7338656,28.12 65.8538656,28.12 C66.0038656,28.15 66.1838656,28.15 66.3338656,28.15 C66.4838656,28.15 66.5738656,28.15 66.6638656,28.12 L66.9038656,28.12 C67.2638656,28.12 67.5938656,28.09 67.9538656,28.09 C68.0438656,28.09 68.1338656,28.06 68.2238656,28.06 C68.5538656,27.97 68.8538656,27.85 69.0038656,27.46 C69.0038656,27.37 69.0338656,27.28 69.0338656,27.16 C69.0638656,26.98 69.0338656,26.77 68.9738656,26.53 L68.9738656,25.45 C68.9738656,24.61 69.0038656,23.74 68.9738656,22.99 L68.9738656,22.78 C69.0638656,21.7 69.0338656,20.62 69.0638656,19.54 L69.0638656,19.21 C69.0938656,18.64 69.1238656,18.16 69.0938656,17.59 L69.0938656,16.21 C69.0938656,15.61 69.0638656,13.69 69.0638656,11.71 L69.0638656,11.53 C69.0638656,11.38 69.1238656,11.26 69.0938656,11.11 C69.4538656,11.14 69.6938656,11.14 70.0238656,11.14 C70.1138656,11.14 70.2038656,11.14 70.2338656,11.11 L71.1938656,11.11 L71.4038656,11.11 C71.6138656,11.11 71.8238656,11.11 72.0338656,11.14 L72.2738656,11.14 C72.8438656,11.23 73.3238656,11.17 73.5338656,10.6 C73.5638656,10.51 73.5938656,10.45 73.5938656,10.39 C73.6838656,9.94 73.5638656,9.52 73.5638656,9.07 L73.5638656,9.07 Z M72.3338656,9.13 C72.2438656,9.22 72.1838656,9.25 72.1238656,9.22 C71.1938656,9.19 70.2638656,9.25 69.3338656,9.25 L69.0938656,9.25 L67.9238656,9.25 L67.6838656,9.25 L67.4138656,9.25 L67.2038656,9.25 L67.2038656,9.49 L67.2038656,11.02 L67.2038656,11.95 C67.1138656,12.67 67.0838656,13.42 67.1738656,14.14 C67.2038656,14.35 67.2038656,14.53 67.2038656,14.74 L67.2038656,20.89 C67.1738656,21.37 67.1738656,21.88 67.1738656,22.36 L67.1738656,22.66 C67.3238656,23.53 67.0538656,24.37 67.1438656,25.24 C67.1438656,25.36 67.1438656,25.45 67.1738656,25.48 C67.1738656,25.69 67.1738656,25.84 67.2038656,25.99 L67.2038656,26.65 C67.2038656,26.83 67.1138656,26.92 66.9038656,26.92 C66.8138656,26.92 66.7238656,26.89 66.6938656,26.86 C66.6038656,26.62 66.6038656,26.35 66.5738656,26.11 L66.5738656,25.06 C66.6638656,24.43 66.5738656,23.83 66.6038656,23.2 L66.6038656,21.88 C66.6338656,21.85 66.6338656,21.76 66.6338656,21.67 L66.6338656,21.43 C66.6338656,21.04 66.6338656,20.68 66.6038656,20.29 C66.6038656,20.17 66.6038656,20.08 66.6338656,19.99 C66.6638656,19.12 66.6938656,18.28 66.6038656,17.35 L66.6038656,17.11 C66.6638656,16.24 66.6638656,15.34 66.6038656,14.47 L66.6038656,14.08 C66.5738656,13.39 66.5138656,12.82 66.6038656,12.13 L66.6038656,11.35 C66.6938656,10.6 66.6638656,10.21 66.6338656,9.58 C66.6038656,9.52 66.6038656,9.43 66.6038656,9.28 C66.3938656,9.25 66.2438656,9.25 66.0938656,9.25 L65.8238656,9.25 L64.2638656,9.25 L63.9938656,9.25 L63.4238656,9.25 L62.8238656,9.25 L62.0138656,9.25 L61.7138656,9.25 C61.5038656,9.25 61.4138656,9.16 61.4138656,8.95 C61.6538656,8.29 62.7038656,8.83 63.2738656,8.68 C63.4838656,8.71 63.6938656,8.71 63.9038656,8.71 C64.1438656,8.74 64.3538656,8.74 64.5638656,8.74 L64.8338656,8.74 C65.3138656,8.74 65.7638656,8.71 66.2438656,8.68 C66.3038656,8.65 66.3938656,8.65 66.5438656,8.65 L66.8438656,8.65 L67.1138656,8.65 C67.1738656,8.68 67.2638656,8.68 67.3838656,8.68 C68.0138656,8.71 68.6438656,8.71 69.2438656,8.68 L69.5138656,8.68 C70.2638656,8.65 71.0438656,8.62 71.7938656,8.62 C71.8538656,8.65 71.9438656,8.65 72.0338656,8.65 L72.2738656,8.71 C72.3938656,8.74 72.4238656,8.98 72.3338656,9.13 L72.3338656,9.13 Z M90.9638656,17.68 C90.9638656,17.17 90.9338656,16.69 90.9038656,16.18 L90.9038656,15.34 C90.9338656,15.13 90.9338656,15.01 90.9338656,14.86 C90.9338656,14.05 90.9338656,13.36 90.9038656,12.55 C90.9038656,12.34 90.9038656,12.19 90.8738656,12.1 C90.8438656,11.83 90.8438656,11.53 90.8438656,11.26 L90.8438656,10.21 C90.8738656,10.18 90.8738656,10.09 90.8738656,10 C90.9038656,9.13 91.0838656,8.26 90.8738656,7.39 C90.7238656,6.61 89.7338656,6.82 89.1038656,6.73 L88.7738656,6.73 C88.2938656,6.73 87.8438656,6.76 87.4838656,6.79 C87.3338656,6.82 87.2138656,6.79 87.1238656,6.88 C86.7638656,6.97 86.5538656,7.24 86.4938656,7.66 C86.3438656,8.71 86.6438656,9.73 86.5538656,10.78 L86.5538656,11.26 C86.5538656,11.41 86.5238656,11.56 86.5238656,11.71 C86.5238656,11.89 86.5238656,12.04 86.5538656,12.13 C86.5538656,12.58 86.5838656,12.91 86.5838656,13.36 L86.5838656,13.51 C86.5838656,14.5 86.7638656,15.46 86.7938656,16.45 L86.7938656,16.78 C86.7638656,17.65 86.6438656,18.49 86.6738656,19.42 L86.6738656,19.66 C86.6738656,19.93 86.6438656,20.2 86.6738656,20.44 L86.6138656,20.77 C86.5838656,21.61 86.4038656,22.66 85.8938656,23.26 C85.8038656,23.41 85.7138656,23.5 85.6238656,23.62 L85.4438656,23.77 L85.2638656,23.89 C84.4538656,24.28 83.4938656,24.34 82.6238656,24.25 L82.3238656,24.16 C81.9938656,24.07 81.7238656,23.89 81.4838656,23.62 L81.2738656,23.41 C81.1838656,23.29 81.1538656,23.2 81.1238656,23.14 C81.0338656,22.99 80.9438656,22.87 80.8838656,22.72 C80.7338656,22.36 80.6738656,22.03 80.6438656,21.73 L80.6438656,21.46 C80.5538656,21.13 80.5238656,20.83 80.5238656,20.5 C80.4938656,20.05 80.4638656,19.69 80.4638656,19.3 L80.4638656,19 C80.4638656,18.88 80.4338656,18.79 80.4338656,18.67 C80.4038656,18.61 80.4038656,18.52 80.4038656,18.37 C80.2538656,17.41 80.4938656,16.42 80.4038656,15.46 L80.4038656,15.16 C80.3138656,14.41 80.4038656,13.66 80.4338656,12.94 C80.4338656,9.91 80.2538656,8.98 80.4038656,8.29 L80.4038656,7.93 C80.3738656,7.6 80.3738656,7.18 80.1638656,6.97 C80.0738656,6.88 79.9838656,6.85 79.8938656,6.85 L78.4538656,6.85 C77.7338656,7.09 76.5038656,6.52 76.1738656,7.51 L76.1138656,7.75 C76.0238656,8.23 76.1438656,8.74 76.1138656,9.22 C76.1438656,9.31 76.1438656,9.4 76.1438656,9.55 C76.1438656,9.76 76.1438656,9.91 76.1738656,10 L76.1138656,10.24 C76.1138656,10.39 76.1138656,10.48 76.1438656,10.57 C76.1138656,11.38 76.1738656,12.19 76.1738656,13 C76.1738656,13.09 76.2038656,13.18 76.1738656,13.3 C76.1738656,13.75 76.1438656,14.23 76.1738656,14.71 L76.1738656,15.07 C76.1738656,15.55 76.2038656,16.06 76.2038656,16.54 C76.2038656,17.53 76.2638656,18.55 76.2938656,19.54 C76.3238656,20.26 76.3838656,21.01 76.4738656,21.76 C76.5638656,22.57 76.6838656,23.38 76.9538656,24.13 C77.1038656,24.64 77.3138656,25.09 77.5238656,25.48 C77.6738656,25.81 77.8838656,26.08 78.0938656,26.35 L78.3338656,26.62 C78.8138656,27.19 79.4438656,27.49 80.1338656,27.82 L80.5238656,27.97 C81.8138656,28.45 83.1938656,28.27 84.5438656,28.36 L84.9938656,28.36 C85.9238656,28.15 86.8838656,28 87.7238656,27.49 L87.9638656,27.31 C88.3238656,27.07 88.6838656,26.77 89.0138656,26.44 L89.2238656,26.23 C89.8238656,25.48 90.2138656,24.61 90.6038656,23.74 C90.6038656,23.65 90.6338656,23.56 90.6338656,23.47 C90.6338656,23.38 90.6638656,23.26 90.6638656,23.17 L90.8138656,22.24 C90.8138656,22.12 90.8138656,21.97 90.8438656,21.85 C90.9338656,21.4 90.9338656,21.01 90.9638656,20.62 C91.0538656,19.63 90.9938656,18.64 90.9638656,17.68 L90.9638656,17.68 Z M88.5938656,15.58 L88.5938656,15.37 C88.5938656,14.8 88.5638656,14.29 88.5638656,13.72 C88.5638656,13.63 88.5338656,13.6 88.5338656,13.51 L88.5338656,13.3 C88.5338656,12.97 88.5038656,12.7 88.5038656,12.43 C88.5038656,12.28 88.5038656,12.19 88.4738656,12.13 C88.4738656,11.29 88.5638656,10.48 88.4738656,9.64 L88.4738656,8.74 C88.4738656,8.35 89.0738656,8.35 89.0738656,8.74 L89.0738656,9.49 C89.1638656,10.45 89.1038656,11.38 89.1038656,12.31 L89.1038656,12.58 C89.1038656,12.85 89.1338656,13.12 89.1338656,13.36 L89.1338656,13.66 C89.1638656,13.99 89.1638656,14.26 89.1638656,14.53 C89.1938656,15.52 89.1938656,16.48 89.1938656,17.47 L89.1638656,18.91 C89.1638656,19 89.1338656,19.06 89.1338656,19.15 C89.1338656,19.42 89.1338656,19.69 89.1038656,19.96 L89.1038656,20.23 C89.0138656,21.16 88.9538656,22.03 88.7438656,22.96 C88.7438656,23.05 88.7138656,23.05 88.7138656,23.14 L88.6538656,23.41 C88.5638656,23.56 88.5638656,23.71 88.4738656,23.92 L88.3838656,24.16 C87.9338656,25.09 87.3338656,25.87 86.4038656,26.26 L86.1638656,26.35 C85.5038656,26.62 84.8738656,26.77 84.2438656,26.77 C84.1838656,26.8 84.0938656,26.8 84.0038656,26.8 L83.2838656,26.8 C82.8338656,26.8 82.5038656,26.77 82.0538656,26.68 C81.6938656,26.62 81.3338656,26.53 81.0038656,26.38 C80.3138656,26.05 79.7438656,25.6 79.2938656,25 C78.8138656,24.31 78.5738656,23.47 78.3638656,22.66 C78.1538656,21.73 78.1238656,20.8 78.0338656,19.84 C77.9438656,18.88 77.9738656,17.89 77.8838656,16.93 C77.7938656,15.94 77.7938656,14.95 77.7938656,13.96 L77.7938656,11.29 L77.7938656,8.59 C77.7938656,8.2 78.3938656,8.2 78.3938656,8.59 L78.3938656,11.53 L78.3938656,14.5 C78.3938656,14.95 78.3938656,15.37 78.4238656,15.82 L78.4538656,16.42 C78.4538656,16.75 78.4838656,17.11 78.5138656,17.44 C78.6038656,18.43 78.5738656,19.39 78.6638656,20.35 C78.7538656,21.28 78.8438656,22.18 79.0838656,23.11 C79.1738656,23.5 79.3238656,23.92 79.5338656,24.28 C79.6838656,24.55 79.8638656,24.82 80.1338656,25.09 C80.6438656,25.57 81.2738656,25.84 81.9638656,26.05 C82.3538656,26.14 82.7138656,26.2 83.0438656,26.2 L84.2138656,26.2 C84.8138656,26.11 85.3838656,26.05 85.9538656,25.81 L86.1938656,25.72 C86.9438656,25.48 87.3938656,24.76 87.7538656,24.07 L87.8438656,23.86 L88.1138656,23.14 C88.1138656,23.05 88.1438656,22.99 88.1438656,22.9 C88.3538656,21.97 88.4438656,21.13 88.4738656,20.2 L88.4738656,19.93 L88.5038656,19.42 C88.5038656,19.3 88.5038656,19.21 88.5338656,19.12 C88.5638656,18.85 88.5638656,18.55 88.5638656,18.28 C88.5938656,17.59 88.5938656,16.87 88.5938656,16.18 L88.5938656,15.58 Z M109.083866,25.93 C109.083866,25.54 108.963866,25.15 108.753866,24.82 L108.633866,24.7 C108.393866,24.43 107.973866,24.55 107.613866,24.46 C107.523866,24.46 107.463866,24.43 107.373866,24.43 C107.043866,24.4 106.773866,24.31 106.563866,24.22 C106.473866,24.19 106.413866,24.16 106.323866,24.07 L106.083866,23.89 L105.903866,23.68 L105.723866,23.44 C105.633866,23.38 105.603866,23.29 105.573866,23.2 C105.363866,22.96 105.273866,22.72 105.123866,22.39 C105.093866,22.33 105.033866,22.24 105.003866,22.12 C104.493866,21.25 104.073866,20.32 103.683866,19.36 C104.013866,19.27 104.283866,19.24 104.613866,19.09 L104.823866,18.97 C104.853866,18.94 104.943866,18.88 105.033866,18.85 L105.573866,18.49 C105.633866,18.46 105.723866,18.43 105.843866,18.34 C106.083866,18.19 106.353866,18.04 106.563866,17.83 L106.803866,17.62 C107.163866,17.32 107.463866,16.96 107.703866,16.51 L107.853866,16.24 C108.123866,15.7 108.333866,15.07 108.423866,14.38 L108.483866,14.11 C108.513866,13.42 108.603866,12.85 108.513866,12.16 C108.483866,12.04 108.453866,11.95 108.453866,11.83 C108.183866,11.02 108.093866,10.18 107.643866,9.46 L107.463866,9.22 L107.313866,9.04 L107.013866,8.68 L106.773866,8.47 L106.503866,8.26 L106.203866,8.11 C105.393866,7.66 104.583866,7.18 103.653866,7.15 C103.563866,7.15 103.443866,7.12 103.353866,7.12 C102.843866,7.03 102.363866,6.91 101.793866,6.94 C101.703866,6.94 101.643866,6.91 101.553866,6.91 C100.833866,6.82 100.083866,6.82 99.3638656,6.91 L99.0638656,6.91 C98.5838656,6.94 98.1038656,6.91 97.6238656,6.91 L97.3238656,6.91 C96.5138656,6.91 95.7338656,6.76 94.9238656,7.03 L94.7138656,7.21 L94.5938656,7.45 C94.4438656,7.78 94.3838656,8.14 94.4138656,8.53 L94.4138656,9.16 C94.3838656,9.67 94.3238656,10.18 94.3538656,10.69 L94.3538656,10.99 C94.4438656,11.68 94.3238656,12.28 94.3538656,12.97 L94.3538656,13.27 C94.3838656,13.54 94.3538656,13.84 94.4438656,14.11 C94.4138656,14.2 94.4138656,14.29 94.4138656,14.44 C94.4138656,14.53 94.3838656,14.65 94.3838656,14.74 L94.3838656,14.98 C94.3838656,15.07 94.3538656,15.1 94.3538656,15.19 C94.3538656,15.28 94.3538656,15.34 94.3238656,15.4 C94.4138656,16.39 94.4438656,17.47 94.4138656,18.46 C94.4138656,18.61 94.4138656,18.7 94.4438656,18.76 L94.4438656,20.32 C94.4438656,20.41 94.4138656,20.5 94.4138656,20.59 C94.4438656,21.07 94.4438656,21.55 94.4138656,22 L94.4138656,22.3 C94.4438656,22.75 94.4138656,23.2 94.4138656,23.65 L94.4138656,23.92 C94.4438656,24.64 94.3838656,25.36 94.3838656,26.08 L94.3838656,26.38 C94.4138656,26.71 94.2938656,27.13 94.3838656,27.49 L94.4738656,27.73 C94.9238656,28.36 95.8838656,28.09 96.5138656,28.09 C96.5738656,28.06 96.6638656,28.06 96.7838656,28.06 C97.0838656,28.03 97.3538656,28.03 97.6238656,28.06 C97.7138656,28.06 97.7738656,28.03 97.8638656,28.03 C98.1338656,27.97 98.3438656,27.82 98.4338656,27.55 L98.4938656,27.31 C98.6138656,26.74 98.4638656,26.2 98.4638656,25.63 L98.4638656,25.39 C98.4638656,24.82 98.4938656,24.28 98.4938656,23.71 L98.4938656,23.41 C98.5238656,23.38 98.5238656,23.29 98.5238656,23.17 C98.5538656,22.93 98.5238656,22.69 98.5538656,22.45 C98.5838656,22.39 98.5838656,22.3 98.5838656,22.15 C98.5838656,21.58 98.5538656,21.04 98.5238656,20.47 L98.5238656,20.23 C98.5538656,19.99 98.5538656,19.75 98.5238656,19.51 C98.7638656,19.54 98.9738656,19.54 99.2138656,19.54 L99.4238656,19.54 C99.4538656,19.54 99.4838656,19.57 99.5138656,19.57 L99.6038656,19.81 C99.9338656,20.38 100.173866,20.92 100.443866,21.49 C100.473866,21.61 100.533866,21.7 100.563866,21.73 C100.593866,21.85 100.653866,21.94 100.683866,22.03 C100.713866,22.15 100.773866,22.24 100.803866,22.33 L101.343866,23.59 L101.433866,23.86 L101.673866,24.34 C101.703866,24.46 101.763866,24.55 101.793866,24.61 C101.823866,24.73 101.883866,24.82 101.913866,24.88 C102.273866,25.6 102.723866,26.26 103.293866,26.86 L103.443866,26.98 C103.533866,27.1 103.623866,27.19 103.743866,27.28 L103.953866,27.43 C104.583866,27.94 105.363866,28.18 106.173866,28.21 L106.473866,28.21 C106.863866,28.18 107.283866,28.18 107.673866,28.09 L107.853866,28.03 C107.883866,28.03 107.943866,28 108.033866,27.97 L108.333866,27.85 C108.693866,27.64 108.903866,27.31 109.023866,26.95 C109.053866,26.8 109.083866,26.68 109.083866,26.65 C109.113866,26.5 109.113866,26.32 109.113866,26.17 C109.113866,26.08 109.113866,25.99 109.083866,25.93 L109.083866,25.93 Z M107.643866,26.38 C107.553866,26.38 107.493866,26.41 107.403866,26.41 L107.133866,26.41 C106.053866,26.5 104.823866,26.14 104.223866,25.15 L104.013866,24.94 C103.923866,24.79 103.803866,24.64 103.713866,24.46 C103.623866,24.34 103.593866,24.25 103.563866,24.19 C103.203866,23.5 102.873866,22.87 102.483866,22.24 C102.453866,22.12 102.393866,22.03 102.363866,21.97 L101.913866,20.92 L101.823866,20.71 C101.463866,19.72 101.193866,18.85 100.623866,17.92 C100.593866,17.89 100.593866,17.86 100.593866,17.86 L99.6938656,17.86 C99.1838656,17.86 98.7038656,17.86 98.2238656,17.83 C98.0138656,17.8 97.8938656,17.77 97.6838656,17.77 C97.5938656,17.8 97.4138656,17.8 97.2038656,17.8 C97.0538656,17.8 96.8738656,17.8 96.7238656,17.77 L96.7238656,20.83 C96.6938656,21.31 96.6938656,21.82 96.6938656,22.3 L96.6938656,22.6 C96.8438656,23.47 96.5738656,24.31 96.6638656,25.18 C96.6638656,25.3 96.6638656,25.39 96.6938656,25.42 C96.6938656,25.63 96.6938656,25.78 96.7238656,25.93 L96.7238656,26.59 C96.7238656,26.77 96.6338656,26.86 96.4238656,26.86 C96.3338656,26.86 96.2438656,26.83 96.2138656,26.8 C96.1238656,26.56 96.1238656,26.29 96.0938656,26.05 L96.0938656,25 C96.1838656,24.37 96.0938656,23.77 96.1238656,23.14 L96.1238656,21.82 C96.1538656,21.79 96.1538656,21.7 96.1538656,21.61 L96.1538656,21.37 C96.1538656,20.98 96.1538656,20.62 96.1238656,20.23 C96.1238656,20.11 96.1238656,20.02 96.1538656,19.93 C96.1838656,19.06 96.2138656,18.22 96.1238656,17.29 L96.1238656,17.05 C96.1838656,16.18 96.1838656,15.28 96.1238656,14.41 L96.1238656,14.02 C96.0938656,13.33 96.0338656,12.76 96.1238656,12.07 L96.1238656,11.68 C96.0938656,10.75 96.1838656,9.91 96.0938656,9.04 C96.0938656,8.98 96.1238656,8.92 96.1538656,8.83 C96.1838656,8.8 96.2438656,8.74 96.3338656,8.71 C97.0238656,8.56 97.7138656,8.68 98.4338656,8.65 L98.7038656,8.65 C99.0938656,8.65 99.4838656,8.65 99.8738656,8.62 C101.043866,8.59 102.123866,8.62 103.293866,8.83 C104.103866,8.95 104.853866,9.25 105.423866,9.88 C105.633866,10.12 105.843866,10.42 105.993866,10.78 L106.083866,11.02 C106.143866,11.08 106.173866,11.14 106.173866,11.23 L106.263866,11.47 C106.353866,11.62 106.323866,11.77 106.413866,11.92 L106.503866,12.25 C106.653866,12.88 106.533866,13.51 106.503866,14.14 C106.503866,14.23 106.473866,14.26 106.473866,14.35 L106.413866,14.65 C106.323866,15.1 106.143866,15.49 105.903866,15.79 L105.723866,16.06 C105.393866,16.45 105.033866,16.81 104.583866,17.14 C104.523866,17.17 104.433866,17.2 104.313866,17.29 L103.743866,17.53 L103.443866,17.62 C102.723866,17.77 101.973866,17.83 101.253866,17.83 C101.733866,18.67 102.093866,19.63 102.423866,20.56 C102.453866,20.68 102.513866,20.77 102.543866,20.83 C102.663866,21.16 102.783866,21.49 102.933866,21.82 L103.053866,22.06 C103.383866,22.63 103.653866,23.23 103.983866,23.8 C104.073866,23.92 104.103866,24.01 104.133866,24.07 C104.223866,24.16 104.193866,24.22 104.283866,24.31 L104.463866,24.58 L104.673866,24.79 C105.243866,25.6 106.203866,25.96 107.163866,25.81 L107.403866,25.81 C107.493866,25.81 107.553866,25.78 107.643866,25.78 C107.853866,25.78 107.943866,25.87 107.943866,26.08 C107.943866,26.29 107.853866,26.38 107.643866,26.38 L107.643866,26.38 Z M103.623866,16.93 C103.833866,16.84 103.953866,16.81 104.163866,16.69 C104.223866,16.66 104.313866,16.63 104.433866,16.54 C104.643866,16.42 104.853866,16.21 105.093866,15.94 L105.273866,15.73 C105.423866,15.55 105.543866,15.37 105.633866,15.19 L105.723866,15.01 L105.843866,14.59 L105.963866,14.11 C105.993866,14.05 105.993866,13.96 105.993866,13.84 C106.083866,13.15 105.933866,12.52 105.783866,11.89 L105.693866,11.62 L105.513866,11.14 L105.393866,10.9 C105.123866,10.39 104.793866,10.03 104.343866,9.79 C103.653866,9.4 102.843866,9.37 102.033866,9.28 C101.103866,9.19 100.143866,9.22 99.1838656,9.25 L98.2538656,9.25 C97.7438656,9.28 97.2338656,9.31 96.7238656,9.28 L96.7238656,9.49 C96.7538656,9.52 96.7538656,9.61 96.7538656,9.7 C96.7838656,10.15 96.7238656,10.51 96.7238656,10.96 L96.7238656,11.89 C96.6338656,12.61 96.6038656,13.36 96.6938656,14.08 C96.7238656,14.29 96.7238656,14.47 96.7238656,14.68 L96.7238656,17.17 C96.7538656,17.17 96.7838656,17.2 96.8738656,17.2 L97.3238656,17.2 C97.4738656,17.2 97.6238656,17.17 97.7738656,17.17 C97.9838656,17.17 98.1338656,17.2 98.3438656,17.23 C99.2738656,17.32 100.233866,17.26 101.163866,17.23 C101.853866,17.23 102.603866,17.23 103.323866,17.02 L103.623866,16.93 Z M100.143866,15.58 C99.8138656,15.58 99.5438656,15.55 99.2138656,15.55 L98.5238656,15.55 L98.5238656,15.01 C98.4938656,14.95 98.4938656,14.86 98.4938656,14.71 C98.4938656,14.59 98.4938656,14.5 98.5238656,14.44 L98.5238656,14.2 L98.5538656,14.2 L98.5538656,14.17 C98.5538656,14.08 98.5838656,14.02 98.5838656,13.93 C98.5838656,13.81 98.5838656,13.72 98.5538656,13.66 L98.5838656,13.66 C98.6138656,13.18 98.5538656,12.73 98.5538656,12.25 L98.5538656,11.95 C98.5538656,11.62 98.4638656,11.23 98.5838656,10.99 C98.6138656,10.96 98.6738656,10.9 98.8238656,10.87 L99.0338656,10.87 C99.7838656,10.78 100.503866,10.87 101.313866,10.87 C101.433866,10.87 101.523866,10.87 101.583866,10.84 C102.333866,10.93 103.263866,11.08 103.623866,11.77 C103.683866,11.83 103.743866,11.92 103.803866,12.04 C103.893866,12.19 104.013866,12.4 104.103866,12.61 L104.163866,12.88 L104.163866,12.97 C104.163866,13.06 104.193866,13.09 104.193866,13.18 C104.253866,13.39 104.253866,13.6 104.223866,13.84 L104.163866,14.08 L104.073866,14.41 C104.043866,14.5 104.043866,14.59 103.953866,14.68 C103.863866,14.95 103.653866,15.16 103.353866,15.31 L103.083866,15.43 C102.243866,15.67 101.343866,15.61 100.473866,15.58 L100.143866,15.58 Z M124.533866,24.4 C124.503866,24.25 124.383866,24.1 124.203866,24.01 C123.693866,23.77 123.003866,24.04 122.313866,23.95 L122.043866,23.95 C121.833866,23.95 121.683866,23.92 121.473866,23.89 L116.043866,23.89 L116.043866,22.09 C116.043866,21.16 116.073866,20.32 116.043866,19.39 L116.043866,19.12 C117.423866,19.12 119.913866,19.09 121.983866,19.09 L122.343866,19.09 C123.063866,19 124.443866,19.42 124.293866,18.22 L124.293866,17.92 C124.293866,17.71 124.293866,17.53 124.323866,17.32 L124.323866,16.99 L124.413866,16 L124.413866,15.79 C124.443866,15.52 124.353866,15.28 124.143866,15.13 C123.693866,14.86 123.183866,15.1 122.673866,15.01 L122.043866,15.01 C121.833866,15.01 121.683866,14.98 121.473866,14.95 L116.133866,14.95 C116.133866,14.83 116.133866,14.68 116.163866,14.53 L116.163866,11.89 C116.163866,11.8 116.133866,11.5 116.133866,11.11 C117.663866,11.11 120.273866,11.08 122.343866,11.08 L122.553866,11.08 C123.153866,11.08 123.963866,11.32 124.233866,10.99 L124.383866,10.78 C124.413866,10.63 124.473866,10.45 124.503866,10.21 L124.503866,10.03 C124.533866,9.46 124.413866,8.95 124.533866,8.38 C124.533866,8.26 124.563866,8.14 124.563866,8.05 C124.593866,7.6 124.563866,7.27 124.203866,7.06 C123.693866,6.82 123.003866,7.09 122.313866,7 L122.043866,7 C121.833866,7 121.683866,6.97 121.473866,6.94 L115.503866,6.94 C114.663866,6.82 113.853866,6.88 113.013866,6.91 C112.923866,6.91 112.833866,6.94 112.743866,6.94 C112.413866,7.03 112.113866,7.15 111.963866,7.54 C111.963866,7.63 111.933866,7.72 111.933866,7.84 C111.903866,8.02 111.933866,8.23 111.993866,8.47 L111.993866,9.55 C111.993866,10.39 111.963866,11.26 111.993866,12.01 L111.993866,12.22 C111.903866,13.3 111.933866,14.38 111.903866,15.46 L111.903866,15.79 C111.873866,16.36 111.843866,16.84 111.873866,17.41 L111.873866,18.79 C111.873866,19.66 111.903866,23.47 111.903866,25.99 L111.903866,26.2 C111.903866,26.71 111.753866,27.34 111.873866,27.7 C111.903866,27.79 111.963866,27.85 111.993866,27.88 C112.443866,28.12 112.863866,28.12 113.343866,28.09 L113.643866,28.09 C114.573866,28 115.473866,28.09 116.403866,28.06 L117.063866,28.06 C118.593866,28.06 120.663866,28.03 122.343866,28.03 L122.553866,28.03 C123.153866,28.03 123.963866,28.27 124.233866,27.94 L124.383866,27.73 L124.443866,27.55 C124.713866,26.59 124.503866,25.63 124.593866,24.7 L124.533866,24.4 Z M122.673866,26.23 C121.743866,26.44 120.903866,26.29 120.033866,26.26 C119.943866,26.26 119.853866,26.23 119.733866,26.23 C119.043866,26.2 118.383866,26.2 117.693866,26.29 L116.493866,26.29 C115.623866,26.26 114.753866,26.38 113.883866,26.29 C113.793866,26.23 113.733866,26.14 113.733866,26.02 L113.733866,17.8 C113.733866,17.11 113.673866,16.45 113.703866,15.76 L113.703866,15.49 C113.733866,15.34 113.733866,15.19 113.733866,14.98 L113.733866,14.35 C113.703866,13.42 113.673866,12.58 113.793866,11.65 L113.793866,11.38 C113.793866,10.81 113.763866,10.36 113.733866,9.79 L113.733866,8.77 C113.733866,8.53 113.943866,8.41 114.153866,8.5 L115.383866,8.5 C116.193866,8.5 117.003866,8.44 117.813866,8.47 L118.713866,8.47 C118.803866,8.47 118.893866,8.5 118.983866,8.5 C119.913866,8.47 120.753866,8.59 121.683866,8.5 L121.953866,8.5 C122.223866,8.47 122.493866,8.44 122.763866,8.44 C123.153866,8.44 123.153866,9.04 122.763866,9.04 C122.493866,9.04 122.223866,9.07 121.953866,9.1 C121.803866,9.1 121.713866,9.1 121.653866,9.13 C120.723866,9.16 119.913866,9.01 118.983866,9.1 C118.923866,9.07 118.833866,9.07 118.713866,9.07 L117.843866,9.07 C116.973866,9.04 116.073866,9.1 115.203866,9.1 L114.333866,9.1 L114.333866,10.12 C114.363866,10.69 114.363866,11.2 114.363866,11.71 C114.333866,11.77 114.333866,11.86 114.333866,11.98 L114.333866,16.81 L115.473866,16.81 C116.343866,16.84 117.243866,16.84 118.113866,16.84 L120.303866,16.84 C120.993866,16.87 121.713866,16.81 122.403866,16.81 C122.493866,16.81 122.553866,16.84 122.613866,16.9 C122.733866,17.05 122.703866,17.32 122.553866,17.35 C121.743866,17.56 121.053866,17.44 120.303866,17.44 L118.113866,17.44 C117.243866,17.44 116.343866,17.38 115.473866,17.41 L114.333866,17.41 L114.333866,19.03 C114.243866,19.84 114.393866,20.65 114.303866,21.46 L114.303866,22.9 C114.333866,22.96 114.333866,23.05 114.333866,23.14 L114.333866,25.18 C114.333866,25.39 114.303866,25.63 114.333866,25.63 C114.933866,25.84 115.563866,25.69 116.193866,25.69 L117.813866,25.69 C118.443866,25.6 119.043866,25.63 119.673866,25.66 L119.943866,25.66 C120.873866,25.75 121.683866,25.6 122.613866,25.72 C122.853866,25.75 122.913866,26.14 122.673866,26.23 L122.673866,26.23 Z M127.953866,32.5 C127.863866,32.5 127.803866,32.47 127.773866,32.38 C127.563866,32.05 127.833866,31.81 128.163866,31.81 C128.733866,31.84 129.213866,32.02 129.783866,31.81 C129.873866,31.81 129.963866,31.78 130.083866,31.75 C131.913866,31.12 132.003866,28.96 132.003866,27.16 C132.003866,27.07 132.033866,26.98 132.033866,26.89 C132.063866,26.29 132.063866,25.69 132.033866,25.06 C132.033866,23.29 132.003866,21.58 132.003866,19.81 C132.003866,19.09 131.943866,18.4 131.943866,17.68 C131.943866,16.48 132.003866,15.28 132.033866,14.05 C132.033866,13.36 132.063866,12.76 132.063866,12.07 C132.063866,11.11 132.063866,10.15 132.033866,9.19 C132.033866,8.26 132.033866,7.36 132.003866,6.43 C132.003866,5.74 131.973866,5.08 131.703866,4.45 C131.493866,4 131.253866,3.67 130.953866,3.43 L130.743866,3.28 C129.813866,2.89 128.793866,2.77 127.803866,2.77 C127.713866,2.77 127.653866,2.74 127.593866,2.68 C127.563866,2.59 127.503866,2.56 127.503866,2.47 C127.503866,2.26 127.593866,2.17 127.803866,2.17 C127.893866,2.14 128.013866,2.14 128.163866,2.14 C129.093866,2.35 130.113866,2.26 130.983866,2.74 C131.073866,2.83 131.133866,2.8 131.223866,2.89 C131.613866,3.19 131.913866,3.58 132.153866,4.03 C132.513866,4.72 132.603866,5.47 132.603866,6.19 C132.633866,7.18 132.633866,8.14 132.633866,9.13 C132.663866,10.06 132.663866,10.9 132.663866,11.83 C132.663866,13.6 132.603866,15.31 132.603866,17.11 C132.603866,18.91 132.663866,20.68 132.663866,22.51 C132.573866,23.5 132.633866,24.49 132.633866,25.48 L132.633866,26.95 C132.483866,28.96 132.633866,31.84 129.873866,32.41 C129.783866,32.41 129.783866,32.44 129.693866,32.44 C129.123866,32.56 128.523866,32.5 127.953866,32.5 L127.953866,32.5 Z M130.203866,18.82 L130.203866,21.55 C130.203866,22.06 130.173866,22.72 130.173866,23.29 L130.173866,23.62 C130.203866,24.19 130.083866,24.76 130.173866,25.33 L130.173866,27.16 C130.083866,27.97 130.263866,29.05 129.873866,29.8 L129.723866,29.98 L129.513866,30.16 L129.183866,30.31 C129.063866,30.37 128.943866,30.4 128.823866,30.4 C128.463866,30.49 128.073866,30.46 127.713866,30.49 L127.443866,30.49 C127.113866,30.55 126.873866,30.64 126.663866,30.79 L126.483866,31 C126.273866,31.72 126.183866,32.68 126.543866,33.43 C126.603866,33.52 126.663866,33.58 126.753866,33.64 L126.993866,33.82 L127.263866,33.94 C128.193866,34.06 128.883866,34.06 129.753866,33.97 L130.053866,33.97 C131.133866,33.88 132.123866,33.34 132.933866,32.65 L133.143866,32.41 L133.503866,31.96 C133.563866,31.9 133.623866,31.81 133.653866,31.72 C133.683866,31.63 133.743866,31.57 133.773866,31.54 C134.043866,30.7 134.253866,29.83 134.343866,28.96 L134.343866,26.02 C134.343866,25.33 134.403866,24.73 134.403866,24.04 L134.403866,23.14 C134.373866,22.63 134.373866,22.12 134.373866,21.55 L134.403866,21.55 L134.403866,19.63 L134.403866,16.81 C134.403866,15.28 134.373866,13.75 134.373866,12.79 C134.373866,12.22 134.343866,11.92 134.343866,11.83 L134.343866,8.29 L134.343866,6.25 C134.373866,5.56 134.253866,4.9 134.103866,4.27 L134.013866,3.97 C133.923866,3.7 133.803866,3.43 133.653866,3.22 C133.623866,3.13 133.563866,3.07 133.503866,2.98 L133.143866,2.53 L132.933866,2.29 C132.123866,1.6 131.133866,1.06 130.053866,0.97 L129.753866,0.97 C129.183866,0.88 128.733866,0.88 128.163866,0.91 C128.073866,0.91 127.983866,0.94 127.893866,0.94 C127.143866,0.85 126.423866,1.33 126.333866,2.14 C126.333866,2.26 126.303866,2.35 126.303866,2.47 C126.273866,2.86 126.273866,3.28 126.423866,3.67 C126.453866,3.79 126.513866,3.88 126.543866,3.91 C126.693866,4.15 126.903866,4.3 127.173866,4.36 C127.233866,4.36 127.293866,4.39 127.383866,4.42 C127.773866,4.48 128.103866,4.51 128.373866,4.48 C128.463866,4.48 128.553866,4.51 128.643866,4.51 C128.853866,4.51 128.973866,4.54 129.183866,4.63 L129.513866,4.78 L129.723866,4.96 L129.873866,5.14 C130.263866,5.89 130.083866,6.97 130.173866,7.78 L130.173866,8.92 C130.263866,9.79 130.203866,10.63 130.203866,11.5 L130.263866,14.41 L130.203866,16 L130.203866,18.82 Z" id="feature" fill="#5D6063"></path>
    </g>
</svg>