<?xml version="1.0" encoding="UTF-8" standalone="no"?>
<svg width="122px" height="35px" viewBox="0 0 122 35" version="1.1" xmlns="http://www.w3.org/2000/svg" xmlns:xlink="http://www.w3.org/1999/xlink">
    <!-- Generator: Sketch 3.7.1 (28215) - http://www.bohemiancoding.com/sketch -->
    <title>(header)</title>
    <desc>Created with Sketch.</desc>
    <defs></defs>
    <g id="Page-1" stroke="none" stroke-width="1" fill="none" fill-rule="evenodd">
        <path d="M5.17,16 L5.11,14.41 L5.17,11.5 C5.17,10.63 5.11,9.79 5.2,8.92 L5.2,7.78 C5.29,6.97 5.11,5.89 5.5,5.14 L5.65,4.96 L5.86,4.78 L6.19,4.63 C6.4,4.54 6.52,4.51 6.73,4.51 C6.82,4.51 6.91,4.48 7,4.48 C7.27,4.51 7.6,4.48 7.99,4.42 C8.08,4.39 8.14,4.36 8.2,4.36 C8.47,4.3 8.68,4.15 8.83,3.91 C8.86,3.88 8.92,3.79 8.95,3.67 C9.1,3.28 9.1,2.86 9.07,2.47 C9.07,2.35 9.04,2.26 9.04,2.14 C8.95,1.33 8.23,0.85 7.48,0.94 C7.39,0.94 7.3,0.91 7.21,0.91 C6.64,0.88 6.19,0.88 5.62,0.97 L5.32,0.97 C4.24,1.06 3.25,1.6 2.44,2.29 L2.23,2.53 L1.87,2.98 C1.78,3.07 1.75,3.13 1.72,3.22 C1.57,3.43 1.45,3.7 1.36,3.97 L1.27,4.27 C1.12,4.9 1,5.56 1.03,6.25 L1.03,8.29 L1.03,11.83 C1.03,11.92 1,12.22 1,12.79 C1,13.75 0.97,15.28 0.97,16.81 L0.97,19.63 L0.97,21.55 L1,21.55 C1,22.12 1,22.63 0.97,23.14 L0.97,24.04 C0.97,24.73 1.03,25.33 1.03,26.02 L1.03,28.96 C1.12,29.83 1.33,30.7 1.6,31.54 C1.63,31.57 1.69,31.63 1.72,31.72 C1.75,31.81 1.78,31.9 1.87,31.96 L2.23,32.41 L2.44,32.65 C3.25,33.34 4.24,33.88 5.32,33.97 L5.62,33.97 C6.49,34.06 7.18,34.06 8.11,33.94 L8.38,33.82 L8.62,33.64 C8.71,33.58 8.77,33.52 8.83,33.43 C9.19,32.68 9.1,31.72 8.89,31 L8.71,30.79 C8.5,30.64 8.26,30.55 7.93,30.49 L7.66,30.49 C7.3,30.46 6.91,30.49 6.55,30.4 C6.43,30.4 6.31,30.37 6.19,30.31 L5.86,30.16 L5.65,29.98 L5.5,29.8 C5.11,29.05 5.29,27.97 5.2,27.16 L5.2,25.33 C5.29,24.76 5.17,24.19 5.2,23.62 L5.2,23.29 C5.2,22.72 5.17,22.06 5.17,21.55 L5.17,18.82 L5.17,16 Z M7.42,32.5 C6.85,32.5 6.25,32.56 5.68,32.44 C5.59,32.44 5.59,32.41 5.5,32.41 C2.8,31.87 2.83,28.96 2.74,26.95 L2.74,25.48 C2.74,24.49 2.8,23.5 2.71,22.51 C2.71,20.68 2.77,18.91 2.77,17.11 C2.77,15.31 2.71,13.6 2.71,11.83 C2.71,10.9 2.71,10.06 2.74,9.13 C2.74,8.14 2.74,7.18 2.77,6.19 C2.77,5.47 2.86,4.72 3.22,4.03 C3.43,3.58 3.76,3.19 4.15,2.89 C4.24,2.8 4.3,2.83 4.39,2.74 C5.26,2.26 6.28,2.35 7.21,2.14 C7.36,2.14 7.48,2.14 7.57,2.17 C7.78,2.17 7.87,2.26 7.87,2.47 C7.87,2.56 7.81,2.59 7.78,2.68 C7.72,2.74 7.66,2.77 7.57,2.77 C6.58,2.77 5.56,2.89 4.63,3.28 L4.42,3.43 C4.12,3.67 3.88,4 3.67,4.45 C3.4,5.08 3.37,5.74 3.37,6.43 C3.34,7.36 3.34,8.26 3.34,9.19 C3.31,10.15 3.31,11.11 3.31,12.07 C3.31,12.76 3.34,13.36 3.34,14.05 C3.37,15.28 3.43,16.48 3.43,17.68 C3.43,18.4 3.37,19.09 3.37,19.81 C3.37,21.58 3.34,23.29 3.34,25.06 C3.31,25.69 3.31,26.29 3.34,26.89 C3.34,26.98 3.37,27.07 3.37,27.16 C3.37,28.96 3.46,31.12 5.29,31.75 C5.41,31.78 5.5,31.81 5.59,31.81 C6.16,32.02 6.64,31.84 7.21,31.81 C7.54,31.81 7.81,32.05 7.6,32.38 C7.57,32.47 7.51,32.5 7.42,32.5 L7.42,32.5 Z M25.36,8.56 C25.36,8.44 25.36,8.35 25.33,8.32 C25.42,7.96 25.36,7.54 25.21,7.27 C25.18,7.18 25.15,7.12 25.06,7.09 C25.03,7.06 24.97,7 24.88,6.97 C23.95,6.82 23.14,6.88 22.21,6.91 C22.12,6.91 22.03,6.94 21.94,6.94 C21.61,7.03 21.31,7.15 21.16,7.54 C21.16,7.63 21.13,7.72 21.13,7.84 C21.1,8.02 21.13,8.23 21.19,8.47 L21.19,9.55 L21.19,14.11 C21.16,14.14 21.16,14.17 21.16,14.23 L21.16,14.53 C21.16,14.62 21.13,14.71 21.13,14.8 C21.13,15.13 21.1,15.34 21.1,15.67 C19.21,15.64 17.38,15.61 15.49,15.61 L15.34,15.61 C15.34,15.25 15.37,14.92 15.4,14.53 L15.4,11.89 C15.4,11.74 15.37,10.78 15.37,9.73 L15.37,9.49 C15.4,9.28 15.4,9.1 15.4,8.89 L15.4,8.56 C15.4,8.44 15.4,8.35 15.37,8.32 C15.46,7.96 15.4,7.54 15.25,7.27 C15.22,7.18 15.19,7.12 15.1,7.09 C15.07,7.06 15.01,7 14.92,6.97 C13.99,6.82 13.18,6.88 12.25,6.91 C12.16,6.91 12.07,6.94 11.98,6.94 C11.65,7.03 11.35,7.15 11.2,7.54 C11.2,7.63 11.17,7.72 11.17,7.84 C11.14,8.02 11.17,8.23 11.23,8.47 L11.23,9.55 L11.23,14.11 C11.2,14.14 11.2,14.17 11.2,14.23 L11.2,14.53 C11.2,14.62 11.17,14.71 11.17,14.8 C11.14,15.67 11.08,16.54 11.11,17.41 L11.11,18.79 C11.11,19.66 11.14,23.47 11.14,25.99 L11.14,26.2 C11.14,26.8 10.9,27.61 11.23,27.88 L11.44,28.03 C11.77,28.15 12.16,28.18 12.58,28.15 L12.88,28.15 C13.72,27.97 14.77,28.57 15.16,27.85 C15.4,27.34 15.13,26.65 15.22,25.96 L15.22,25.69 C15.22,25.48 15.25,25.33 15.28,25.12 L15.28,19.78 C15.31,19.81 15.4,19.81 15.49,19.81 C17.38,19.81 19.18,19.84 21.07,19.87 C21.07,21.37 21.1,24.04 21.1,25.99 L21.1,26.2 C21.1,26.8 20.86,27.61 21.19,27.88 L21.4,28.03 C21.73,28.15 22.12,28.18 22.54,28.15 L22.84,28.15 C23.68,27.97 24.73,28.57 25.12,27.85 C25.36,27.34 25.09,26.65 25.18,25.96 L25.18,25.69 C25.18,25.48 25.21,25.33 25.24,25.12 L25.24,18.67 C25.24,17.8 25.36,16.9 25.27,16.03 C25.27,15.94 25.3,15.85 25.3,15.73 C25.3,15.34 25.33,14.98 25.36,14.53 L25.36,11.89 C25.36,11.74 25.33,10.78 25.33,9.73 L25.33,9.49 C25.36,9.28 25.36,9.1 25.36,8.89 L25.36,8.56 Z M23.59,23.74 C23.5,24.55 23.62,25.33 23.53,26.17 L23.53,26.53 C23.53,26.92 22.93,26.92 22.93,26.53 L22.93,22.51 C22.9,22.3 22.9,22.18 22.9,21.97 L22.9,21.73 C22.9,21.16 22.9,20.62 22.93,20.05 L22.93,19.27 C22.9,18.82 23.14,18.31 22.9,17.92 C22.69,17.65 22.27,17.86 21.91,17.83 L21.67,17.83 C21.4,17.86 21.13,17.86 20.86,17.83 L19.36,17.83 C19.24,17.83 19.15,17.83 19.09,17.8 C18.22,17.89 17.38,17.77 16.54,17.68 C16.45,17.68 16.36,17.71 16.24,17.71 C15.67,17.71 15.07,17.77 14.5,17.68 L13.99,17.68 C13.9,17.68 13.81,17.71 13.72,17.71 C13.63,17.71 13.54,17.74 13.45,17.74 L13.45,20.83 C13.42,21.31 13.42,21.82 13.42,22.3 L13.42,22.6 C13.57,23.47 13.3,24.31 13.39,25.18 C13.39,25.3 13.39,25.39 13.42,25.42 C13.42,25.63 13.42,25.78 13.45,25.93 L13.45,26.59 C13.45,26.77 13.36,26.86 13.15,26.86 C13.06,26.86 12.97,26.83 12.94,26.8 C12.85,26.56 12.85,26.29 12.82,26.05 L12.82,25 C12.91,24.37 12.82,23.77 12.85,23.14 L12.85,21.82 C12.88,21.79 12.88,21.7 12.88,21.61 L12.88,21.37 C12.88,20.98 12.88,20.62 12.85,20.23 C12.85,20.11 12.85,20.02 12.88,19.93 C12.91,19.06 12.94,18.22 12.85,17.29 L12.85,17.05 C12.91,16.18 12.91,15.28 12.85,14.41 L12.85,14.02 C12.82,13.33 12.76,12.76 12.85,12.07 L12.85,11.29 C12.94,10.42 12.94,9.55 12.85,8.71 L12.85,8.5 C12.85,8.11 13.45,8.11 13.45,8.5 L13.45,8.92 C13.48,9.58 13.48,10.27 13.45,10.96 L13.45,11.89 C13.36,12.61 13.33,13.36 13.42,14.08 C13.45,14.29 13.45,14.47 13.45,14.68 L13.45,17.14 C13.54,17.14 13.63,17.11 13.72,17.11 C13.81,17.08 13.9,17.08 14.02,17.08 L14.53,17.08 C15.1,17.11 15.7,17.11 16.27,17.08 L16.57,17.08 C17.53,17.29 18.49,17.26 19.48,17.23 L20.74,17.23 C21.1,17.26 21.46,17.26 21.82,17.26 L22.12,17.26 C22.39,17.29 22.78,17.29 22.9,17.14 C23.11,16.93 22.9,16.57 22.93,16.24 L22.93,12.19 C22.93,11.8 22.9,11.44 22.9,10.99 C22.87,10.96 22.87,10.87 22.87,10.78 C22.87,9.94 22.9,9.1 22.93,8.26 C22.93,8.23 22.96,8.17 22.99,8.08 C23.08,7.96 23.32,7.93 23.44,8.05 C23.5,8.11 23.53,8.17 23.53,8.26 L23.53,10.18 C23.53,10.27 23.56,10.3 23.56,10.39 C23.56,10.84 23.62,11.23 23.53,11.68 L23.53,16.18 C23.62,17.23 23.53,18.31 23.53,19.36 L23.53,22.39 C23.62,22.75 23.59,23.11 23.59,23.47 L23.59,23.74 Z M41.68,24.4 C41.65,24.25 41.53,24.1 41.35,24.01 C40.84,23.77 40.15,24.04 39.46,23.95 L39.19,23.95 C38.98,23.95 38.83,23.92 38.62,23.89 L33.19,23.89 L33.19,22.09 C33.19,21.16 33.22,20.32 33.19,19.39 L33.19,19.12 C34.57,19.12 37.06,19.09 39.13,19.09 L39.49,19.09 C40.21,19 41.59,19.42 41.44,18.22 L41.44,17.92 C41.44,17.71 41.44,17.53 41.47,17.32 L41.47,16.99 L41.56,16 L41.56,15.79 C41.59,15.52 41.5,15.28 41.29,15.13 C40.84,14.86 40.33,15.1 39.82,15.01 L39.19,15.01 C38.98,15.01 38.83,14.98 38.62,14.95 L33.28,14.95 C33.28,14.83 33.28,14.68 33.31,14.53 L33.31,11.89 C33.31,11.8 33.28,11.5 33.28,11.11 C34.81,11.11 37.42,11.08 39.49,11.08 L39.7,11.08 C40.3,11.08 41.11,11.32 41.38,10.99 L41.53,10.78 C41.56,10.63 41.62,10.45 41.65,10.21 L41.65,10.03 C41.68,9.46 41.56,8.95 41.68,8.38 C41.68,8.26 41.71,8.14 41.71,8.05 C41.74,7.6 41.71,7.27 41.35,7.06 C40.84,6.82 40.15,7.09 39.46,7 L39.19,7 C38.98,7 38.83,6.97 38.62,6.94 L32.65,6.94 C31.81,6.82 31,6.88 30.16,6.91 C30.07,6.91 29.98,6.94 29.89,6.94 C29.56,7.03 29.26,7.15 29.11,7.54 C29.11,7.63 29.08,7.72 29.08,7.84 C29.05,8.02 29.08,8.23 29.14,8.47 L29.14,9.55 C29.14,10.39 29.11,11.26 29.14,12.01 L29.14,12.22 C29.05,13.3 29.08,14.38 29.05,15.46 L29.05,15.79 C29.02,16.36 28.99,16.84 29.02,17.41 L29.02,18.79 C29.02,19.66 29.05,23.47 29.05,25.99 L29.05,26.2 C29.05,26.71 28.9,27.34 29.02,27.7 C29.05,27.79 29.11,27.85 29.14,27.88 C29.59,28.12 30.01,28.12 30.49,28.09 L30.79,28.09 C31.72,28 32.62,28.09 33.55,28.06 L34.21,28.06 C35.74,28.06 37.81,28.03 39.49,28.03 L39.7,28.03 C40.3,28.03 41.11,28.27 41.38,27.94 L41.53,27.73 L41.59,27.55 C41.86,26.59 41.65,25.63 41.74,24.7 L41.68,24.4 Z M39.82,26.23 C38.89,26.44 38.05,26.29 37.18,26.26 C37.09,26.26 37,26.23 36.88,26.23 C36.19,26.2 35.53,26.2 34.84,26.29 L33.64,26.29 C32.77,26.26 31.9,26.38 31.03,26.29 C30.94,26.23 30.88,26.14 30.88,26.02 L30.88,17.8 C30.88,17.11 30.82,16.45 30.85,15.76 L30.85,15.49 C30.88,15.34 30.88,15.19 30.88,14.98 L30.88,14.35 C30.85,13.42 30.82,12.58 30.94,11.65 L30.94,11.38 C30.94,10.81 30.91,10.36 30.88,9.79 L30.88,8.77 C30.88,8.53 31.09,8.41 31.3,8.5 L32.53,8.5 C33.34,8.5 34.15,8.44 34.96,8.47 L35.86,8.47 C35.95,8.47 36.04,8.5 36.13,8.5 C37.06,8.47 37.9,8.59 38.83,8.5 L39.1,8.5 C39.37,8.47 39.64,8.44 39.91,8.44 C40.3,8.44 40.3,9.04 39.91,9.04 C39.64,9.04 39.37,9.07 39.1,9.1 C38.95,9.1 38.86,9.1 38.8,9.13 C37.87,9.16 37.06,9.01 36.13,9.1 C36.07,9.07 35.98,9.07 35.86,9.07 L34.99,9.07 C34.12,9.04 33.22,9.1 32.35,9.1 L31.48,9.1 L31.48,10.12 C31.51,10.69 31.51,11.2 31.51,11.71 C31.48,11.77 31.48,11.86 31.48,11.98 L31.48,16.81 L32.62,16.81 C33.49,16.84 34.39,16.84 35.26,16.84 L37.45,16.84 C38.14,16.87 38.86,16.81 39.55,16.81 C39.64,16.81 39.7,16.84 39.76,16.9 C39.88,17.05 39.85,17.32 39.7,17.35 C38.89,17.56 38.2,17.44 37.45,17.44 L35.26,17.44 C34.39,17.44 33.49,17.38 32.62,17.41 L31.48,17.41 L31.48,19.03 C31.39,19.84 31.54,20.65 31.45,21.46 L31.45,22.9 C31.48,22.96 31.48,23.05 31.48,23.14 L31.48,25.18 C31.48,25.39 31.45,25.63 31.48,25.63 C32.08,25.84 32.71,25.69 33.34,25.69 L34.96,25.69 C35.59,25.6 36.19,25.63 36.82,25.66 L37.09,25.66 C38.02,25.75 38.83,25.6 39.76,25.72 C40,25.75 40.06,26.14 39.82,26.23 L39.82,26.23 Z M59.71,17.17 C59.74,16.21 59.8,15.22 59.71,14.23 C59.68,13.84 59.68,13.45 59.59,13 C59.56,12.88 59.56,12.73 59.56,12.61 L59.41,11.68 C59.41,11.59 59.38,11.47 59.38,11.38 C59.35,11.02 59.26,10.72 59.17,10.39 L59.05,10.06 C58.6,9.19 58,8.41 57.31,7.72 L57.16,7.6 C56.2,6.79 54.94,6.61 53.74,6.49 L53.29,6.49 C51.94,6.58 50.56,6.4 49.27,6.88 L48.88,7.03 C48.19,7.36 47.56,7.66 47.08,8.23 L46.84,8.5 C46.63,8.77 46.42,9.04 46.27,9.37 C46.06,9.76 45.85,10.21 45.7,10.72 C45.43,11.47 45.31,12.28 45.22,13.09 C45.13,13.84 45.07,14.59 45.04,15.31 C45.01,16.3 44.95,17.32 44.95,18.31 C44.95,18.79 44.92,19.3 44.92,19.78 L44.92,20.14 C44.89,20.71 44.92,21.28 44.95,21.85 C44.98,21.91 44.98,22 44.98,22.12 C44.98,22.96 45.01,23.77 44.92,24.61 L44.92,24.85 C44.89,24.94 44.89,25.09 44.89,25.3 C44.89,25.45 44.89,25.54 44.86,25.63 C44.89,26.32 44.62,27.01 44.98,27.64 C45.31,28.21 46.09,28.09 46.66,28.12 C46.75,28.09 46.84,28.09 46.99,28.09 C47.5,28.06 48.01,27.97 48.58,28 C48.67,28 48.76,27.97 48.85,27.88 C49.06,27.67 49.06,27.25 49.09,26.92 L49.09,26.56 C49.06,26.35 49.06,26.11 49.09,25.9 L49.09,25.42 C49.09,25.09 49.12,24.82 49.15,24.49 C49.15,24.34 49.15,24.25 49.18,24.19 C49.18,23.23 49.15,22.24 49.18,21.28 C49.15,21.25 49.15,21.22 49.15,21.13 C50.14,21.13 51.1,21.16 52.09,21.16 L54.01,21.16 C54.46,21.16 54.88,21.22 55.33,21.25 L55.33,21.46 C55.33,21.91 55.3,22.27 55.3,22.72 C55.27,22.81 55.27,22.96 55.27,23.14 C55.27,23.29 55.3,23.44 55.3,23.59 L55.3,24.07 C55.39,25.12 55.09,26.14 55.24,27.19 C55.3,27.61 55.51,27.88 55.87,27.97 C55.96,28.06 56.08,28.03 56.23,28.06 C56.59,28.09 57.04,28.12 57.52,28.12 L57.85,28.12 C58.48,28.03 59.44,28.3 59.62,27.46 C59.83,26.59 59.65,25.72 59.62,24.85 C59.62,24.76 59.62,24.67 59.59,24.64 L59.59,23.59 C59.59,23.32 59.59,23.02 59.62,22.75 C59.65,22.66 59.65,22.51 59.65,22.3 C59.68,21.49 59.68,20.8 59.68,19.99 C59.68,19.84 59.68,19.72 59.65,19.51 L59.65,18.67 C59.68,18.16 59.71,17.68 59.71,17.17 L59.71,17.17 Z M57.91,20.47 C57.91,20.74 57.91,21.01 57.88,21.34 L57.88,21.64 C57.88,21.88 57.85,22.15 57.85,22.42 L57.85,22.69 C57.85,23.62 57.88,24.55 57.79,25.51 L57.79,26.26 C57.79,26.65 57.19,26.65 57.19,26.26 L57.19,25.36 C57.28,24.52 57.22,23.71 57.22,22.87 C57.25,22.81 57.25,22.72 57.25,22.57 C57.25,22.3 57.28,22.03 57.28,21.7 L57.28,21.49 C57.28,21.4 57.31,21.37 57.31,21.28 C57.31,20.71 57.34,20.2 57.34,19.63 L57.34,19.42 L54.91,19.42 C54.1,19.39 53.38,19.33 52.57,19.33 C52.3,19.3 52.03,19.3 51.7,19.3 L51.49,19.3 C50.56,19.27 49.6,19.3 48.67,19.21 C48.55,19.21 48.46,19.21 48.4,19.18 L47.17,19.18 C47.14,19.63 47.14,20.05 47.14,20.5 L47.14,23.47 C47.14,24.46 47.05,25.42 47.05,26.41 C47.05,26.8 46.45,26.8 46.45,26.41 C46.45,25.48 46.54,24.64 46.54,23.71 L46.54,21.04 C46.54,20.05 46.54,19.06 46.63,18.07 C46.72,17.11 46.75,16.12 46.84,15.16 C46.9,14.17 47.02,13.21 47.23,12.34 C47.44,11.53 47.59,10.69 48.07,10 C48.49,9.4 49.06,8.95 49.75,8.62 C50.11,8.47 50.44,8.35 50.8,8.26 C51.25,8.17 51.58,8.2 52.03,8.2 L52.75,8.2 C52.84,8.2 52.93,8.2 52.99,8.23 C53.68,8.23 54.31,8.35 54.91,8.62 L55.15,8.71 C56.08,9.1 56.68,9.91 57.13,10.84 L57.22,11.08 C57.31,11.29 57.31,11.44 57.4,11.59 L57.46,11.86 C57.46,11.95 57.49,11.95 57.49,12.04 C57.7,12.97 57.7,13.84 57.79,14.77 L57.79,15.04 C57.82,15.31 57.85,15.58 57.85,15.85 C57.85,15.94 57.88,16 57.88,16.09 L57.94,17.53 C57.94,18.52 57.94,19.48 57.91,20.47 L57.91,20.47 Z M57.25,15.88 C57.22,15.79 57.22,15.7 57.22,15.58 L57.16,15.07 L57.16,14.8 C57.13,13.87 57.1,13.03 56.89,12.1 C56.89,12.01 56.86,11.95 56.86,11.86 L56.59,11.14 L56.5,10.93 C56.14,10.24 55.69,9.55 54.94,9.31 L54.7,9.22 C54.13,8.98 53.56,8.89 52.96,8.8 L51.79,8.8 C51.43,8.8 51.07,8.8 50.71,8.89 C50.02,9.07 49.42,9.4 48.91,9.91 C48.64,10.18 48.46,10.45 48.31,10.72 C48.1,11.08 48.04,11.5 47.95,11.89 C47.71,12.82 47.56,13.72 47.47,14.65 C47.38,15.61 47.35,16.57 47.26,17.56 C47.23,17.89 47.2,18.25 47.2,18.58 L47.59,18.58 C47.92,18.55 48.28,18.55 48.64,18.58 C48.73,18.58 48.76,18.61 48.85,18.61 C49.69,18.7 50.56,18.67 51.4,18.7 L51.67,18.7 C52.06,18.7 52.42,18.7 52.81,18.73 L55.09,18.82 L57.34,18.82 C57.34,18.13 57.34,17.41 57.31,16.72 C57.31,16.45 57.28,16.15 57.25,15.88 L57.25,15.88 Z M54.04,16.96 C53.41,16.93 52.78,16.96 52.09,16.96 C51.13,16.96 50.14,16.93 49.18,16.93 C49.21,16.06 49.21,15.22 49.3,14.35 C49.3,14.05 49.33,13.72 49.39,13.39 C49.39,13.3 49.42,13.21 49.42,13.12 C49.45,12.76 49.54,12.43 49.63,12.13 C49.69,11.98 49.78,11.86 49.87,11.71 C49.9,11.65 49.93,11.56 50.02,11.44 L50.23,11.23 C50.47,10.96 50.74,10.78 51.07,10.69 L51.37,10.6 C52.24,10.51 53.2,10.57 54.01,10.96 L54.19,11.08 L54.37,11.23 C54.46,11.35 54.55,11.44 54.64,11.59 C55.03,12.07 55.12,12.64 55.21,13.24 C55.33,13.48 55.36,13.84 55.36,14.08 L55.42,14.41 C55.39,14.92 55.39,15.43 55.42,15.97 C55.42,16.06 55.45,16.18 55.45,16.27 C55.45,16.54 55.48,16.78 55.48,17.05 C55,17.02 54.52,16.96 54.04,16.96 L54.04,16.96 Z M77.59,17.35 C77.62,16.39 77.68,15.4 77.59,14.41 L77.53,13.81 L77.53,13.6 L77.47,13.03 C77.32,12.16 77.32,11.26 76.84,10.45 C76.75,10.24 76.63,10.03 76.54,9.88 C76.39,9.52 76.15,9.16 75.85,8.8 L75.64,8.59 L75.46,8.44 C75.37,8.35 75.4,8.32 75.31,8.29 C74.62,7.96 74.11,7.54 73.42,7.3 L73.12,7.18 C72.28,7.15 71.5,6.85 70.63,6.88 C70.54,6.88 70.48,6.85 70.39,6.85 L70.15,6.85 C70.06,6.85 69.97,6.85 69.91,6.82 C68.95,6.61 68.02,6.85 67.06,6.82 L66.76,6.82 C65.77,6.94 64.72,6.64 63.76,6.97 L63.55,7.15 L63.43,7.39 C63.28,7.72 63.22,8.08 63.25,8.47 L63.25,8.65 C63.25,10.6 63.22,14.02 63.22,14.11 L63.16,14.92 C63.16,15.01 63.13,15.1 63.13,15.19 C63.13,15.28 63.1,15.37 63.1,15.46 L63.1,15.76 C63.01,16.69 63.13,17.59 63.1,18.52 L63.1,18.79 C63.1,20.56 63.13,23.98 63.13,26.02 L63.13,26.35 C63.13,27.28 63.43,28.27 64.54,28.03 L66.07,28.03 C67.18,28.03 68.29,28.18 69.37,28.09 L69.67,28.09 C70.12,28.09 70.48,28.06 70.87,28.03 L71.62,28.03 C72.55,27.82 73.51,27.67 74.35,27.16 L74.59,26.98 C74.95,26.74 75.31,26.44 75.64,26.11 L75.85,25.9 C76.45,25.15 76.84,24.28 77.23,23.41 C77.23,23.32 77.26,23.23 77.26,23.14 C77.26,23.05 77.29,22.93 77.29,22.84 L77.44,21.91 C77.44,21.79 77.44,21.64 77.47,21.52 C77.56,21.07 77.56,20.68 77.59,20.29 C77.68,19.3 77.62,18.64 77.59,17.68 L77.59,17.35 Z M75.91,16.45 C75.91,16.54 75.88,16.63 75.88,16.72 C75.91,17.71 75.88,18.7 75.85,19.69 L75.85,19.99 C75.85,20.68 75.82,21.28 75.73,21.97 C75.7,22.06 75.7,22.15 75.7,22.27 C75.49,23.14 75.28,23.98 74.59,24.58 L74.41,24.76 L74.23,24.97 L74.05,25.15 C73.3,25.6 72.46,25.96 71.53,26.17 C71.47,26.2 71.38,26.2 71.29,26.2 C71.2,26.2 71.11,26.23 71.02,26.23 C70.54,26.26 70.06,26.23 69.58,26.23 C69.1,26.23 68.62,26.26 68.14,26.29 C67.15,26.32 66.19,26.32 65.2,26.32 C64.96,26.32 64.84,26.11 64.93,25.9 C64.9,25.87 64.9,25.84 64.9,25.75 C64.87,25.12 64.84,24.46 64.84,23.83 L64.84,23.53 C64.84,23.32 64.84,23.2 64.87,22.99 L64.87,22.69 C64.87,22.3 64.87,21.94 64.9,21.55 L64.9,21.01 C64.87,20.8 64.87,20.65 64.87,20.44 C64.84,19.87 64.84,19.36 64.93,18.79 C64.93,18.67 64.93,18.58 64.9,18.52 C64.87,17.83 64.81,17.2 64.9,16.51 L64.9,16.24 C64.9,16.12 64.9,16.03 64.87,16 C64.87,15.4 64.84,14.86 64.84,14.29 C64.87,14.2 64.87,14.11 64.87,13.99 C64.9,13.54 64.9,13.06 64.9,12.61 L64.9,8.68 C64.9,8.47 65.08,8.38 65.23,8.41 C65.26,8.38 65.29,8.38 65.32,8.38 C65.89,8.38 66.37,8.35 66.94,8.32 C67.45,8.32 67.99,8.32 68.5,8.35 L69.97,8.35 C70.03,8.38 70.12,8.38 70.24,8.38 L70.54,8.44 C70.93,8.47 71.32,8.47 71.68,8.56 C71.77,8.56 71.83,8.59 71.92,8.59 C72.4,8.65 72.82,8.8 73.21,9.04 L73.45,9.16 C73.84,9.43 74.17,9.7 74.5,10.03 L74.65,10.24 C74.89,10.51 75.07,10.81 75.19,11.14 L75.28,11.38 C75.52,12.13 75.64,12.88 75.76,13.69 C75.85,14.02 75.85,14.32 75.88,14.65 L75.88,15.37 C75.94,15.7 75.94,16.06 75.91,16.45 L75.91,16.45 Z M75.28,14.68 C75.28,14.47 75.25,14.32 75.22,14.11 C75.13,13.3 75.01,12.58 74.77,11.77 L74.71,11.53 C74.62,11.29 74.5,11.08 74.38,10.87 L74.23,10.66 L73.66,10.03 L73.45,9.85 C72.76,9.25 71.86,9.13 71.02,9.04 L70.81,9.04 L70.36,8.98 L70.12,8.98 C70.03,8.98 69.97,8.95 69.88,8.95 L69.67,8.95 C69.19,8.95 68.71,8.95 68.23,8.92 C67.3,8.89 66.43,8.98 65.5,8.98 L65.5,12.49 C65.5,13.06 65.47,13.57 65.47,14.14 L65.47,14.41 C65.38,14.98 65.47,15.55 65.5,16.12 L65.5,16.36 C65.41,17.17 65.5,17.98 65.5,18.79 L65.5,19.06 C65.41,19.69 65.47,20.26 65.5,20.95 L65.5,21.73 C65.5,22.09 65.47,22.45 65.47,22.81 L65.47,23.08 C65.47,23.95 65.47,24.79 65.5,25.72 L67.03,25.72 C67.99,25.69 68.95,25.63 69.94,25.63 C70.42,25.63 70.9,25.69 71.38,25.6 C71.47,25.6 71.47,25.57 71.56,25.57 C72.37,25.33 73.12,25.03 73.81,24.55 L74.2,24.16 C74.71,23.59 74.98,22.9 75.1,22.18 C75.1,22.09 75.13,22.03 75.13,21.94 C75.25,21.22 75.25,20.5 75.25,19.81 L75.25,19.6 C75.22,18.64 75.4,17.71 75.37,16.75 L75.37,16.48 C75.37,15.97 75.31,15.46 75.28,14.89 L75.28,14.68 Z M73.27,19.72 C73.27,19.9 73.27,20.02 73.3,20.11 L73.24,20.44 C73.24,20.68 73.21,21.04 73.09,21.28 C73.06,21.61 73.03,21.88 72.94,22.15 C72.91,22.27 72.85,22.36 72.82,22.42 C72.43,23.23 71.62,23.77 70.69,23.68 L70.36,23.68 L68.35,23.77 L68.35,23.8 C67.99,23.8 67.63,23.86 67.39,23.65 C67.18,23.53 67.3,23.05 67.27,22.69 L67.27,18.67 C67.27,17.8 67.39,16.9 67.3,16.03 C67.3,15.94 67.33,15.85 67.33,15.73 C67.33,15.34 67.36,14.98 67.39,14.53 L67.39,11.89 C67.39,11.56 67.3,11.17 67.42,10.93 C67.51,10.81 67.81,10.81 68.05,10.81 C68.14,10.81 68.23,10.81 68.26,10.78 L68.35,10.78 L68.35,10.81 C69.28,10.9 70.12,10.87 70.81,10.96 C70.96,10.96 71.05,10.96 71.11,10.99 C72.04,10.96 72.61,11.8 72.94,12.55 L73,12.82 L73.09,13.42 C73.21,13.66 73.24,14.02 73.24,14.26 L73.3,14.59 C73.27,14.83 73.27,15.1 73.27,15.37 L73.27,15.67 C73.24,16.18 73.3,16.66 73.33,17.17 L73.33,17.47 L73.36,17.74 C73.27,18.31 73.18,18.85 73.27,19.42 L73.27,19.72 Z M93.67,24.4 C93.64,24.25 93.52,24.1 93.34,24.01 C92.83,23.77 92.14,24.04 91.45,23.95 L91.18,23.95 C90.97,23.95 90.82,23.92 90.61,23.89 L85.18,23.89 L85.18,22.09 C85.18,21.16 85.21,20.32 85.18,19.39 L85.18,19.12 C86.56,19.12 89.05,19.09 91.12,19.09 L91.48,19.09 C92.2,19 93.58,19.42 93.43,18.22 L93.43,17.92 C93.43,17.71 93.43,17.53 93.46,17.32 L93.46,16.99 L93.55,16 L93.55,15.79 C93.58,15.52 93.49,15.28 93.28,15.13 C92.83,14.86 92.32,15.1 91.81,15.01 L91.18,15.01 C90.97,15.01 90.82,14.98 90.61,14.95 L85.27,14.95 C85.27,14.83 85.27,14.68 85.3,14.53 L85.3,11.89 C85.3,11.8 85.27,11.5 85.27,11.11 C86.8,11.11 89.41,11.08 91.48,11.08 L91.69,11.08 C92.29,11.08 93.1,11.32 93.37,10.99 L93.52,10.78 C93.55,10.63 93.61,10.45 93.64,10.21 L93.64,10.03 C93.67,9.46 93.55,8.95 93.67,8.38 C93.67,8.26 93.7,8.14 93.7,8.05 C93.73,7.6 93.7,7.27 93.34,7.06 C92.83,6.82 92.14,7.09 91.45,7 L91.18,7 C90.97,7 90.82,6.97 90.61,6.94 L84.64,6.94 C83.8,6.82 82.99,6.88 82.15,6.91 C82.06,6.91 81.97,6.94 81.88,6.94 C81.55,7.03 81.25,7.15 81.1,7.54 C81.1,7.63 81.07,7.72 81.07,7.84 C81.04,8.02 81.07,8.23 81.13,8.47 L81.13,9.55 C81.13,10.39 81.1,11.26 81.13,12.01 L81.13,12.22 C81.04,13.3 81.07,14.38 81.04,15.46 L81.04,15.79 C81.01,16.36 80.98,16.84 81.01,17.41 L81.01,18.79 C81.01,19.66 81.04,23.47 81.04,25.99 L81.04,26.2 C81.04,26.71 80.89,27.34 81.01,27.7 C81.04,27.79 81.1,27.85 81.13,27.88 C81.58,28.12 82,28.12 82.48,28.09 L82.78,28.09 C83.71,28 84.61,28.09 85.54,28.06 L86.2,28.06 C87.73,28.06 89.8,28.03 91.48,28.03 L91.69,28.03 C92.29,28.03 93.1,28.27 93.37,27.94 L93.52,27.73 L93.58,27.55 C93.85,26.59 93.64,25.63 93.73,24.7 L93.67,24.4 Z M91.81,26.23 C90.88,26.44 90.04,26.29 89.17,26.26 C89.08,26.26 88.99,26.23 88.87,26.23 C88.18,26.2 87.52,26.2 86.83,26.29 L85.63,26.29 C84.76,26.26 83.89,26.38 83.02,26.29 C82.93,26.23 82.87,26.14 82.87,26.02 L82.87,17.8 C82.87,17.11 82.81,16.45 82.84,15.76 L82.84,15.49 C82.87,15.34 82.87,15.19 82.87,14.98 L82.87,14.35 C82.84,13.42 82.81,12.58 82.93,11.65 L82.93,11.38 C82.93,10.81 82.9,10.36 82.87,9.79 L82.87,8.77 C82.87,8.53 83.08,8.41 83.29,8.5 L84.52,8.5 C85.33,8.5 86.14,8.44 86.95,8.47 L87.85,8.47 C87.94,8.47 88.03,8.5 88.12,8.5 C89.05,8.47 89.89,8.59 90.82,8.5 L91.09,8.5 C91.36,8.47 91.63,8.44 91.9,8.44 C92.29,8.44 92.29,9.04 91.9,9.04 C91.63,9.04 91.36,9.07 91.09,9.1 C90.94,9.1 90.85,9.1 90.79,9.13 C89.86,9.16 89.05,9.01 88.12,9.1 C88.06,9.07 87.97,9.07 87.85,9.07 L86.98,9.07 C86.11,9.04 85.21,9.1 84.34,9.1 L83.47,9.1 L83.47,10.12 C83.5,10.69 83.5,11.2 83.5,11.71 C83.47,11.77 83.47,11.86 83.47,11.98 L83.47,16.81 L84.61,16.81 C85.48,16.84 86.38,16.84 87.25,16.84 L89.44,16.84 C90.13,16.87 90.85,16.81 91.54,16.81 C91.63,16.81 91.69,16.84 91.75,16.9 C91.87,17.05 91.84,17.32 91.69,17.35 C90.88,17.56 90.19,17.44 89.44,17.44 L87.25,17.44 C86.38,17.44 85.48,17.38 84.61,17.41 L83.47,17.41 L83.47,19.03 C83.38,19.84 83.53,20.65 83.44,21.46 L83.44,22.9 C83.47,22.96 83.47,23.05 83.47,23.14 L83.47,25.18 C83.47,25.39 83.44,25.63 83.47,25.63 C84.07,25.84 84.7,25.69 85.33,25.69 L86.95,25.69 C87.58,25.6 88.18,25.63 88.81,25.66 L89.08,25.66 C90.01,25.75 90.82,25.6 91.75,25.72 C91.99,25.75 92.05,26.14 91.81,26.23 L91.81,26.23 Z M111.82,25.93 C111.82,25.54 111.7,25.15 111.49,24.82 L111.37,24.7 C111.13,24.43 110.71,24.55 110.35,24.46 C110.26,24.46 110.2,24.43 110.11,24.43 C109.78,24.4 109.51,24.31 109.3,24.22 C109.21,24.19 109.15,24.16 109.06,24.07 L108.82,23.89 L108.64,23.68 L108.46,23.44 C108.37,23.38 108.34,23.29 108.31,23.2 C108.1,22.96 108.01,22.72 107.86,22.39 C107.83,22.33 107.77,22.24 107.74,22.12 C107.23,21.25 106.81,20.32 106.42,19.36 C106.75,19.27 107.02,19.24 107.35,19.09 L107.56,18.97 C107.59,18.94 107.68,18.88 107.77,18.85 L108.31,18.49 C108.37,18.46 108.46,18.43 108.58,18.34 C108.82,18.19 109.09,18.04 109.3,17.83 L109.54,17.62 C109.9,17.32 110.2,16.96 110.44,16.51 L110.59,16.24 C110.86,15.7 111.07,15.07 111.16,14.38 L111.22,14.11 C111.25,13.42 111.34,12.85 111.25,12.16 C111.22,12.04 111.19,11.95 111.19,11.83 C110.92,11.02 110.83,10.18 110.38,9.46 L110.2,9.22 L110.05,9.04 L109.75,8.68 L109.51,8.47 L109.24,8.26 L108.94,8.11 C108.13,7.66 107.32,7.18 106.39,7.15 C106.3,7.15 106.18,7.12 106.09,7.12 C105.58,7.03 105.1,6.91 104.53,6.94 C104.44,6.94 104.38,6.91 104.29,6.91 C103.57,6.82 102.82,6.82 102.1,6.91 L101.8,6.91 C101.32,6.94 100.84,6.91 100.36,6.91 L100.06,6.91 C99.25,6.91 98.47,6.76 97.66,7.03 L97.45,7.21 L97.33,7.45 C97.18,7.78 97.12,8.14 97.15,8.53 L97.15,9.16 C97.12,9.67 97.06,10.18 97.09,10.69 L97.09,10.99 C97.18,11.68 97.06,12.28 97.09,12.97 L97.09,13.27 C97.12,13.54 97.09,13.84 97.18,14.11 C97.15,14.2 97.15,14.29 97.15,14.44 C97.15,14.53 97.12,14.65 97.12,14.74 L97.12,14.98 C97.12,15.07 97.09,15.1 97.09,15.19 C97.09,15.28 97.09,15.34 97.06,15.4 C97.15,16.39 97.18,17.47 97.15,18.46 C97.15,18.61 97.15,18.7 97.18,18.76 L97.18,20.32 C97.18,20.41 97.15,20.5 97.15,20.59 C97.18,21.07 97.18,21.55 97.15,22 L97.15,22.3 C97.18,22.75 97.15,23.2 97.15,23.65 L97.15,23.92 C97.18,24.64 97.12,25.36 97.12,26.08 L97.12,26.38 C97.15,26.71 97.03,27.13 97.12,27.49 L97.21,27.73 C97.66,28.36 98.62,28.09 99.25,28.09 C99.31,28.06 99.4,28.06 99.52,28.06 C99.82,28.03 100.09,28.03 100.36,28.06 C100.45,28.06 100.51,28.03 100.6,28.03 C100.87,27.97 101.08,27.82 101.17,27.55 L101.23,27.31 C101.35,26.74 101.2,26.2 101.2,25.63 L101.2,25.39 C101.2,24.82 101.23,24.28 101.23,23.71 L101.23,23.41 C101.26,23.38 101.26,23.29 101.26,23.17 C101.29,22.93 101.26,22.69 101.29,22.45 C101.32,22.39 101.32,22.3 101.32,22.15 C101.32,21.58 101.29,21.04 101.26,20.47 L101.26,20.23 C101.29,19.99 101.29,19.75 101.26,19.51 C101.5,19.54 101.71,19.54 101.95,19.54 L102.16,19.54 C102.19,19.54 102.22,19.57 102.25,19.57 L102.34,19.81 C102.67,20.38 102.91,20.92 103.18,21.49 C103.21,21.61 103.27,21.7 103.3,21.73 C103.33,21.85 103.39,21.94 103.42,22.03 C103.45,22.15 103.51,22.24 103.54,22.33 L104.08,23.59 L104.17,23.86 L104.41,24.34 C104.44,24.46 104.5,24.55 104.53,24.61 C104.56,24.73 104.62,24.82 104.65,24.88 C105.01,25.6 105.46,26.26 106.03,26.86 L106.18,26.98 C106.27,27.1 106.36,27.19 106.48,27.28 L106.69,27.43 C107.32,27.94 108.1,28.18 108.91,28.21 L109.21,28.21 C109.6,28.18 110.02,28.18 110.41,28.09 L110.59,28.03 C110.62,28.03 110.68,28 110.77,27.97 L111.07,27.85 C111.43,27.64 111.64,27.31 111.76,26.95 C111.79,26.8 111.82,26.68 111.82,26.65 C111.85,26.5 111.85,26.32 111.85,26.17 C111.85,26.08 111.85,25.99 111.82,25.93 L111.82,25.93 Z M110.38,26.38 C110.29,26.38 110.23,26.41 110.14,26.41 L109.87,26.41 C108.79,26.5 107.56,26.14 106.96,25.15 L106.75,24.94 C106.66,24.79 106.54,24.64 106.45,24.46 C106.36,24.34 106.33,24.25 106.3,24.19 C105.94,23.5 105.61,22.87 105.22,22.24 C105.19,22.12 105.13,22.03 105.1,21.97 L104.65,20.92 L104.56,20.71 C104.2,19.72 103.93,18.85 103.36,17.92 C103.33,17.89 103.33,17.86 103.33,17.86 L102.43,17.86 C101.92,17.86 101.44,17.86 100.96,17.83 C100.75,17.8 100.63,17.77 100.42,17.77 C100.33,17.8 100.15,17.8 99.94,17.8 C99.79,17.8 99.61,17.8 99.46,17.77 L99.46,20.83 C99.43,21.31 99.43,21.82 99.43,22.3 L99.43,22.6 C99.58,23.47 99.31,24.31 99.4,25.18 C99.4,25.3 99.4,25.39 99.43,25.42 C99.43,25.63 99.43,25.78 99.46,25.93 L99.46,26.59 C99.46,26.77 99.37,26.86 99.16,26.86 C99.07,26.86 98.98,26.83 98.95,26.8 C98.86,26.56 98.86,26.29 98.83,26.05 L98.83,25 C98.92,24.37 98.83,23.77 98.86,23.14 L98.86,21.82 C98.89,21.79 98.89,21.7 98.89,21.61 L98.89,21.37 C98.89,20.98 98.89,20.62 98.86,20.23 C98.86,20.11 98.86,20.02 98.89,19.93 C98.92,19.06 98.95,18.22 98.86,17.29 L98.86,17.05 C98.92,16.18 98.92,15.28 98.86,14.41 L98.86,14.02 C98.83,13.33 98.77,12.76 98.86,12.07 L98.86,11.68 C98.83,10.75 98.92,9.91 98.83,9.04 C98.83,8.98 98.86,8.92 98.89,8.83 C98.92,8.8 98.98,8.74 99.07,8.71 C99.76,8.56 100.45,8.68 101.17,8.65 L101.44,8.65 C101.83,8.65 102.22,8.65 102.61,8.62 C103.78,8.59 104.86,8.62 106.03,8.83 C106.84,8.95 107.59,9.25 108.16,9.88 C108.37,10.12 108.58,10.42 108.73,10.78 L108.82,11.02 C108.88,11.08 108.91,11.14 108.91,11.23 L109,11.47 C109.09,11.62 109.06,11.77 109.15,11.92 L109.24,12.25 C109.39,12.88 109.27,13.51 109.24,14.14 C109.24,14.23 109.21,14.26 109.21,14.35 L109.15,14.65 C109.06,15.1 108.88,15.49 108.64,15.79 L108.46,16.06 C108.13,16.45 107.77,16.81 107.32,17.14 C107.26,17.17 107.17,17.2 107.05,17.29 L106.48,17.53 L106.18,17.62 C105.46,17.77 104.71,17.83 103.99,17.83 C104.47,18.67 104.83,19.63 105.16,20.56 C105.19,20.68 105.25,20.77 105.28,20.83 C105.4,21.16 105.52,21.49 105.67,21.82 L105.79,22.06 C106.12,22.63 106.39,23.23 106.72,23.8 C106.81,23.92 106.84,24.01 106.87,24.07 C106.96,24.16 106.93,24.22 107.02,24.31 L107.2,24.58 L107.41,24.79 C107.98,25.6 108.94,25.96 109.9,25.81 L110.14,25.81 C110.23,25.81 110.29,25.78 110.38,25.78 C110.59,25.78 110.68,25.87 110.68,26.08 C110.68,26.29 110.59,26.38 110.38,26.38 L110.38,26.38 Z M106.36,16.93 C106.57,16.84 106.69,16.81 106.9,16.69 C106.96,16.66 107.05,16.63 107.17,16.54 C107.38,16.42 107.59,16.21 107.83,15.94 L108.01,15.73 C108.16,15.55 108.28,15.37 108.37,15.19 L108.46,15.01 L108.58,14.59 L108.7,14.11 C108.73,14.05 108.73,13.96 108.73,13.84 C108.82,13.15 108.67,12.52 108.52,11.89 L108.43,11.62 L108.25,11.14 L108.13,10.9 C107.86,10.39 107.53,10.03 107.08,9.79 C106.39,9.4 105.58,9.37 104.77,9.28 C103.84,9.19 102.88,9.22 101.92,9.25 L100.99,9.25 C100.48,9.28 99.97,9.31 99.46,9.28 L99.46,9.49 C99.49,9.52 99.49,9.61 99.49,9.7 C99.52,10.15 99.46,10.51 99.46,10.96 L99.46,11.89 C99.37,12.61 99.34,13.36 99.43,14.08 C99.46,14.29 99.46,14.47 99.46,14.68 L99.46,17.17 C99.49,17.17 99.52,17.2 99.61,17.2 L100.06,17.2 C100.21,17.2 100.36,17.17 100.51,17.17 C100.72,17.17 100.87,17.2 101.08,17.23 C102.01,17.32 102.97,17.26 103.9,17.23 C104.59,17.23 105.34,17.23 106.06,17.02 L106.36,16.93 Z M102.88,15.58 C102.55,15.58 102.28,15.55 101.95,15.55 L101.26,15.55 L101.26,15.01 C101.23,14.95 101.23,14.86 101.23,14.71 C101.23,14.59 101.23,14.5 101.26,14.44 L101.26,14.2 L101.29,14.2 L101.29,14.17 C101.29,14.08 101.32,14.02 101.32,13.93 C101.32,13.81 101.32,13.72 101.29,13.66 L101.32,13.66 C101.35,13.18 101.29,12.73 101.29,12.25 L101.29,11.95 C101.29,11.62 101.2,11.23 101.32,10.99 C101.35,10.96 101.41,10.9 101.56,10.87 L101.77,10.87 C102.52,10.78 103.24,10.87 104.05,10.87 C104.17,10.87 104.26,10.87 104.32,10.84 C105.07,10.93 106,11.08 106.36,11.77 C106.42,11.83 106.48,11.92 106.54,12.04 C106.63,12.19 106.75,12.4 106.84,12.61 L106.9,12.88 L106.9,12.97 C106.9,13.06 106.93,13.09 106.93,13.18 C106.99,13.39 106.99,13.6 106.96,13.84 L106.9,14.08 L106.81,14.41 C106.78,14.5 106.78,14.59 106.69,14.68 C106.6,14.95 106.39,15.16 106.09,15.31 L105.82,15.43 C104.98,15.67 104.08,15.61 103.21,15.58 L102.88,15.58 Z M114.58,32.5 C114.49,32.5 114.43,32.47 114.4,32.38 C114.19,32.05 114.46,31.81 114.79,31.81 C115.36,31.84 115.84,32.02 116.41,31.81 C116.5,31.81 116.59,31.78 116.71,31.75 C118.54,31.12 118.63,28.96 118.63,27.16 C118.63,27.07 118.66,26.98 118.66,26.89 C118.69,26.29 118.69,25.69 118.66,25.06 C118.66,23.29 118.63,21.58 118.63,19.81 C118.63,19.09 118.57,18.4 118.57,17.68 C118.57,16.48 118.63,15.28 118.66,14.05 C118.66,13.36 118.69,12.76 118.69,12.07 C118.69,11.11 118.69,10.15 118.66,9.19 C118.66,8.26 118.66,7.36 118.63,6.43 C118.63,5.74 118.6,5.08 118.33,4.45 C118.12,4 117.88,3.67 117.58,3.43 L117.37,3.28 C116.44,2.89 115.42,2.77 114.43,2.77 C114.34,2.77 114.28,2.74 114.22,2.68 C114.19,2.59 114.13,2.56 114.13,2.47 C114.13,2.26 114.22,2.17 114.43,2.17 C114.52,2.14 114.64,2.14 114.79,2.14 C115.72,2.35 116.74,2.26 117.61,2.74 C117.7,2.83 117.76,2.8 117.85,2.89 C118.24,3.19 118.54,3.58 118.78,4.03 C119.14,4.72 119.23,5.47 119.23,6.19 C119.26,7.18 119.26,8.14 119.26,9.13 C119.29,10.06 119.29,10.9 119.29,11.83 C119.29,13.6 119.23,15.31 119.23,17.11 C119.23,18.91 119.29,20.68 119.29,22.51 C119.2,23.5 119.26,24.49 119.26,25.48 L119.26,26.95 C119.11,28.96 119.26,31.84 116.5,32.41 C116.41,32.41 116.41,32.44 116.32,32.44 C115.75,32.56 115.15,32.5 114.58,32.5 L114.58,32.5 Z M116.83,18.82 L116.83,21.55 C116.83,22.06 116.8,22.72 116.8,23.29 L116.8,23.62 C116.83,24.19 116.71,24.76 116.8,25.33 L116.8,27.16 C116.71,27.97 116.89,29.05 116.5,29.8 L116.35,29.98 L116.14,30.16 L115.81,30.31 C115.69,30.37 115.57,30.4 115.45,30.4 C115.09,30.49 114.7,30.46 114.34,30.49 L114.07,30.49 C113.74,30.55 113.5,30.64 113.29,30.79 L113.11,31 C112.9,31.72 112.81,32.68 113.17,33.43 C113.23,33.52 113.29,33.58 113.38,33.64 L113.62,33.82 L113.89,33.94 C114.82,34.06 115.51,34.06 116.38,33.97 L116.68,33.97 C117.76,33.88 118.75,33.34 119.56,32.65 L119.77,32.41 L120.13,31.96 C120.19,31.9 120.25,31.81 120.28,31.72 C120.31,31.63 120.37,31.57 120.4,31.54 C120.67,30.7 120.88,29.83 120.97,28.96 L120.97,26.02 C120.97,25.33 121.03,24.73 121.03,24.04 L121.03,23.14 C121,22.63 121,22.12 121,21.55 L121.03,21.55 L121.03,19.63 L121.03,16.81 C121.03,15.28 121,13.75 121,12.79 C121,12.22 120.97,11.92 120.97,11.83 L120.97,8.29 L120.97,6.25 C121,5.56 120.88,4.9 120.73,4.27 L120.64,3.97 C120.55,3.7 120.43,3.43 120.28,3.22 C120.25,3.13 120.19,3.07 120.13,2.98 L119.77,2.53 L119.56,2.29 C118.75,1.6 117.76,1.06 116.68,0.97 L116.38,0.97 C115.81,0.88 115.36,0.88 114.79,0.91 C114.7,0.91 114.61,0.94 114.52,0.94 C113.77,0.85 113.05,1.33 112.96,2.14 C112.96,2.26 112.93,2.35 112.93,2.47 C112.9,2.86 112.9,3.28 113.05,3.67 C113.08,3.79 113.14,3.88 113.17,3.91 C113.32,4.15 113.53,4.3 113.8,4.36 C113.86,4.36 113.92,4.39 114.01,4.42 C114.4,4.48 114.73,4.51 115,4.48 C115.09,4.48 115.18,4.51 115.27,4.51 C115.48,4.51 115.6,4.54 115.81,4.63 L116.14,4.78 L116.35,4.96 L116.5,5.14 C116.89,5.89 116.71,6.97 116.8,7.78 L116.8,8.92 C116.89,9.79 116.83,10.63 116.83,11.5 L116.89,14.41 L116.83,16 L116.83,18.82 Z" id="(header)" fill="#5D6063"></path>
    </g>
</svg>