<?xml version="1.0" encoding="UTF-8" standalone="no"?>
<svg width="499px" height="245px" viewBox="0 0 499 245" version="1.1" xmlns="http://www.w3.org/2000/svg" xmlns:xlink="http://www.w3.org/1999/xlink">
    <!-- Generator: Sketch 3.7.1 (28215) - http://www.bohemiancoding.com/sketch -->
    <title>illustration</title>
    <desc>Created with Sketch.</desc>
    <defs>
        <rect id="path-1" x="4.59546079" y="38.0742315" width="37.9125515" height="19.5307083"></rect>
        <mask id="mask-2" maskContentUnits="userSpaceOnUse" maskUnits="objectBoundingBox" x="0" y="0" width="37.9125515" height="19.5307083" fill="white">
            <use xlink:href="#path-1"></use>
        </mask>
        <path d="M91.6326538,123.881196 L127.894551,123.881196 L127.132037,126.285681 C126.748613,127.494757 125.418774,128.474907 124.14122,128.474907 L95.8890069,128.474907 C94.6206483,128.474907 93.1863714,127.523087 92.6928489,126.366277 L91.6326538,123.881196 Z" id="path-3"></path>
        <mask id="mask-4" maskContentUnits="userSpaceOnUse" maskUnits="objectBoundingBox" x="0" y="0" width="36.2618975" height="4.59371074" fill="white">
            <use xlink:href="#path-3"></use>
        </mask>
    </defs>
    <g id="Page-1" stroke="none" stroke-width="1" fill="none" fill-rule="evenodd">
        <g id="mockup-desktop" transform="translate(-251.000000, -1540.000000)">
            <g id="illustration" transform="translate(250.000000, 1541.000000)">
                <g id="illustration-big" transform="translate(0.000000, 0.005712)">
                    <g id="Group-2-Copy-2" transform="translate(91.909216, 0.000000)">
                        <path d="M142.148539,217.135522 L177.442959,217.135522 L194.657791,217.135522 C194.379862,211.037458 193.078059,206.178832 183.181236,206.17883 C173.284413,206.178827 166.591647,206.201214 166.591647,185.590639 C166.591647,164.980065 183.181236,148.325385 183.181236,148.325385 L142.148539,148.325385 L101.115843,148.325385 C101.115843,148.325385 117.705432,164.980065 117.705432,185.590639 C117.705432,206.201214 111.012665,206.178827 101.115843,206.17883 C91.2190201,206.178832 89.9172169,211.037458 89.639288,217.135522 L106.85412,217.135522 L142.148539,217.135522 Z" id="Combined-Shape" fill-opacity="0.15" fill="#5D6063"></path>
                        <path d="M5.1328369,8.28652654 C5.1328369,6.63251194 6.47801455,5.29166818 8.14016321,5.29166818 L276.156915,5.29166818 C277.817816,5.29166818 279.164242,6.63547275 279.164242,8.28652654 L279.164242,167.733398 C279.164242,169.387413 277.819064,170.728257 276.156915,170.728257 L8.14016321,170.728257 C6.47926275,170.728257 5.1328369,169.384452 5.1328369,167.733398 L5.1328369,8.28652654 Z" id="Rectangle-121" fill-opacity="0.15" fill="#5D6063"></path>
                        <path d="M137.553079,212.540061 L172.847498,212.540061 L190.06233,212.540061 C189.784401,206.441998 188.482598,201.583371 178.585775,201.583369 C168.688953,201.583367 161.996186,201.605753 161.996186,180.995179 C161.996186,160.384604 178.585775,143.729924 178.585775,143.729924 L137.553079,143.729924 L96.5203818,143.729924 C96.5203818,143.729924 113.109971,160.384604 113.109971,180.995179 C113.109971,201.605753 106.417204,201.583367 96.5203818,201.583369 C86.6235593,201.583371 85.3217561,206.441998 85.0438272,212.540061 L102.258659,212.540061 L137.553079,212.540061 Z" id="Combined-Shape" stroke="#5D6063" stroke-width="2.5" stroke-linecap="round" stroke-linejoin="round" fill="#FFFFFF"></path>
                        <path d="M0.537376114,3.69106575 C0.537376114,2.03705115 1.88255376,0.696207396 3.54470243,0.696207396 L271.561455,0.696207396 C273.222355,0.696207396 274.568781,2.04001196 274.568781,3.69106575 L274.568781,163.137937 C274.568781,164.791952 273.223603,166.132796 271.561455,166.132796 L3.54470243,166.132796 C1.88380197,166.132796 0.537376114,164.788991 0.537376114,163.137937 L0.537376114,3.69106575 Z" id="Rectangle-121" stroke="#5D6063" stroke-width="2.5" stroke-linecap="round" stroke-linejoin="round" fill="#FFFFFF"></path>
                        <path d="M16.7993395,21.5040555 C16.7993395,19.8469596 18.1481653,18.5036179 19.7894476,18.5036179 L264.507631,18.5036179 C266.159022,18.5036179 267.497739,19.8456845 267.497739,21.5040555 L267.497739,156.8136 C267.497739,158.470696 266.148913,159.814037 264.507631,159.814037 L19.7894476,159.814037 C18.1380565,159.814037 16.7993395,158.471971 16.7993395,156.8136 L16.7993395,21.5040555 Z" id="Rectangle-121" fill-opacity="0.15" fill="#5D6063"></path>
                        <path d="M12.2038787,16.9085947 C12.2038787,15.2514988 13.5527045,13.9081572 15.1939869,13.9081572 L259.91217,13.9081572 C261.563561,13.9081572 262.902278,15.2502237 262.902278,16.9085947 L262.902278,152.218139 C262.902278,153.875235 261.553453,155.218576 259.91217,155.218576 L15.1939869,155.218576 C13.5425957,155.218576 12.2038787,153.87651 12.2038787,152.218139 L12.2038787,16.9085947 Z" id="Rectangle-121" stroke="#5D6063" stroke-width="2.5" stroke-linecap="round" stroke-linejoin="round" fill="#FFFFFF"></path>
                        <path d="M24.4814051,30.4789943 C24.4814051,28.8262661 25.8252494,27.4864653 27.480246,27.4864653 L255.293086,27.4864653 C256.949301,27.4864653 258.291927,28.8291843 258.291927,30.4789943 L258.291927,58.2151076 C258.291927,59.8678357 256.948083,61.2076366 255.293086,61.2076366 L27.480246,61.2076366 C25.8240319,61.2076366 24.4814051,59.8649175 24.4814051,58.2151076 L24.4814051,30.4789943 Z" id="Rectangle-121-Copy-3" fill-opacity="0.8" fill="#EAEDF0"></path>
                        <path d="M145.762946,73.9150222 C145.762946,72.2617876 147.105092,70.9215762 148.772824,70.9215762 L255.282049,70.9215762 C256.944359,70.9215762 258.291927,72.262278 258.291927,73.9150222 L258.291927,146.119232 C258.291927,147.772466 256.949782,149.112678 255.282049,149.112678 L148.772824,149.112678 C147.110515,149.112678 145.762946,147.771976 145.762946,146.119232 L145.762946,73.9150222 Z" id="Rectangle-121-Copy-2" fill-opacity="0.8" fill="#EAEDF0"></path>
                        <path d="M24.4814051,73.9150222 C24.4814051,72.2617876 25.8235509,70.9215762 27.4912835,70.9215762 L134.000508,70.9215762 C135.662818,70.9215762 137.010386,72.262278 137.010386,73.9150222 L137.010386,146.119232 C137.010386,147.772466 135.668241,149.112678 134.000508,149.112678 L27.4912835,149.112678 C25.8289735,149.112678 24.4814051,147.771976 24.4814051,146.119232 L24.4814051,73.9150222 Z" id="Rectangle-121-Copy" fill-opacity="0.8" fill="#EAEDF0"></path>
                        <path d="M21.0348095,25.8941843 C21.0348095,24.2355739 22.3786538,22.8910045 24.0336504,22.8910045 L251.846491,22.8910045 C253.502705,22.8910045 254.845332,24.236585 254.845332,25.8941843 L254.845332,54.7578612 C254.845332,56.4164716 253.501488,57.761041 251.846491,57.761041 L24.0336504,57.761041 C22.3774363,57.761041 21.0348095,56.4154604 21.0348095,54.7578612 L21.0348095,25.8941843 Z" id="Rectangle-121" stroke="#B2D6FF" stroke-width="2.5" stroke-linecap="round" stroke-linejoin="round" fill="#FFFFFF"></path>
                        <path d="M142.31635,69.327441 C142.31635,67.6698546 143.658496,66.3261154 145.326229,66.3261154 L251.835453,66.3261154 C253.497763,66.3261154 254.845332,67.6699192 254.845332,69.327441 L254.845332,142.664757 C254.845332,144.322343 253.503186,145.666082 251.835453,145.666082 L145.326229,145.666082 C143.663919,145.666082 142.31635,144.322278 142.31635,142.664757 L142.31635,69.327441 Z" id="Rectangle-121" stroke="#B2D6FF" stroke-width="2.5" stroke-linecap="round" stroke-linejoin="round" fill="#FFFFFF"></path>
                        <path d="M21.0348095,69.327441 C21.0348095,67.6698546 22.3769553,66.3261154 24.0446879,66.3261154 L130.553912,66.3261154 C132.216222,66.3261154 133.563791,67.6699192 133.563791,69.327441 L133.563791,142.664757 C133.563791,144.322343 132.221645,145.666082 130.553912,145.666082 L24.0446879,145.666082 C22.3823779,145.666082 21.0348095,144.322278 21.0348095,142.664757 L21.0348095,69.327441 Z" id="Rectangle-121" stroke="#B2D6FF" stroke-width="2.5" stroke-linecap="round" stroke-linejoin="round" fill="#FFFFFF"></path>
                        <ellipse id="Oval-5" fill="#5D6063" cx="137.553079" cy="7.63124691" rx="2.46474974" ry="2.46474974"></ellipse>
                        <rect id="Rectangle-252-Copy-38" fill="#D6E9FE" x="29.1099898" y="76.5657637" width="38.5281269" height="6.89319118"></rect>
                        <rect id="Rectangle-252-Copy-28" fill="#D6E9FE" x="29.1099898" y="88.0544156" width="62.7657101" height="6.89319118"></rect>
                        <rect id="Rectangle-252-Copy-35" fill="#D6E9FE" x="29.1099898" y="99.5430676" width="73.2360211" height="6.89319118"></rect>
                        <rect id="Rectangle-252-Copy-28" fill="#D6E9FE" x="29.1099898" y="117.457671" width="88.7744771" height="6.89319118"></rect>
                        <rect id="Rectangle-252-Copy-35" fill="#D6E9FE" x="29.1099898" y="128.946323" width="73.2360211" height="6.89319118"></rect>
                        <rect id="Rectangle-252-Copy-38" fill="#D6E9FE" x="151.674103" y="76.5657637" width="73.2360211" height="6.89319118"></rect>
                        <rect id="Rectangle-252-Copy-28" fill="#D6E9FE" x="151.674103" y="88.0544156" width="85.3032409" height="6.89319118"></rect>
                        <rect id="Rectangle-252-Copy-35" fill="#D6E9FE" x="151.674103" y="106.436259" width="50.5500687" height="6.89319118"></rect>
                        <rect id="Rectangle-252-Copy-28" fill="#D6E9FE" x="151.674103" y="117.691291" width="62.7657101" height="6.89319118"></rect>
                        <rect id="Rectangle-252-Copy-35" fill="#D6E9FE" x="151.674103" y="128.946323" width="85.3032409" height="6.89319118"></rect>
                        <rect id="Rectangle-252-Copy-39" fill="#D6E9FE" x="29.1099898" y="36.7686443" width="190.325881" height="6.89319118"></rect>
                        <rect id="Rectangle-183" fill="#D6E9FE" x="227.092651" y="30.3160897" width="19.1384748" height="19.1384748"></rect>
                        <path d="M25.2819758,35.7925921 C25.2819758,35.7925921 25.2819758,29.881468 25.2819758,28.558529 C25.2819758,27.2355901 25.9301636,26.776118 27.0643869,26.776118 L33.8226825,26.776118" id="Path-769-Copy-9" stroke="#B2D6FF" stroke-linecap="round" stroke-linejoin="round"></path>
                        <path d="M25.2819758,86.9951416 C25.2819758,86.9951416 25.2819758,73.975414 25.2819758,72.6524751 C25.2819758,71.3295362 25.9301636,70.870064 27.0643869,70.870064 L33.8226825,70.870064" id="Path-769-Copy-8" stroke="#B2D6FF" stroke-linecap="round" stroke-linejoin="round"></path>
                        <path d="M146.791639,86.9951416 C146.791639,86.9951416 146.791639,73.975414 146.791639,72.6524751 C146.791639,71.3295362 147.439827,70.870064 148.57405,70.870064 L155.332346,70.870064" id="Path-769-Copy-8" stroke="#B2D6FF" stroke-linecap="round" stroke-linejoin="round"></path>
                        <path d="M4.23181888,40.7868217 C4.23181888,40.7868217 4.23181888,9.21079163 4.23181888,7.07270853 C4.23181888,4.93462542 5.27939515,4.19204418 7.11248323,4.19204418 L22.1990871,4.19204418" id="Path-769-Copy-9" stroke="#5D6063" stroke-linecap="round" stroke-linejoin="round"></path>
                        <path d="M114.788281,168.740445 C117.333246,174.891571 117.083759,182.109964 117.083759,186.133941" id="Path-95" stroke="#5D6063" stroke-linecap="round"></path>
                    </g>
                    <g id="Group-8-Copy-2" transform="translate(49.401203, 54.983849)">
                        <rect id="Rectangle-121" stroke="#636363" stroke-width="2.5" stroke-linecap="round" stroke-linejoin="round" fill="#FFFFFF" x="0.638170333" y="0.0784397246" width="111.543142" height="158.794711" rx="3"></rect>
                        <rect id="Rectangle-121" fill="#5D6063" opacity="0.15" x="5.23363112" y="4.67390051" width="111.543142" height="158.794711" rx="3"></rect>
                        <rect id="Rectangle-121" stroke="#636363" stroke-width="2.5" stroke-linecap="round" stroke-linejoin="round" fill="#FFFFFF" x="0.638170333" y="0.0784397246" width="111.543142" height="158.794711" rx="3"></rect>
                        <g id="Group" transform="translate(45.333842, 5.189992)" fill="#5D6063">
                            <rect id="Rectangle-8" x="7.0807354" y="0.53898169" width="15.8047334" height="3.03202757" rx="3"></rect>
                            <ellipse id="Oval-5" cx="1.79073547" cy="2.05499547" rx="1.76333331" ry="1.76333331"></ellipse>
                        </g>
                        <rect id="Rectangle-121" stroke="#636363" stroke-width="2" stroke-linecap="round" stroke-linejoin="round" fill="#FFFFFF" x="9.82909191" y="14.1834527" width="93.6998299" height="121.999611" rx="3"></rect>
                        <path d="M20.5946004,28.4843573 C20.7523585,26.8367944 22.2264754,25.5011808 23.8822577,25.5011808 L92.6882584,25.5011808 C94.3462234,25.5011808 95.6902695,26.8418847 95.6902695,28.5091264 L95.6902695,47.4299095 C95.6902695,49.091152 94.3503576,50.4378551 92.6877185,50.4378551 L21.4950511,50.4378548 C19.836788,50.4378548 18.6208758,49.0971509 18.7781465,47.4546783 L20.5946004,28.4843573 Z" id="Rectangle-126-Copy-19" fill-opacity="0.8" fill="#EAEDF0"></path>
                        <path d="M17.8600994,25.4864989 C17.8600994,23.8252564 19.2063282,22.4785534 20.8621105,22.4785534 L89.6681111,22.4785539 C91.3260761,22.4785539 92.6701222,23.8192578 92.6701222,25.4864994 L92.6701222,44.4072826 C92.6701222,46.068525 91.3238935,47.4152281 89.6681111,47.4152281 L20.8621105,47.4152276 C19.2041455,47.4152276 17.8600994,46.0745237 17.8600994,44.407282 L17.8600994,25.4864989 Z" id="Rectangle-126-Copy-17" stroke="#B2D6FF" stroke-width="2.5" stroke-linecap="round" stroke-linejoin="round" fill="#FFFFFF"></path>
                        <rect id="Rectangle-126-Copy-18" fill-opacity="0.8" fill="#EAEDF0" x="20.7902306" y="59.0677223" width="74.8100228" height="40.8637911" rx="3"></rect>
                        <path d="M20.9999123,33.8622636 C20.9999123,33.8622636 20.9999123,28.6782714 20.9999123,27.5180682 C20.9999123,26.357865 21.5426886,25.9549129 22.4924587,25.9549129 L28.1516859,25.9549129" id="Path-769-Copy-9" stroke="#B2D6FF" stroke-linecap="round" stroke-linejoin="round"></path>
                        <rect id="Rectangle-126-Copy-16" stroke="#B2D6FF" stroke-width="2.5" stroke-linecap="round" stroke-linejoin="round" fill="#FFFFFF" x="17.7054323" y="53.97465" width="74.8100228" height="42.7101956" rx="3"></rect>
                        <path d="M20.9937826,72.3885814 C20.9937826,72.3885814 20.9937826,60.4544983 20.9937826,59.2418721 C20.9937826,58.0292459 21.5622363,57.6080866 22.5569379,57.6080866 L28.4838903,57.6080866" id="Path-769-Copy-8" stroke="#B2D6FF" stroke-linecap="round" stroke-linejoin="round"></path>
                        <path d="M20.6403682,110.06005 C20.7728495,108.409028 22.2264754,107.07061 23.8822577,107.07061 L92.6882584,107.07061 C94.3462234,107.07061 95.6902696,108.407007 95.6902697,110.073817 L95.6902715,133.824217 C95.6902716,135.482843 94.3503599,136.827424 92.6877208,136.827424 L21.4950534,136.827424 C19.8367903,136.827424 18.5997375,135.491027 18.7323809,133.837983 L20.6403682,110.06005 Z" id="Rectangle-126-Copy-19" fill-opacity="0.8" fill="#EAEDF0"></path>
                        <path d="M17.8600998,107.042564 C17.8600996,105.388702 19.2063282,104.047982 20.8621105,104.047982 L89.6681111,104.047983 C91.3260761,104.047983 92.6701224,105.400973 92.6701226,107.042565 L92.670126,133.502625 C92.6701262,135.156487 91.3238977,136.497207 89.6681154,136.497207 L20.8621147,136.497207 C19.2041497,136.497207 17.8601035,135.144216 17.8601032,133.502625 L17.8600998,107.042564 Z" id="Rectangle-126-Copy-17" stroke="#B2D6FF" stroke-width="2.5" stroke-linecap="round" stroke-linejoin="round" fill="#FFFFFF"></path>
                        <path d="M20.9999123,115.431693 C20.9999123,115.431693 20.9999123,110.2477 20.9999123,109.087497 C20.9999123,107.927294 21.5426886,107.524342 22.4924587,107.524342 L28.1516859,107.524342" id="Path-769-Copy-9" stroke="#B2D6FF" stroke-linecap="round" stroke-linejoin="round"></path>
                        <rect id="Rectangle-252-Copy-39" fill="#D6E9FE" x="26.7734511" y="111.973157" width="50.5500687" height="6.89319118"></rect>
                        <rect id="Rectangle-252-Copy-39" fill="#D6E9FE" x="26.7734511" y="124.096383" width="55.9086527" height="6.89319118"></rect>
                        <rect id="Rectangle-183" fill="#D6E9FE" x="74.4709713" y="29.1235364" width="11.0829663" height="11.0829663"></rect>
                        <rect id="Rectangle-252-Copy-39" fill="#D6E9FE" x="25.7315434" y="31.218424" width="40.9734051" height="6.89319118"></rect>
                        <ellipse id="Oval-1" stroke="#5D6063" stroke-width="2" stroke-linecap="round" stroke-linejoin="round" fill="#FFFFFF" cx="56.4097416" cy="147.074844" rx="4.02102819" ry="4.02102819"></ellipse>
                        <path d="M4.26590491,40.2744589 C4.26590491,40.2744589 4.26590491,8.6984288 4.26590491,6.56034569 C4.26590491,4.42226259 5.31348117,3.67968135 7.14656925,3.67968135 L22.2331731,3.67968135" id="Path-769-Copy-9" stroke="#5D6063" stroke-linecap="round" stroke-linejoin="round"></path>
                        <g id="Group-6" transform="translate(25.275034, 60.807253)" fill="#D6E9FE">
                            <rect id="Rectangle-252-Copy-39" x="0.349549437" y="0.0189415182" width="40.9734051" height="6.89319118"></rect>
                            <rect id="Rectangle-252-Copy-39" x="0.349549437" y="11.5075935" width="52.4620571" height="6.89319118"></rect>
                            <rect id="Rectangle-252-Copy-39" x="0.349549437" y="22.9962455" width="46.7177311" height="6.89319118"></rect>
                        </g>
                        <rect id="Rectangle-125-Copy-8" stroke="#5D6063" stroke-width="2.5" stroke-linecap="round" stroke-linejoin="round" x="9.63733671" y="14.3228863" width="93.3393593" height="122.336912" rx="3"></rect>
                    </g>
                    <g id="Group-3-Copy-2" transform="translate(44.005979, 197.241715) rotate(-30.000000) translate(-44.005979, -197.241715) translate(18.534280, 154.788884)">
                        <path d="M3.91441019,3.73735913 C3.91441021,2.08308253 5.24918763,0.742026377 6.91445224,0.742026377 L47.1811212,0.742026377 C48.8379986,0.742026377 50.1811632,2.08098674 50.1811632,3.73735913 L50.1811619,81.9076432 C50.1811619,83.5619198 48.8463845,84.9029759 47.1811199,84.9029759 L6.91445091,84.9029759 C5.25757346,84.9029759 3.91440892,83.5640155 3.91440895,81.9076432 L3.91441019,3.73735913 Z" id="Rectangle-125-Copy-9" fill-opacity="0.15" fill="#5D6063"></path>
                        <rect id="Rectangle-121" stroke="#5D6063" stroke-width="2.5" stroke-linecap="round" stroke-linejoin="round" fill="#FFFFFF" x="0.574432598" y="0.0741687976" width="46.266753" height="81.1581448" rx="3"></rect>
                        <rect id="Rectangle-121" fill="#E7E7E8" x="7.36100455" y="14.1130079" width="37.1241318" height="53.0375072" rx="3"></rect>
                        <use id="Rectangle-208" stroke="#979797" mask="url(#mask-2)" stroke-width="2" fill="#FFFFFF" xlink:href="#path-1"></use>
                        <ellipse id="Oval-1" stroke="#5D6063" stroke-width="2" stroke-linecap="round" stroke-linejoin="round" fill="#FFFFFF" cx="23.7078091" cy="72.6483764" rx="3.44659559" ry="3.44659559"></ellipse>
                        <rect id="Rectangle-8" fill="#5D6063" x="18.3818432" y="6.22827836" width="10.2972638" height="1.97545803" rx="3"></rect>
                        <ellipse id="Oval-5" fill="#5D6063" cx="14.9352476" cy="7.0548712" rx="1.1488652" ry="1.1488652"></ellipse>
                        <g id="Group-7" transform="translate(5.719643, 11.217480)">
                            <path d="M0.00661951385,3.73441852 C0.00661951385,2.07770684 1.34651332,0.734676662 3.00142105,0.734676662 L32.8607714,0.734676662 C34.5147546,0.734676662 35.8555729,2.08533696 35.8555729,3.73441852 L35.8555729,29.1684837 C35.8555729,30.8251953 34.5156791,32.1682255 32.8607714,32.1682255 L3.00142105,32.1682255 C1.34743783,32.1682255 0.00661951385,30.8175652 0.00661951385,29.1684837 L0.00661951385,3.73441852 Z" id="Rectangle-95" stroke="#B2D6FF" stroke-linecap="round" stroke-linejoin="round" fill="#FFFFFF"></path>
                            <path d="M2.49710093,11.6539615 C2.49710093,11.6539615 2.49710093,6.46996936 2.49710093,5.30976619 C2.49710093,4.14956301 3.03987715,3.7466109 3.98964726,3.7466109 L9.64887452,3.7466109" id="Path-769-Copy-9" stroke="#B2D6FF" stroke-linecap="round" stroke-linejoin="round"></path>
                            <path d="M0.00661951385,38.6218178 C0.00661951385,36.9610994 1.34651332,35.6148211 3.00142105,35.6148211 L32.8607714,35.6148211 C34.5147546,35.6148211 35.8555729,36.959506 35.8555729,38.6218178 L35.8555729,50.6947824 C35.8555729,52.3555008 34.5156791,53.7017791 32.8607714,53.7017791 L3.00142105,53.7017791 C1.34743783,53.7017791 0.00661951385,52.3570942 0.00661951385,50.6947824 L0.00661951385,38.6218178 Z" id="Rectangle-95" stroke="#B2D6FF" stroke-linecap="round" stroke-linejoin="round" fill="#FFFFFF"></path>
                            <rect id="Rectangle-252-Copy-39" fill="#D6E9FE" x="4.33575748" y="23.3666641" width="27.2961033" height="4.64533847"></rect>
                            <rect id="Rectangle-252-Copy-39" fill="#D6E9FE" x="4.33575748" y="39.7384104" width="16.9563165" height="4.64533847"></rect>
                            <rect id="Rectangle-252-Copy-39" fill="#D6E9FE" x="4.33575748" y="45.9612946" width="27.2961033" height="4.64533847"></rect>
                            <rect id="Rectangle-183" fill="#D6E9FE" x="9.88903984" y="6.94321835" width="16.0841128" height="14.0888321"></rect>
                        </g>
                        <rect id="Rectangle-121" stroke="#5D6063" stroke-width="2" stroke-linecap="round" stroke-linejoin="round" x="5.06327415" y="11.8152775" width="37.1241318" height="53.0375072" rx="3"></rect>
                    </g>
                    <g id="Group-5-Copy-2" transform="translate(275.727647, 98.802407)">
                        <path d="M28.1453018,7.94429768 C28.1453017,6.28256755 29.4839761,4.93546913 31.1397955,4.93546913 L197.675772,4.93546913 C199.329585,4.93546913 200.670266,6.27440964 200.670266,7.94429768 L200.670271,124.881956 C200.670271,126.543687 199.331596,127.890785 197.675777,127.890785 L31.1398004,127.890785 C29.4859871,127.890785 28.1453065,126.551845 28.1453065,124.881956 L28.1453018,7.94429768 Z" id="Rectangle-121" fill-opacity="0.15" fill="#5D6063"></path>
                        <path d="M23.5011182,3.34883689 C23.5011181,1.68710677 24.8397924,0.340008339 26.4956118,0.340008339 L193.031588,0.340008339 C194.685402,0.340008339 196.026082,1.67894885 196.026082,3.34883689 L196.026087,120.286496 C196.026087,121.948226 194.687413,123.295324 193.031593,123.295324 L26.4956168,123.295324 C24.8418035,123.295324 23.5011229,121.956384 23.5011229,120.286496 L23.5011182,3.34883689 Z" id="Rectangle-121" stroke="#5D6063" stroke-width="2.5" stroke-linecap="round" stroke-linejoin="round" fill="#FFFFFF"></path>
                        <path d="M26.8693629,40.6645059 C26.8693629,40.6645059 26.8693629,9.08847579 26.8693629,6.95039269 C26.8693629,4.81230958 27.9169392,4.06972834 29.7500273,4.06972834 L44.8366311,4.06972834" id="Path-769-Copy-9" stroke="#5D6063" stroke-linecap="round" stroke-linejoin="round"></path>
                        <rect id="Rectangle-121" fill-opacity="0.15" fill="#5D6063" x="37.4845888" y="13.5162461" width="153.846395" height="105.793762" rx="3"></rect>
                        <rect id="Rectangle-121" stroke="#5D6063" stroke-width="2.5" stroke-linecap="round" stroke-linejoin="round" fill="#FFFFFF" x="32.8891281" y="8.92078534" width="153.846395" height="105.793762" rx="3"></rect>
                        <path d="M5.44275949,136.980528 C6.51569666,137.52831 13.7181286,141.17386 15.3664267,141.17386 C17.1486216,141.17386 215.066374,141.17386 215.066374,141.17386 C216.241833,141.17386 218.015615,140.676627 219.024978,140.065225 L222.400441,138.020608 C223.187979,137.543573 223.281396,137.136908 222.726472,136.980528 L223.452534,136.980528 L223.452534,127.596143 L5.26559243,127.596143 L5.26559243,136.980528 L5.44275949,136.980528 Z" id="Combined-Shape" fill-opacity="0.15" fill="#5D6063"></path>
                        <path d="M0.878453879,132.316512 C0.878453879,132.316512 9.15379513,136.578399 10.93599,136.578399 C12.7181849,136.578399 210.635937,136.578399 210.635937,136.578399 C211.811396,136.578399 213.585178,136.081166 214.594542,135.469764 L217.970004,133.425147 C218.980822,132.812865 218.848135,132.316512 217.668746,132.316512 L0.878453879,132.316512 Z" id="Path-3" stroke="#5D6063" stroke-width="2" stroke-linecap="round" stroke-linejoin="round" fill="#FFFFFF"></path>
                        <rect id="Rectangle-25" stroke="#5D6063" stroke-width="2.5" stroke-linecap="round" stroke-linejoin="round" fill="#FFFFFF" x="0.670131644" y="123.000682" width="218.186942" height="9.38438459"></rect>
                        <g id="Group-4" transform="translate(41.980556, 18.381843)">
                            <rect id="Rectangle-126-Copy-17" fill-opacity="0.8" fill="#EAEDF0" x="3.8296168" y="4.17696005" width="135.056938" height="29.3616228" rx="3"></rect>
                            <rect id="Rectangle-126-Copy-17" stroke="#B2D6FF" stroke-width="2.5" stroke-linecap="round" stroke-linejoin="round" fill="#FFFFFF" x="0.383021206" y="0.73036446" width="135.056938" height="29.3616228" rx="3"></rect>
                            <rect id="Rectangle-252-Copy-39" fill="#D6E9FE" x="8.36074692" y="11.9634404" width="90.9691494" height="7.11796915"></rect>
                            <polygon id="Rectangle-183" fill="#D6E9FE" points="108.564338 6.6998895 127.704432 6.6998895 127.704432 24.3449604 108.564338 24.3449604"></polygon>
                            <rect id="Rectangle-126-Copy-16" fill-opacity="0.8" fill="#EAEDF0" x="3.8296168" y="42.3470696" width="135.056938" height="48.1149653" rx="3"></rect>
                            <rect id="Rectangle-126-Copy-16" stroke="#B2D6FF" stroke-width="2.5" stroke-linecap="round" stroke-linejoin="round" fill="#FFFFFF" x="0.383021206" y="38.9004741" width="135.056938" height="48.1149653" rx="3"></rect>
                            <g id="Group-9" transform="translate(9.347932, 46.873844)" fill="#D6E9FE">
                                <rect id="Rectangle-252-Copy-38" x="0.145867595" y="0.420837209" width="60.9999198" height="7.11796915"></rect>
                                <polygon id="Rectangle-252-Copy-28" points="0.145867595 12.2841191 111.008758 12.2841191 111.008758 19.4020883 0.145867595 19.4020883"></polygon>
                                <polygon id="Rectangle-252-Copy-35" points="0.145867595 24.1474011 98.9696881 24.1474011 98.9696881 31.2653702 0.145867595 31.2653702"></polygon>
                            </g>
                        </g>
                        <path d="M46.734808,32.5265964 C46.734808,32.5265964 46.734808,26.6154723 46.734808,25.2925333 C46.734808,23.9695944 47.3829958,23.5101223 48.517219,23.5101223 L55.2755146,23.5101223" id="Path-769-Copy-9" stroke="#B2D6FF" stroke-linecap="round" stroke-linejoin="round"></path>
                        <path d="M46.734808,77.9427438 C46.734808,77.9427438 46.734808,64.9230163 46.734808,63.6000774 C46.734808,62.2771384 47.3829958,61.8176663 48.517219,61.8176663 L55.2755146,61.8176663" id="Path-769-Copy-8" stroke="#B2D6FF" stroke-linecap="round" stroke-linejoin="round"></path>
                        <use id="Rectangle-17" stroke="#5D6063" mask="url(#mask-4)" stroke-width="2" xlink:href="#path-3"></use>
                        <ellipse id="Oval-5" fill="#5D6063" cx="109.763603" cy="4.29249043" rx="1.60670302" ry="1.60670302"></ellipse>
                    </g>
                </g>
            </g>
        </g>
    </g>
</svg>