<?xml version="1.0" encoding="UTF-8" standalone="no"?>
<svg width="125px" height="35px" viewBox="0 0 125 35" version="1.1" xmlns="http://www.w3.org/2000/svg" xmlns:xlink="http://www.w3.org/1999/xlink">
    <!-- Generator: Sketch 3.7.1 (28215) - http://www.bohemiancoding.com/sketch -->
    <title>sign-up</title>
    <desc>Created with Sketch.</desc>
    <defs></defs>
    <g id="Page-1" stroke="none" stroke-width="1" fill="none" fill-rule="evenodd">
        <path d="M5.09886565,16 L5.03886565,14.41 L5.09886565,11.5 C5.09886565,10.63 5.03886565,9.79 5.12886565,8.92 L5.12886565,7.78 C5.21886565,6.97 5.03886565,5.89 5.42886565,5.14 L5.57886565,4.96 L5.78886565,4.78 L6.11886565,4.63 C6.32886565,4.54 6.44886565,4.51 6.65886565,4.51 C6.74886565,4.51 6.83886565,4.48 6.92886565,4.48 C7.19886565,4.51 7.52886565,4.48 7.91886565,4.42 C8.00886565,4.39 8.06886565,4.36 8.12886565,4.36 C8.39886565,4.3 8.60886565,4.15 8.75886565,3.91 C8.78886565,3.88 8.84886565,3.79 8.87886565,3.67 C9.02886565,3.28 9.02886565,2.86 8.99886565,2.47 C8.99886565,2.35 8.96886565,2.26 8.96886565,2.14 C8.87886565,1.33 8.15886565,0.85 7.40886565,0.94 C7.31886565,0.94 7.22886565,0.91 7.13886565,0.91 C6.56886565,0.88 6.11886565,0.88 5.54886565,0.97 L5.24886565,0.97 C4.16886565,1.06 3.17886565,1.6 2.36886565,2.29 L2.15886565,2.53 L1.79886565,2.98 C1.70886565,3.07 1.67886565,3.13 1.64886565,3.22 C1.49886565,3.43 1.37886565,3.7 1.28886565,3.97 L1.19886565,4.27 C1.04886565,4.9 0.928865646,5.56 0.958865646,6.25 L0.958865646,8.29 L0.958865646,11.83 C0.958865646,11.92 0.928865646,12.22 0.928865646,12.79 C0.928865646,13.75 0.898865646,15.28 0.898865646,16.81 L0.898865646,19.63 L0.898865646,21.55 L0.928865646,21.55 C0.928865646,22.12 0.928865646,22.63 0.898865646,23.14 L0.898865646,24.04 C0.898865646,24.73 0.958865646,25.33 0.958865646,26.02 L0.958865646,28.96 C1.04886565,29.83 1.25886565,30.7 1.52886565,31.54 C1.55886565,31.57 1.61886565,31.63 1.64886565,31.72 C1.67886565,31.81 1.70886565,31.9 1.79886565,31.96 L2.15886565,32.41 L2.36886565,32.65 C3.17886565,33.34 4.16886565,33.88 5.24886565,33.97 L5.54886565,33.97 C6.41886565,34.06 7.10886565,34.06 8.03886565,33.94 L8.30886565,33.82 L8.54886565,33.64 C8.63886565,33.58 8.69886565,33.52 8.75886565,33.43 C9.11886565,32.68 9.02886565,31.72 8.81886565,31 L8.63886565,30.79 C8.42886565,30.64 8.18886565,30.55 7.85886565,30.49 L7.58886565,30.49 C7.22886565,30.46 6.83886565,30.49 6.47886565,30.4 C6.35886565,30.4 6.23886565,30.37 6.11886565,30.31 L5.78886565,30.16 L5.57886565,29.98 L5.42886565,29.8 C5.03886565,29.05 5.21886565,27.97 5.12886565,27.16 L5.12886565,25.33 C5.21886565,24.76 5.09886565,24.19 5.12886565,23.62 L5.12886565,23.29 C5.12886565,22.72 5.09886565,22.06 5.09886565,21.55 L5.09886565,18.82 L5.09886565,16 Z M7.34886565,32.5 C6.77886565,32.5 6.17886565,32.56 5.60886565,32.44 C5.51886565,32.44 5.51886565,32.41 5.42886565,32.41 C2.72886565,31.87 2.75886565,28.96 2.66886565,26.95 L2.66886565,25.48 C2.66886565,24.49 2.72886565,23.5 2.63886565,22.51 C2.63886565,20.68 2.69886565,18.91 2.69886565,17.11 C2.69886565,15.31 2.63886565,13.6 2.63886565,11.83 C2.63886565,10.9 2.63886565,10.06 2.66886565,9.13 C2.66886565,8.14 2.66886565,7.18 2.69886565,6.19 C2.69886565,5.47 2.78886565,4.72 3.14886565,4.03 C3.35886565,3.58 3.68886565,3.19 4.07886565,2.89 C4.16886565,2.8 4.22886565,2.83 4.31886565,2.74 C5.18886565,2.26 6.20886565,2.35 7.13886565,2.14 C7.28886565,2.14 7.40886565,2.14 7.49886565,2.17 C7.70886565,2.17 7.79886565,2.26 7.79886565,2.47 C7.79886565,2.56 7.73886565,2.59 7.70886565,2.68 C7.64886565,2.74 7.58886565,2.77 7.49886565,2.77 C6.50886565,2.77 5.48886565,2.89 4.55886565,3.28 L4.34886565,3.43 C4.04886565,3.67 3.80886565,4 3.59886565,4.45 C3.32886565,5.08 3.29886565,5.74 3.29886565,6.43 C3.26886565,7.36 3.26886565,8.26 3.26886565,9.19 C3.23886565,10.15 3.23886565,11.11 3.23886565,12.07 C3.23886565,12.76 3.26886565,13.36 3.26886565,14.05 C3.29886565,15.28 3.35886565,16.48 3.35886565,17.68 C3.35886565,18.4 3.29886565,19.09 3.29886565,19.81 C3.29886565,21.58 3.26886565,23.29 3.26886565,25.06 C3.23886565,25.69 3.23886565,26.29 3.26886565,26.89 C3.26886565,26.98 3.29886565,27.07 3.29886565,27.16 C3.29886565,28.96 3.38886565,31.12 5.21886565,31.75 C5.33886565,31.78 5.42886565,31.81 5.51886565,31.81 C6.08886565,32.02 6.56886565,31.84 7.13886565,31.81 C7.46886565,31.81 7.73886565,32.05 7.52886565,32.38 C7.49886565,32.47 7.43886565,32.5 7.34886565,32.5 L7.34886565,32.5 Z M15.5388656,11.89 C15.5688656,11.83 15.5988656,11.74 15.6888656,11.62 L15.8988656,11.41 C16.1388656,11.14 16.4088656,10.96 16.7388656,10.87 L17.0388656,10.78 C17.9088656,10.69 18.8688656,10.75 19.6788656,11.14 L19.8588656,11.26 L20.0388656,11.41 C20.1288656,11.53 20.2188656,11.62 20.3088656,11.77 C20.5188656,12.04 20.6388656,12.28 20.7288656,12.55 L20.7888656,12.82 C20.8188656,13.03 20.8488656,13.24 20.9388656,13.45 C20.9988656,13.66 21.0888656,13.81 21.2388656,13.96 C22.0488656,14.23 22.9788656,14.05 23.8188656,14.14 C23.9388656,14.14 24.0288656,14.14 24.0888656,14.17 C24.6888656,14.17 25.2288656,13.78 25.2588656,13.15 C25.2588656,13 25.2588656,12.91 25.2288656,12.85 L25.1088656,11.92 L25.0488656,11.68 C24.9588656,11.23 24.8688656,10.84 24.6288656,10.45 C24.5388656,10.24 24.4188656,10.03 24.3288656,9.88 C24.1788656,9.52 23.9388656,9.16 23.6388656,8.8 L23.4288656,8.59 C23.0988656,8.26 22.7388656,7.96 22.3788656,7.72 L22.1388656,7.54 C21.2988656,7.03 20.3388656,6.88 19.4088656,6.67 L18.9588656,6.67 C17.6088656,6.76 16.2288656,6.58 14.9388656,7.06 L14.5488656,7.21 C13.8588656,7.54 13.2288656,7.84 12.7488656,8.41 L12.5088656,8.68 C12.2988656,8.95 12.0888656,9.22 11.9388656,9.55 C11.7588656,9.85 11.6088656,10.15 11.5188656,10.42 L11.3688656,10.9 C11.1588656,11.38 11.0388656,11.83 11.0088656,12.4 C11.0088656,12.49 10.9788656,12.58 10.9788656,12.7 C11.0688656,13.63 10.9788656,14.59 11.4288656,15.46 C11.4588656,15.52 11.4888656,15.61 11.5788656,15.73 C11.6988656,15.94 11.8188656,16.09 11.9688656,16.24 L12.1788656,16.45 C12.6288656,16.96 13.1388656,17.41 13.7688656,17.8 L13.9488656,17.89 L14.1588656,17.98 C15.0288656,18.55 16.0188656,18.82 16.9488656,19.21 L17.2488656,19.3 C18.1788656,19.54 19.0488656,19.93 19.8588656,20.41 C19.9488656,20.44 20.0088656,20.47 20.0988656,20.56 C20.2488656,20.65 20.3688656,20.8 20.4888656,20.95 C20.5188656,21.04 20.5788656,21.1 20.6088656,21.13 L20.6988656,21.4 L20.7588656,21.64 L20.7588656,21.94 C20.7288656,22.66 20.4888656,23.32 19.9188656,23.8 L19.7088656,23.95 C19.5588656,24.04 19.4088656,24.13 19.2588656,24.16 L18.9588656,24.25 C18.0888656,24.34 17.1288656,24.28 16.3188656,23.89 L16.1388656,23.77 L15.9588656,23.62 C15.8688656,23.5 15.7788656,23.41 15.6888656,23.26 C15.4188656,22.93 15.2988656,22.57 15.2088656,22.21 L15.1488656,21.91 C15.1488656,21.82 15.1188656,21.79 15.1188656,21.7 C15.1188656,21.49 15.0888656,21.28 14.9988656,21.13 L14.8788656,20.92 L14.6988656,20.74 C14.6088656,20.71 14.5188656,20.65 14.3988656,20.62 C14.0688656,20.53 13.7088656,20.5 13.3188656,20.5 C13.1988656,20.5 13.1088656,20.5 13.0488656,20.47 C12.5688656,20.56 11.9988656,20.47 11.4888656,20.56 C11.3988656,20.56 11.3088656,20.59 11.1888656,20.65 C10.5888656,20.86 10.6488656,21.55 10.7688656,22.06 L10.7688656,22.24 L10.7688656,22.27 C10.7688656,22.33 10.7688656,22.36 10.7988656,22.39 C10.9188656,23.14 11.0088656,23.86 11.3688656,24.55 L11.4588656,24.79 L11.5788656,25.03 C11.6688656,25.12 11.6388656,25.18 11.7288656,25.27 C11.9388656,25.63 12.1488656,25.96 12.3588656,26.23 L12.5688656,26.44 C12.8988656,26.77 13.2588656,27.07 13.6188656,27.31 L13.8588656,27.49 C14.6988656,28 15.6588656,28.15 16.5888656,28.36 L17.0388656,28.36 C18.3888656,28.27 19.7688656,28.45 21.0588656,27.97 L21.4488656,27.82 C22.1388656,27.49 22.7688656,27.19 23.2488656,26.62 L23.4888656,26.35 C23.6988656,26.08 23.9088656,25.81 24.0588656,25.48 L24.1788656,25.27 L24.2688656,25.06 C24.6588656,24.25 24.8988656,23.38 25.0488656,22.51 C25.0488656,22.39 25.0788656,22.3 25.0788656,22.18 C25.0788656,21.85 25.0488656,21.52 24.9588656,21.22 C24.9588656,21.1 24.9588656,21.01 24.9288656,20.92 C24.8688656,19.93 24.5088656,19.09 23.8788656,18.37 L23.7288656,18.19 L23.2488656,17.65 L22.9788656,17.41 C22.4088656,16.96 21.7788656,16.75 21.1488656,16.51 C21.0888656,16.48 20.9988656,16.42 20.8788656,16.39 C19.9188656,16 18.8988656,15.76 17.9688656,15.31 C17.8488656,15.28 17.7588656,15.25 17.7288656,15.25 C17.0088656,15.01 16.3188656,14.71 15.7488656,14.2 L15.5388656,13.96 C15.0888656,13.48 15.0888656,12.67 15.4188656,12.1 C15.4488656,12.01 15.4788656,11.95 15.5388656,11.89 L15.5388656,11.89 Z M15.0588656,9.4 C14.7288656,9.61 14.3988656,9.88 14.1288656,10.21 L13.9788656,10.39 C13.3788656,11.26 13.2288656,12.28 13.4388656,13.33 L13.4988656,13.6 C13.6188656,14.32 14.0988656,14.92 14.7288656,15.37 L14.9688656,15.55 C15.3588656,15.85 15.7788656,16.09 16.2288656,16.27 L16.4988656,16.39 C16.7388656,16.48 16.9788656,16.6 17.2488656,16.75 L17.4588656,16.84 L17.6688656,16.93 L17.8488656,16.99 C18.7188656,17.38 19.6188656,17.71 20.4888656,18.1 L20.7588656,18.25 C21.0888656,18.37 21.3288656,18.55 21.5688656,18.7 L21.8088656,18.88 C22.4088656,19.39 22.7688656,20.11 23.0988656,20.83 L23.1588656,21.07 C23.2488656,21.28 23.2188656,21.4 23.2188656,21.61 L23.2188656,21.85 C23.2188656,22.21 23.1888656,22.57 23.0988656,22.9 L22.9788656,23.32 L22.9188656,23.5 C22.8888656,23.62 22.8288656,23.71 22.7988656,23.8 L22.6788656,24.07 C22.3788656,24.7 21.9588656,25.21 21.4188656,25.6 L21.1488656,25.78 C20.8188656,25.99 20.4588656,26.17 20.1288656,26.32 L19.8588656,26.44 C18.8688656,26.77 17.8188656,26.68 16.7688656,26.65 L16.4688656,26.59 C15.5388656,26.38 14.7288656,26.11 14.0388656,25.42 L13.8288656,25.21 L13.6188656,25 C12.9288656,24.19 12.5988656,23.23 12.5688656,22.18 L12.5088656,21.97 C12.3888656,21.61 12.9588656,21.46 13.0788656,21.82 C13.1088656,21.91 13.1388656,21.97 13.1388656,22.03 C13.1388656,22.12 13.1688656,22.15 13.1688656,22.24 C13.1988656,23.17 13.5288656,23.98 14.1588656,24.7 L14.3688656,24.88 C14.9388656,25.48 15.6888656,25.84 16.4988656,26.05 C16.5888656,26.05 16.6788656,26.08 16.7988656,26.08 C17.8488656,26.32 18.9588656,26.17 19.9488656,25.81 L20.1588656,25.72 L20.7588656,25.33 C20.8488656,25.3 20.9088656,25.24 20.9388656,25.21 L21.0888656,25.09 L21.3288656,24.88 C21.7188656,24.49 22.0488656,24.04 22.2588656,23.53 C22.2888656,23.44 22.3488656,23.35 22.3788656,23.23 L22.4388656,23.05 C22.5288656,22.78 22.5588656,22.51 22.5888656,22.27 C22.5888656,22.12 22.5888656,22.03 22.6188656,21.94 L22.6188656,21.64 C22.4988656,20.71 22.0488656,19.87 21.3588656,19.3 C21.2688656,19.21 21.2088656,19.18 21.1188656,19.15 C20.9688656,19.03 20.8188656,18.94 20.6088656,18.85 C20.5788656,18.82 20.4888656,18.76 20.3688656,18.73 C19.4088656,18.22 18.3888656,17.86 17.3988656,17.5 C17.3088656,17.47 17.2488656,17.41 17.2188656,17.38 L17.0388656,17.29 C16.7688656,17.14 16.4988656,17.02 16.2288656,16.9 L15.9288656,16.78 C15.4188656,16.57 14.9988656,16.33 14.6388656,16.06 L14.3988656,15.88 C13.6788656,15.31 13.0788656,14.59 12.8688656,13.66 C12.8688656,13.57 12.8388656,13.45 12.8388656,13.36 C12.5088656,12.31 12.7188656,11.2 13.3188656,10.36 L13.4988656,10.09 L13.6488656,9.88 L13.8288656,9.61 C14.1888656,9.22 14.5788656,8.92 15.0288656,8.68 L15.3288656,8.56 C15.6288656,8.44 15.9288656,8.35 16.2588656,8.29 C16.4088656,8.29 16.4988656,8.29 16.5888656,8.26 C17.6688656,8.17 18.7488656,8.14 19.7988656,8.5 C19.8288656,8.5 19.9188656,8.53 20.0388656,8.56 C20.3088656,8.62 20.5188656,8.71 20.7288656,8.83 L20.9688656,8.98 C21.9588656,9.49 22.6188656,10.27 22.9488656,11.32 L23.0388656,11.59 C23.1288656,11.86 23.1588656,12.13 23.1288656,12.46 C23.1288656,12.85 22.5288656,12.85 22.5288656,12.46 C22.5588656,12.19 22.5288656,11.95 22.4388656,11.71 L22.3488656,11.44 C22.1088656,10.51 21.3888656,9.85 20.5188656,9.4 L20.3088656,9.31 C20.1588656,9.22 19.9788656,9.16 19.8288656,9.13 C19.7088656,9.1 19.6188656,9.07 19.5888656,9.07 C18.6588656,8.86 17.7588656,8.71 16.8288656,8.8 C16.7088656,8.8 16.6188656,8.8 16.5588656,8.83 C16.1088656,8.92 15.7488656,9.04 15.2988656,9.25 L15.0588656,9.4 Z M32.7888656,22.69 L32.7888656,18.67 C32.7888656,17.8 32.9088656,16.9 32.8188656,16.03 C32.8188656,15.94 32.8488656,15.85 32.8488656,15.73 C32.8488656,15.34 32.8788656,14.98 32.9088656,14.53 L32.9088656,11.89 C32.9088656,11.74 32.8788656,10.78 32.8788656,9.73 L32.8788656,9.49 C32.9088656,9.28 32.9088656,9.1 32.9088656,8.89 L32.9088656,8.56 C32.9088656,8.44 32.9088656,8.35 32.8788656,8.32 C32.9688656,7.96 32.9088656,7.54 32.7588656,7.27 C32.7288656,7.18 32.6988656,7.12 32.6088656,7.09 C32.5788656,7.06 32.5188656,7 32.4288656,6.97 C31.4988656,6.82 30.6888656,6.88 29.7588656,6.91 C29.6688656,6.91 29.5788656,6.94 29.4888656,6.94 C29.1588656,7.03 28.8588656,7.15 28.7088656,7.54 C28.7088656,7.63 28.6788656,7.72 28.6788656,7.84 C28.6488656,8.02 28.6788656,8.23 28.7388656,8.47 L28.7388656,8.89 L28.7388656,9.34 L28.7388656,9.55 L28.7388656,14.11 C28.7088656,14.14 28.7088656,14.17 28.7088656,14.23 L28.7088656,14.53 C28.7088656,14.62 28.6788656,14.71 28.6788656,14.8 C28.6488656,15.67 28.5888656,16.54 28.6188656,17.41 L28.6188656,17.68 L28.6188656,18.52 L28.6188656,18.79 C28.6188656,19.66 28.6488656,23.47 28.6488656,25.99 L28.6488656,26.2 C28.6488656,26.8 28.4088656,27.61 28.7388656,27.88 C28.8288656,27.97 28.8588656,27.94 28.9488656,28.03 C29.2788656,28.15 29.6688656,28.18 30.0888656,28.15 L30.3888656,28.15 C31.2288656,27.97 32.2788656,28.57 32.6688656,27.85 C32.9088656,27.34 32.6388656,26.65 32.7288656,25.96 L32.7288656,25.69 C32.7288656,25.48 32.7588656,25.33 32.7888656,25.12 L32.7888656,24.91 L32.7888656,22.69 Z M30.9588656,20.83 C30.9288656,21.31 30.9288656,21.82 30.9288656,22.3 L30.9288656,22.6 C31.0788656,23.47 30.8088656,24.31 30.8988656,25.18 C30.8988656,25.3 30.8988656,25.39 30.9288656,25.42 C30.9288656,25.63 30.9288656,25.78 30.9588656,25.93 L30.9588656,26.59 C30.9588656,26.77 30.8688656,26.86 30.6588656,26.86 C30.5688656,26.86 30.4788656,26.83 30.4488656,26.8 C30.3588656,26.56 30.3588656,26.29 30.3288656,26.05 L30.3288656,25 C30.4188656,24.37 30.3288656,23.77 30.3588656,23.14 L30.3588656,21.82 C30.3888656,21.79 30.3888656,21.7 30.3888656,21.61 L30.3888656,21.37 C30.3888656,20.98 30.3888656,20.62 30.3588656,20.23 C30.3588656,20.11 30.3588656,20.02 30.3888656,19.93 C30.4188656,19.06 30.4488656,18.22 30.3588656,17.29 L30.3588656,17.05 C30.4188656,16.18 30.4188656,15.28 30.3588656,14.41 L30.3588656,14.02 C30.3288656,13.33 30.2688656,12.76 30.3588656,12.07 L30.3588656,11.29 C30.4488656,10.42 30.4488656,9.55 30.3588656,8.71 L30.3588656,8.5 C30.3588656,8.11 30.9588656,8.11 30.9588656,8.5 L30.9588656,8.92 C30.9888656,9.58 30.9888656,10.27 30.9588656,10.96 L30.9588656,11.89 C30.8688656,12.61 30.8388656,13.36 30.9288656,14.08 C30.9588656,14.29 30.9588656,14.47 30.9588656,14.68 L30.9588656,17.14 L30.9588656,20.83 Z M50.9088656,18.79 C50.9688656,18.46 50.9688656,18.16 50.9388656,17.89 C50.9388656,17.77 50.9388656,17.68 50.9088656,17.62 C50.8788656,17.41 50.8488656,17.26 50.7588656,17.05 C50.6688656,16.84 50.5488656,16.78 50.4288656,16.69 C50.3388656,16.66 50.2788656,16.63 50.2188656,16.63 L49.6188656,16.63 C49.5588656,16.6 49.4688656,16.6 49.3488656,16.6 L49.1388656,16.6 L48.8388656,16.6 C48.3588656,16.69 47.8488656,16.63 47.3688656,16.6 C47.2488656,16.6 47.1588656,16.6 47.0688656,16.57 C46.4688656,16.54 45.8388656,16.54 45.2388656,16.54 C45.1488656,16.51 45.0588656,16.51 44.9088656,16.51 C44.0988656,16.36 43.1988656,16.87 43.3788656,17.77 L43.3788656,18.07 C43.4088656,18.13 43.4088656,18.22 43.4088656,18.34 C43.4388656,18.91 43.3788656,19.48 43.4088656,20.05 C43.4088656,20.26 43.6188656,20.35 43.8288656,20.44 L44.0688656,20.53 C44.1588656,20.53 44.2188656,20.56 44.3088656,20.56 C44.3688656,20.59 44.4588656,20.59 44.5788656,20.59 L44.8788656,20.59 L46.6488656,20.59 C46.5288656,21.52 46.5288656,22.54 45.8988656,23.26 L45.7488656,23.44 L45.6288656,23.62 L45.4488656,23.77 L45.2688656,23.89 C44.4588656,24.28 43.4988656,24.34 42.6288656,24.25 L42.3288656,24.16 C41.9988656,24.07 41.7288656,23.89 41.4888656,23.62 L41.2788656,23.41 C41.1888656,23.29 41.1588656,23.2 41.1288656,23.14 C41.0388656,22.99 40.9488656,22.87 40.8888656,22.72 C40.7988656,22.42 40.7088656,22.09 40.6788656,21.73 C40.6788656,21.64 40.6488656,21.55 40.6488656,21.46 C40.5888656,21.13 40.5588656,20.83 40.5588656,20.5 C40.5288656,20.05 40.4988656,19.69 40.4988656,19.3 C40.4988656,19.18 40.4688656,19.09 40.4688656,19 C40.4688656,18.88 40.4388656,18.79 40.4388656,18.67 C40.4388656,17.8 40.5588656,16.9 40.4688656,16.03 C40.4688656,15.94 40.4988656,15.85 40.4988656,15.73 C40.4988656,15.34 40.5288656,14.98 40.5588656,14.53 C40.5588656,14.23 40.5888656,13.9 40.6488656,13.57 C40.6488656,13.48 40.6788656,13.39 40.6788656,13.3 C40.7088656,12.94 40.7988656,12.61 40.8888656,12.31 C40.9488656,12.16 41.0388656,12.04 41.1288656,11.89 C41.1588656,11.83 41.1888656,11.74 41.2788656,11.62 L41.4888656,11.41 C41.7288656,11.14 41.9988656,10.96 42.3288656,10.87 L42.6288656,10.78 C43.4988656,10.69 44.4588656,10.75 45.2688656,11.14 L45.4488656,11.26 L45.6288656,11.41 C45.7188656,11.53 45.8088656,11.62 45.8988656,11.77 C46.1088656,12.04 46.2288656,12.28 46.3188656,12.55 L46.3788656,12.82 C46.4088656,13.09 46.4688656,13.36 46.5588656,13.6 C46.5888656,13.75 46.6488656,13.84 46.7388656,13.93 C46.8588656,14.05 47.0088656,14.05 47.1588656,14.08 C47.2788656,14.08 47.3688656,14.08 47.3988656,14.05 L47.6688656,14.05 L47.8188656,14.05 C47.9088656,14.05 48.0288656,14.02 48.1188656,14.02 L48.3888656,14.02 C49.2288656,13.93 50.7888656,14.41 50.8788656,13.12 L50.8788656,12.91 C50.8488656,12.58 50.7888656,12.25 50.6988656,11.92 L50.6388656,11.68 C50.5488656,11.23 50.4588656,10.84 50.2188656,10.45 C50.1288656,10.24 50.0088656,10.03 49.9188656,9.88 C49.7688656,9.52 49.5288656,9.16 49.2288656,8.8 L49.0188656,8.59 C48.6888656,8.26 48.3288656,7.96 47.9688656,7.72 L47.7288656,7.54 C46.8888656,7.03 45.9288656,6.88 44.9988656,6.67 L44.5488656,6.67 C43.1988656,6.76 41.8188656,6.58 40.5288656,7.06 L40.1388656,7.21 C39.4488656,7.54 38.8188656,7.84 38.3388656,8.41 L38.0988656,8.68 C37.8888656,8.95 37.6788656,9.22 37.5288656,9.55 C37.3188656,9.94 37.1088656,10.39 36.9588656,10.9 C36.6888656,11.65 36.5688656,12.46 36.4788656,13.27 L36.4188656,13.84 C36.4188656,13.93 36.3888656,14.02 36.3888656,14.11 L36.3288656,14.92 C36.3288656,15.01 36.2988656,15.1 36.2988656,15.19 C36.2088656,15.94 36.2088656,16.66 36.2388656,17.41 L36.2388656,17.68 C36.3288656,18.49 36.2988656,19.24 36.3288656,20.05 L36.3288656,20.32 C36.3588656,20.8 36.3888656,21.28 36.4788656,21.76 C36.5688656,22.57 36.6888656,23.38 36.9588656,24.13 C37.1088656,24.64 37.3188656,25.09 37.5288656,25.48 C37.6788656,25.81 37.8888656,26.08 38.0988656,26.35 L38.3388656,26.62 C38.8188656,27.19 39.4488656,27.49 40.1388656,27.82 L40.5288656,27.97 C41.8188656,28.45 43.1988656,28.27 44.5488656,28.36 L44.9988656,28.36 C45.9288656,28.15 46.8888656,28 47.7288656,27.49 L47.9688656,27.31 C48.3288656,27.07 48.6888656,26.77 49.0188656,26.44 L49.2288656,26.23 C49.4388656,26.02 49.5588656,25.78 49.7088656,25.54 L49.8588656,25.27 C50.1888656,24.7 50.5188656,24.16 50.6388656,23.47 C50.6388656,23.38 50.6688656,23.26 50.6688656,23.17 L50.8188656,22.24 L50.8188656,22.06 C50.8488656,21.85 50.8788656,21.7 50.8788656,21.49 L50.8788656,21.19 C50.8788656,21.1 50.8488656,21.04 50.8488656,20.95 C50.8488656,20.83 50.8488656,20.74 50.8788656,20.71 C50.9088656,20.14 50.7588656,19.66 50.8788656,19.09 C50.8788656,19 50.9088656,18.88 50.9088656,18.79 L50.9088656,18.79 Z M49.1388656,22.09 C49.1388656,22.21 49.1388656,22.3 49.1088656,22.36 L49.1088656,22.63 C49.1088656,22.72 49.1088656,22.78 49.0788656,22.81 C49.0788656,22.87 49.0488656,22.96 49.0188656,23.08 C49.0188656,23.17 48.9888656,23.26 48.9588656,23.38 C48.6288656,24.31 48.0288656,25.06 47.3388656,25.69 L47.1288656,25.84 L46.8888656,25.99 C46.1688656,26.44 45.3588656,26.8 44.4888656,26.83 C44.3988656,26.83 44.3388656,26.83 44.2788656,26.86 C44.0688656,26.86 43.9188656,26.86 43.7088656,26.89 L43.4688656,26.89 C43.1988656,26.89 42.9588656,26.89 42.6888656,26.86 C42.5988656,26.86 42.5088656,26.83 42.4188656,26.83 C41.6088656,26.68 40.8588656,26.38 40.1688656,25.87 L39.8988656,25.66 L39.6888656,25.48 C39.1788656,24.97 38.8488656,24.31 38.6088656,23.62 L38.3388656,22.81 C38.1288656,22 38.0688656,21.16 37.9788656,20.32 L37.9788656,20.05 C37.8888656,19.12 37.9188656,18.25 37.9188656,17.38 L37.9188656,17.11 C37.9188656,16.39 37.9488656,15.67 37.9488656,14.98 C37.9788656,14.92 37.9788656,14.83 37.9788656,14.71 C38.0088656,14.2 38.0388656,13.69 38.1288656,13.12 C38.1288656,13.03 38.1588656,12.94 38.1588656,12.82 L38.2188656,12.58 C38.2788656,12.16 38.3988656,11.74 38.5488656,11.32 L38.6388656,11.05 C39.0288656,10.3 39.4488656,9.49 40.1988656,9.04 L40.4388656,8.95 C40.7388656,8.8 41.0388656,8.68 41.3388656,8.59 L41.5788656,8.5 C42.0888656,8.41 42.5688656,8.35 43.0188656,8.35 L44.0988656,8.35 C44.1588656,8.38 44.2488656,8.38 44.3688656,8.38 C45.0588656,8.47 45.7188656,8.5 46.4088656,8.77 L46.6488656,8.86 C46.7088656,8.89 46.7988656,8.92 46.9188656,9.01 C47.7288656,9.58 48.4788656,10.27 48.7188656,11.26 L48.7788656,11.53 C48.8688656,11.8 48.8988656,12.07 48.9888656,12.34 C49.0788656,12.7 48.5088656,12.85 48.3888656,12.49 C48.2988656,12.25 48.2688656,11.98 48.2388656,11.74 C48.2088656,11.62 48.1788656,11.53 48.1788656,11.5 C47.9688656,10.69 47.4888656,10.12 46.7988656,9.67 C46.7088656,9.64 46.6788656,9.58 46.5888656,9.55 C45.7488656,9.04 44.7888656,8.95 43.8288656,8.95 L43.0788656,8.95 C42.6288656,8.95 42.2688656,8.95 41.8188656,9.04 L41.5788656,9.1 C41.2788656,9.19 41.0388656,9.31 40.8288656,9.4 C40.7088656,9.43 40.6188656,9.49 40.5888656,9.52 C39.8688656,9.88 39.4488656,10.57 39.1188656,11.29 C39.0888656,11.41 39.0588656,11.5 39.0588656,11.53 C38.9388656,11.86 38.8488656,12.25 38.7888656,12.7 C38.7888656,12.79 38.7588656,12.85 38.7588656,12.94 C38.7588656,13.03 38.7288656,13.06 38.7288656,13.15 C38.6388656,13.3 38.6688656,13.45 38.6388656,13.6 C38.6388656,13.93 38.6088656,14.29 38.5488656,14.65 C38.5488656,14.74 38.5188656,14.77 38.5188656,14.86 C38.5488656,15.61 38.5488656,16.36 38.5488656,17.08 L38.5488656,17.38 C38.5188656,18.25 38.4888656,19.12 38.5788656,19.99 L38.5788656,20.26 C38.6088656,21.13 38.7288656,21.97 38.9388656,22.78 L39.0288656,23.02 L39.0888656,23.23 C39.1188656,23.35 39.1488656,23.44 39.1488656,23.47 C39.3588656,24.04 39.6288656,24.52 40.0188656,24.97 L40.1988656,25.12 L40.4988656,25.36 C41.1888656,25.87 42.0288656,26.2 42.8988656,26.29 L43.1688656,26.29 C43.2588656,26.29 43.3788656,26.32 43.4688656,26.32 C43.5588656,26.32 43.6188656,26.29 43.7088656,26.29 C43.8888656,26.29 44.0088656,26.29 44.0988656,26.26 L44.2788656,26.26 C45.1188656,26.2 45.8988656,25.93 46.6488656,25.48 L46.8588656,25.33 C47.5788656,24.76 48.0588656,23.92 48.4188656,23.11 C48.4188656,23.02 48.4488656,22.96 48.4488656,22.87 L48.5088656,22.6 C48.5988656,21.76 48.6588656,20.95 48.5388656,20.11 L48.5388656,19.87 L48.5388656,19.63 L48.5388656,19.36 C48.5388656,19.27 48.5988656,19.18 48.5688656,19.09 L48.5688656,18.85 L48.5688656,18.82 L48.4488656,18.82 L47.8488656,18.82 C47.4888656,18.82 47.1588656,18.85 46.7988656,18.85 C46.4388656,18.85 46.0788656,18.88 45.7188656,18.88 L45.4788656,18.88 C45.4488656,18.85 45.3588656,18.85 45.2688656,18.85 L45.0588656,18.85 C44.8488656,18.85 44.6388656,18.85 44.6388656,18.64 C44.6088656,18.43 44.7888656,18.16 45.0288656,18.25 C45.1488656,18.25 45.2388656,18.25 45.2988656,18.28 L45.5388656,18.28 L45.8388656,18.28 C46.1988656,18.28 46.5888656,18.25 46.9788656,18.25 C47.3388656,18.25 47.7588656,18.22 48.1188656,18.22 L48.6288656,18.22 C48.8388656,18.22 48.9588656,18.25 49.0488656,18.31 C49.1388656,18.4 49.1688656,18.46 49.1688656,18.52 C49.1988656,18.61 49.1988656,18.67 49.1688656,18.73 C49.1688656,19.51 49.2288656,21.37 49.1388656,22.09 L49.1388656,22.09 Z M69.6888656,8.56 C69.6888656,8.44 69.6888656,8.35 69.6588656,8.32 C69.7488656,7.96 69.6888656,7.54 69.5388656,7.27 C69.5088656,7.18 69.4788656,7.12 69.3888656,7.09 C69.3588656,7.06 69.2988656,7 69.2088656,6.97 C68.2788656,6.82 67.4688656,6.88 66.5388656,6.91 C66.4488656,6.91 66.3588656,6.94 66.2688656,6.94 C65.9388656,7.03 65.6388656,7.15 65.4888656,7.54 C65.4888656,7.63 65.4588656,7.72 65.4588656,7.84 C65.4288656,8.02 65.4588656,8.23 65.5188656,8.47 L65.5188656,8.89 L65.5188656,9.34 L65.5188656,9.55 L65.5188656,10.09 L65.5188656,10.36 C65.4588656,11.14 65.4288656,11.92 65.4288656,12.7 C65.3988656,12.76 65.3988656,12.85 65.3988656,12.97 C65.3988656,13.51 65.4288656,14.02 65.4888656,14.53 C65.4888656,14.62 65.4588656,14.71 65.4588656,14.8 L65.4588656,15.07 C65.3688656,15.76 65.3988656,16.42 65.3988656,17.11 L65.3988656,17.41 L65.3988656,18.31 L65.3988656,18.55 L65.3988656,19.3 C65.1888656,18.85 64.9488656,18.43 64.6788656,18.04 L64.5288656,17.83 L64.4088656,17.62 L64.2588656,17.38 C63.9288656,16.69 63.6288656,16.06 63.1488656,15.49 L62.9688656,15.25 C62.7288656,14.95 62.5488656,14.65 62.3988656,14.32 L62.2488656,14.08 L61.7988656,13.15 C61.7688656,13.06 61.7088656,13 61.6488656,12.91 C61.4088656,12.46 61.1388656,12.07 60.9288656,11.62 C60.8988656,11.5 60.8388656,11.41 60.8088656,11.35 C60.7788656,11.29 60.7188656,11.2 60.6288656,11.11 L60.4788656,10.9 L59.9088656,9.97 L59.7888656,9.73 L59.6388656,9.52 C59.5488656,9.43 59.5488656,9.4 59.5188656,9.31 C59.1288656,8.68 58.6188656,8.14 58.4088656,7.45 L58.3188656,7.3 L58.1988656,7.15 C58.1688656,7.12 58.1088656,7.06 58.0188656,7.03 C57.5688656,6.82 57.0588656,6.85 56.5488656,6.88 L56.2788656,6.88 C56.0388656,6.88 55.7688656,6.91 55.4988656,6.91 C55.4088656,6.91 55.3188656,6.94 55.2288656,6.94 C54.8988656,7.03 54.5988656,7.15 54.4488656,7.54 C54.4488656,7.63 54.4188656,7.72 54.4188656,7.84 C54.3888656,8.02 54.4188656,8.23 54.4788656,8.47 L54.4788656,8.89 L54.4788656,9.01 L54.4788656,9.34 L54.4788656,9.55 L54.4788656,14.11 L54.4788656,14.14 C54.4788656,14.17 54.4488656,14.2 54.4488656,14.23 L54.4488656,14.53 L54.3588656,17.14 L54.3588656,17.41 L54.3588656,17.68 L54.3588656,18.52 L54.3588656,18.79 C54.3588656,19.66 54.3888656,23.47 54.3888656,25.99 L54.3888656,26.2 C54.3888656,26.8 54.1488656,27.61 54.4788656,27.88 L54.6888656,28.03 C55.0188656,28.15 55.4088656,28.18 55.8288656,28.15 L56.1288656,28.15 C56.9688656,27.97 58.0188656,28.57 58.4088656,27.85 C58.6188656,27.46 58.4988656,26.98 58.4688656,26.47 L58.4688656,26.2 C58.4688656,25.84 58.4388656,25.48 58.5288656,25.12 L58.5288656,24.91 L58.5288656,22.69 L58.5288656,18.67 C58.5288656,18.31 58.5288656,17.95 58.5588656,17.59 L58.5588656,17.38 C58.5888656,16.81 58.5288656,16.3 58.4988656,15.73 C58.9488656,16.45 59.1888656,17.17 59.6988656,17.86 C59.7288656,17.89 59.7888656,17.95 59.8188656,18.04 C59.9088656,18.13 59.9088656,18.16 59.9388656,18.25 L60.0288656,18.46 C60.1188656,18.55 60.1188656,18.58 60.1488656,18.67 C60.7188656,19.42 61.0788656,20.2 61.5288656,21.01 L61.6488656,21.22 L61.7988656,21.43 C62.2788656,22.06 62.5188656,22.81 63.0888656,23.38 C63.1788656,23.53 63.2388656,23.65 63.2388656,23.77 L63.3588656,23.95 L63.5688656,24.31 L63.7188656,24.55 C64.1688656,25.24 64.5288656,25.87 64.9188656,26.56 C64.9788656,26.65 65.0388656,26.71 65.0688656,26.8 C65.4588656,27.28 65.6988656,28.3 66.5088656,28.15 L66.6888656,28.15 L66.8688656,28.15 L67.1688656,28.15 C68.0088656,27.97 69.0588656,28.57 69.4488656,27.85 C69.6588656,27.37 69.4788656,26.74 69.5088656,26.11 L69.5088656,25.96 L69.5088656,25.69 C69.5088656,25.48 69.5388656,25.33 69.5688656,25.12 L69.5688656,24.91 L69.5688656,22.69 L69.5688656,18.67 C69.5688656,17.8 69.6888656,16.9 69.5988656,16.03 C69.5988656,15.94 69.6288656,15.85 69.6288656,15.73 C69.6288656,15.34 69.6588656,14.98 69.6888656,14.53 L69.6888656,11.89 C69.6888656,11.74 69.6588656,10.78 69.6588656,9.73 L69.6588656,9.49 C69.6888656,9.28 69.6888656,9.1 69.6888656,8.89 L69.6888656,8.56 Z M67.7988656,14.14 C67.8288656,14.35 67.8288656,14.53 67.8288656,14.74 L67.8288656,17.2 L67.8288656,20.89 C67.7988656,21.37 67.7988656,21.88 67.7988656,22.36 L67.7988656,22.66 C67.9488656,23.53 67.6788656,24.37 67.7688656,25.24 C67.7688656,25.36 67.7688656,25.45 67.7988656,25.48 C67.7988656,25.69 67.7988656,25.84 67.8288656,25.99 L67.8288656,26.32 C67.7988656,26.53 67.9188656,26.71 67.7688656,26.83 C67.3488656,27.16 67.0188656,26.56 66.8088656,26.29 L66.7488656,26.2 C66.7188656,26.11 66.6588656,26.11 66.6288656,26.02 L66.3288656,25.51 C66.2688656,25.42 66.2088656,25.33 66.1788656,25.24 C65.8488656,24.55 65.4588656,23.98 65.0988656,23.35 L64.2888656,22.06 L64.1688656,21.82 L64.0188656,21.58 C63.8088656,21.19 63.5688656,20.83 63.3288656,20.47 C63.2388656,20.35 63.1788656,20.23 63.1488656,20.14 C62.9388656,19.75 62.6688656,19.42 62.4288656,19.03 C62.0988656,18.55 61.9188656,18.01 61.5888656,17.53 L61.4388656,17.29 C60.9588656,16.36 60.2988656,15.49 59.7288656,14.65 L59.4888656,14.26 C59.0988656,13.63 58.7388656,13 58.4088656,12.31 L57.9288656,11.53 C57.5688656,10.81 57.1788656,10.15 56.7288656,9.46 C56.7288656,9.94 56.7288656,10.45 56.6988656,10.96 L56.6988656,11.89 C56.6088656,12.61 56.5788656,13.36 56.6688656,14.08 C56.6988656,14.29 56.6988656,14.47 56.6988656,14.68 L56.6988656,17.14 L56.6988656,20.83 C56.6688656,21.31 56.6688656,21.82 56.6688656,22.3 L56.6688656,22.6 C56.8188656,23.47 56.5488656,24.31 56.6388656,25.18 C56.6388656,25.3 56.6388656,25.39 56.6688656,25.42 C56.6688656,25.63 56.6688656,25.78 56.6988656,25.93 L56.6988656,26.59 C56.6988656,26.77 56.6088656,26.86 56.3988656,26.86 C56.3088656,26.86 56.2188656,26.83 56.1888656,26.8 C56.0988656,26.56 56.0988656,26.29 56.0688656,26.05 L56.0688656,25 C56.1588656,24.37 56.0688656,23.77 56.0988656,23.14 L56.0988656,21.82 C56.1288656,21.79 56.1288656,21.7 56.1288656,21.61 L56.1288656,21.37 C56.1288656,20.98 56.1288656,20.62 56.0988656,20.23 C56.0988656,20.11 56.0988656,20.02 56.1288656,19.93 C56.1588656,19.06 56.1888656,18.22 56.0988656,17.29 L56.0988656,17.05 C56.1588656,16.18 56.1588656,15.28 56.0988656,14.41 L56.0988656,14.02 C56.0688656,13.33 56.0088656,12.76 56.0988656,12.07 L56.0988656,11.29 C56.1888656,10.42 56.1888656,9.55 56.0988656,8.71 L56.0988656,8.5 C56.0988656,8.17 56.3988656,8.14 56.6088656,8.29 C56.6988656,8.32 56.7288656,8.38 56.7588656,8.44 L57.0288656,8.86 C57.4788656,9.52 57.8688656,10.21 58.2588656,10.9 L58.7988656,11.83 C59.1588656,12.58 59.5188656,13.33 59.9988656,14.02 C60.1488656,14.23 60.2988656,14.41 60.3888656,14.62 L62.0088656,17.05 L62.9088656,18.7 L64.1988656,20.74 C64.4688656,21.25 64.7988656,21.73 65.0688656,22.21 L65.2488656,22.51 C65.9388656,23.32 66.1788656,24.28 66.7488656,25.12 L66.9288656,25.36 L67.1988656,25.78 L67.1988656,25.06 C67.2888656,24.43 67.1988656,23.83 67.2288656,23.2 L67.2288656,21.88 C67.2588656,21.85 67.2588656,21.76 67.2588656,21.67 L67.2588656,21.43 C67.2588656,21.04 67.2588656,20.68 67.2288656,20.29 C67.2288656,20.17 67.2288656,20.08 67.2588656,19.99 C67.2888656,19.12 67.3188656,18.28 67.2288656,17.35 L67.2288656,17.11 C67.2888656,16.24 67.2888656,15.34 67.2288656,14.47 L67.2288656,14.08 C67.1988656,13.39 67.1388656,12.82 67.2288656,12.13 L67.2288656,11.35 C67.3188656,10.48 67.3188656,9.61 67.2288656,8.77 L67.2288656,8.56 C67.2288656,8.17 67.8288656,8.17 67.8288656,8.56 L67.8288656,8.98 C67.8588656,9.64 67.8588656,10.33 67.8288656,11.02 L67.8288656,11.95 C67.7388656,12.67 67.7088656,13.42 67.7988656,14.14 L67.7988656,14.14 Z M96.9288656,17.68 C96.9288656,17.17 96.8988656,16.69 96.8688656,16.18 L96.8688656,15.34 C96.8988656,15.13 96.8988656,15.01 96.8988656,14.86 C96.8988656,14.05 96.8988656,13.36 96.8688656,12.55 C96.8688656,12.34 96.8688656,12.19 96.8388656,12.1 C96.8088656,11.83 96.8088656,11.53 96.8088656,11.26 L96.8088656,10.21 C96.8388656,10.18 96.8388656,10.09 96.8388656,10 C96.8688656,9.13 97.0488656,8.26 96.8388656,7.39 C96.6888656,6.61 95.6988656,6.82 95.0688656,6.73 L94.7388656,6.73 C94.2588656,6.73 93.8088656,6.76 93.4488656,6.79 C93.2988656,6.82 93.1788656,6.79 93.0888656,6.88 C92.7288656,6.97 92.5188656,7.24 92.4588656,7.66 C92.3088656,8.71 92.6088656,9.73 92.5188656,10.78 L92.5188656,11.26 C92.5188656,11.41 92.4888656,11.56 92.4888656,11.71 C92.4888656,11.89 92.4888656,12.04 92.5188656,12.13 C92.5188656,12.58 92.5488656,12.91 92.5488656,13.36 L92.5488656,13.51 C92.5488656,14.5 92.7288656,15.46 92.7588656,16.45 L92.7588656,16.78 C92.7288656,17.65 92.6088656,18.49 92.6388656,19.42 L92.6388656,19.66 C92.6388656,19.93 92.6088656,20.2 92.6388656,20.44 L92.5788656,20.77 C92.5488656,21.61 92.3688656,22.66 91.8588656,23.26 C91.7688656,23.41 91.6788656,23.5 91.5888656,23.62 L91.4088656,23.77 L91.2288656,23.89 C90.4188656,24.28 89.4588656,24.34 88.5888656,24.25 L88.2888656,24.16 C87.9588656,24.07 87.6888656,23.89 87.4488656,23.62 L87.2388656,23.41 C87.1488656,23.29 87.1188656,23.2 87.0888656,23.14 C86.9988656,22.99 86.9088656,22.87 86.8488656,22.72 C86.6988656,22.36 86.6388656,22.03 86.6088656,21.73 L86.6088656,21.46 C86.5188656,21.13 86.4888656,20.83 86.4888656,20.5 C86.4588656,20.05 86.4288656,19.69 86.4288656,19.3 L86.4288656,19 C86.4288656,18.88 86.3988656,18.79 86.3988656,18.67 C86.3688656,18.61 86.3688656,18.52 86.3688656,18.37 C86.2188656,17.41 86.4588656,16.42 86.3688656,15.46 L86.3688656,15.16 C86.2788656,14.41 86.3688656,13.66 86.3988656,12.94 C86.3988656,9.91 86.2188656,8.98 86.3688656,8.29 L86.3688656,7.93 C86.3388656,7.6 86.3388656,7.18 86.1288656,6.97 C86.0388656,6.88 85.9488656,6.85 85.8588656,6.85 L84.4188656,6.85 C83.6988656,7.09 82.4688656,6.52 82.1388656,7.51 L82.0788656,7.75 C81.9888656,8.23 82.1088656,8.74 82.0788656,9.22 C82.1088656,9.31 82.1088656,9.4 82.1088656,9.55 C82.1088656,9.76 82.1088656,9.91 82.1388656,10 L82.0788656,10.24 C82.0788656,10.39 82.0788656,10.48 82.1088656,10.57 C82.0788656,11.38 82.1388656,12.19 82.1388656,13 C82.1388656,13.09 82.1688656,13.18 82.1388656,13.3 C82.1388656,13.75 82.1088656,14.23 82.1388656,14.71 L82.1388656,15.07 C82.1388656,15.55 82.1688656,16.06 82.1688656,16.54 C82.1688656,17.53 82.2288656,18.55 82.2588656,19.54 C82.2888656,20.26 82.3488656,21.01 82.4388656,21.76 C82.5288656,22.57 82.6488656,23.38 82.9188656,24.13 C83.0688656,24.64 83.2788656,25.09 83.4888656,25.48 C83.6388656,25.81 83.8488656,26.08 84.0588656,26.35 L84.2988656,26.62 C84.7788656,27.19 85.4088656,27.49 86.0988656,27.82 L86.4888656,27.97 C87.7788656,28.45 89.1588656,28.27 90.5088656,28.36 L90.9588656,28.36 C91.8888656,28.15 92.8488656,28 93.6888656,27.49 L93.9288656,27.31 C94.2888656,27.07 94.6488656,26.77 94.9788656,26.44 L95.1888656,26.23 C95.7888656,25.48 96.1788656,24.61 96.5688656,23.74 C96.5688656,23.65 96.5988656,23.56 96.5988656,23.47 C96.5988656,23.38 96.6288656,23.26 96.6288656,23.17 L96.7788656,22.24 C96.7788656,22.12 96.7788656,21.97 96.8088656,21.85 C96.8988656,21.4 96.8988656,21.01 96.9288656,20.62 C97.0188656,19.63 96.9588656,18.64 96.9288656,17.68 L96.9288656,17.68 Z M94.5588656,15.58 L94.5588656,15.37 C94.5588656,14.8 94.5288656,14.29 94.5288656,13.72 C94.5288656,13.63 94.4988656,13.6 94.4988656,13.51 L94.4988656,13.3 C94.4988656,12.97 94.4688656,12.7 94.4688656,12.43 C94.4688656,12.28 94.4688656,12.19 94.4388656,12.13 C94.4388656,11.29 94.5288656,10.48 94.4388656,9.64 L94.4388656,8.74 C94.4388656,8.35 95.0388656,8.35 95.0388656,8.74 L95.0388656,9.49 C95.1288656,10.45 95.0688656,11.38 95.0688656,12.31 L95.0688656,12.58 C95.0688656,12.85 95.0988656,13.12 95.0988656,13.36 L95.0988656,13.66 C95.1288656,13.99 95.1288656,14.26 95.1288656,14.53 C95.1588656,15.52 95.1588656,16.48 95.1588656,17.47 L95.1288656,18.91 C95.1288656,19 95.0988656,19.06 95.0988656,19.15 C95.0988656,19.42 95.0988656,19.69 95.0688656,19.96 L95.0688656,20.23 C94.9788656,21.16 94.9188656,22.03 94.7088656,22.96 C94.7088656,23.05 94.6788656,23.05 94.6788656,23.14 L94.6188656,23.41 C94.5288656,23.56 94.5288656,23.71 94.4388656,23.92 L94.3488656,24.16 C93.8988656,25.09 93.2988656,25.87 92.3688656,26.26 L92.1288656,26.35 C91.4688656,26.62 90.8388656,26.77 90.2088656,26.77 C90.1488656,26.8 90.0588656,26.8 89.9688656,26.8 L89.2488656,26.8 C88.7988656,26.8 88.4688656,26.77 88.0188656,26.68 C87.6588656,26.62 87.2988656,26.53 86.9688656,26.38 C86.2788656,26.05 85.7088656,25.6 85.2588656,25 C84.7788656,24.31 84.5388656,23.47 84.3288656,22.66 C84.1188656,21.73 84.0888656,20.8 83.9988656,19.84 C83.9088656,18.88 83.9388656,17.89 83.8488656,16.93 C83.7588656,15.94 83.7588656,14.95 83.7588656,13.96 L83.7588656,11.29 L83.7588656,8.59 C83.7588656,8.2 84.3588656,8.2 84.3588656,8.59 L84.3588656,11.53 L84.3588656,14.5 C84.3588656,14.95 84.3588656,15.37 84.3888656,15.82 L84.4188656,16.42 C84.4188656,16.75 84.4488656,17.11 84.4788656,17.44 C84.5688656,18.43 84.5388656,19.39 84.6288656,20.35 C84.7188656,21.28 84.8088656,22.18 85.0488656,23.11 C85.1388656,23.5 85.2888656,23.92 85.4988656,24.28 C85.6488656,24.55 85.8288656,24.82 86.0988656,25.09 C86.6088656,25.57 87.2388656,25.84 87.9288656,26.05 C88.3188656,26.14 88.6788656,26.2 89.0088656,26.2 L90.1788656,26.2 C90.7788656,26.11 91.3488656,26.05 91.9188656,25.81 L92.1588656,25.72 C92.9088656,25.48 93.3588656,24.76 93.7188656,24.07 L93.8088656,23.86 L94.0788656,23.14 C94.0788656,23.05 94.1088656,22.99 94.1088656,22.9 C94.3188656,21.97 94.4088656,21.13 94.4388656,20.2 L94.4388656,19.93 L94.4688656,19.42 C94.4688656,19.3 94.4688656,19.21 94.4988656,19.12 C94.5288656,18.85 94.5288656,18.55 94.5288656,18.28 C94.5588656,17.59 94.5588656,16.87 94.5588656,16.18 L94.5588656,15.58 Z M114.478866,12.16 C114.448866,12.04 114.418866,11.95 114.418866,11.83 C114.148866,11.02 114.058866,10.18 113.608866,9.46 L113.428866,9.22 L113.278866,9.04 L112.978866,8.68 L112.738866,8.47 L112.468866,8.26 L112.168866,8.11 C111.358866,7.66 110.548866,7.18 109.618866,7.15 C109.528866,7.15 109.408866,7.12 109.318866,7.12 C108.808866,7.03 108.328866,6.91 107.758866,6.94 C107.668866,6.94 107.608866,6.91 107.518866,6.91 C106.798866,6.82 106.048866,6.82 105.328866,6.91 L105.028866,6.91 C104.548866,6.94 104.068866,6.91 103.588866,6.91 L103.288866,6.91 C102.478866,6.91 101.698866,6.76 100.888866,7.03 L100.678866,7.21 L100.558866,7.45 C100.408866,7.78 100.348866,8.14 100.378866,8.53 L100.378866,9.16 C100.348866,9.67 100.288866,10.18 100.318866,10.69 L100.318866,10.99 C100.408866,11.68 100.288866,12.28 100.318866,12.97 L100.318866,13.27 C100.348866,13.54 100.318866,13.84 100.408866,14.11 C100.378866,14.2 100.378866,14.29 100.378866,14.44 C100.378866,14.53 100.348866,14.65 100.348866,14.74 L100.348866,14.98 C100.348866,15.07 100.318866,15.1 100.318866,15.19 C100.318866,15.28 100.318866,15.34 100.288866,15.4 C100.378866,16.39 100.408866,17.47 100.378866,18.46 C100.378866,18.61 100.378866,18.7 100.408866,18.76 L100.408866,20.32 C100.408866,20.41 100.378866,20.5 100.378866,20.59 C100.408866,21.07 100.408866,21.55 100.378866,22 L100.378866,22.3 C100.408866,22.75 100.378866,23.2 100.378866,23.65 L100.378866,23.92 C100.408866,24.64 100.348866,25.36 100.348866,26.08 L100.348866,26.38 C100.378866,26.71 100.258866,27.13 100.348866,27.49 L100.438866,27.73 C100.888866,28.36 101.848866,28.09 102.478866,28.09 C102.538866,28.06 102.628866,28.06 102.748866,28.06 C103.048866,28.03 103.318866,28.03 103.588866,28.06 C103.678866,28.06 103.738866,28.03 103.828866,28.03 C104.098866,27.97 104.308866,27.82 104.398866,27.55 L104.458866,27.31 C104.578866,26.74 104.428866,26.2 104.428866,25.63 L104.428866,25.39 C104.428866,24.82 104.458866,24.28 104.458866,23.71 L104.458866,23.41 C104.488866,23.38 104.488866,23.29 104.488866,23.17 C104.518866,22.93 104.488866,22.69 104.518866,22.45 C104.548866,22.39 104.548866,22.3 104.548866,22.15 C104.548866,21.58 104.518866,21.04 104.488866,20.47 L104.488866,20.23 C104.518866,19.99 104.518866,19.75 104.488866,19.51 C104.728866,19.54 104.938866,19.54 105.178866,19.54 L105.388866,19.54 C106.198866,19.63 106.918866,19.6 107.668866,19.57 L107.968866,19.57 C108.838866,19.36 109.768866,19.45 110.578866,19.09 L110.788866,18.97 C110.818866,18.94 110.908866,18.88 110.998866,18.85 L111.538866,18.49 C111.598866,18.46 111.688866,18.43 111.808866,18.34 C112.048866,18.19 112.318866,18.04 112.528866,17.83 L112.768866,17.62 C113.128866,17.32 113.428866,16.96 113.668866,16.51 L113.818866,16.24 C114.088866,15.7 114.298866,15.07 114.388866,14.38 L114.448866,14.11 C114.478866,13.42 114.568866,12.85 114.478866,12.16 L114.478866,12.16 Z M112.468866,14.14 C112.468866,14.23 112.438866,14.26 112.438866,14.35 L112.378866,14.65 C112.288866,15.1 112.108866,15.49 111.868866,15.79 L111.688866,16.06 C111.358866,16.45 110.998866,16.81 110.548866,17.14 C110.488866,17.17 110.398866,17.2 110.278866,17.29 L109.708866,17.53 L109.408866,17.62 C108.658866,17.77 107.848866,17.83 107.128866,17.83 C106.618866,17.86 106.138866,17.86 105.658866,17.86 C105.148866,17.86 104.668866,17.86 104.188866,17.83 C103.978866,17.8 103.858866,17.77 103.648866,17.77 C103.558866,17.8 103.378866,17.8 103.168866,17.8 C103.018866,17.8 102.838866,17.8 102.688866,17.77 L102.688866,20.83 C102.658866,21.31 102.658866,21.82 102.658866,22.3 L102.658866,22.6 C102.808866,23.47 102.538866,24.31 102.628866,25.18 C102.628866,25.3 102.628866,25.39 102.658866,25.42 C102.658866,25.63 102.658866,25.78 102.688866,25.93 L102.688866,26.59 C102.688866,26.77 102.598866,26.86 102.388866,26.86 C102.298866,26.86 102.208866,26.83 102.178866,26.8 C102.088866,26.56 102.088866,26.29 102.058866,26.05 L102.058866,25 C102.148866,24.37 102.058866,23.77 102.088866,23.14 L102.088866,21.82 C102.118866,21.79 102.118866,21.7 102.118866,21.61 L102.118866,21.37 C102.118866,20.98 102.118866,20.62 102.088866,20.23 C102.088866,20.11 102.088866,20.02 102.118866,19.93 C102.148866,19.06 102.178866,18.22 102.088866,17.29 L102.088866,17.05 C102.148866,16.18 102.148866,15.28 102.088866,14.41 L102.088866,14.02 C102.058866,13.33 101.998866,12.76 102.088866,12.07 L102.088866,11.68 C102.058866,10.75 102.148866,9.91 102.058866,9.04 C102.058866,8.98 102.088866,8.92 102.118866,8.83 C102.148866,8.8 102.208866,8.74 102.298866,8.71 C102.988866,8.56 103.678866,8.68 104.398866,8.65 L104.668866,8.65 C105.058866,8.65 105.448866,8.65 105.838866,8.62 C107.008866,8.59 108.088866,8.62 109.258866,8.83 C110.068866,8.95 110.818866,9.25 111.388866,9.88 C111.598866,10.12 111.808866,10.42 111.958866,10.78 L112.048866,11.02 C112.108866,11.08 112.138866,11.14 112.138866,11.23 L112.228866,11.47 C112.318866,11.62 112.288866,11.77 112.378866,11.92 L112.468866,12.25 C112.618866,12.88 112.498866,13.51 112.468866,14.14 L112.468866,14.14 Z M111.658866,11.62 L111.478866,11.14 L111.358866,10.9 C111.088866,10.39 110.758866,10.03 110.308866,9.79 C109.618866,9.4 108.808866,9.37 107.998866,9.28 C107.068866,9.19 106.108866,9.22 105.148866,9.25 L104.218866,9.25 C103.708866,9.28 103.198866,9.31 102.688866,9.28 L102.688866,9.49 C102.718866,9.52 102.718866,9.61 102.718866,9.7 C102.748866,10.15 102.688866,10.51 102.688866,10.96 L102.688866,11.89 C102.598866,12.61 102.568866,13.36 102.658866,14.08 C102.688866,14.29 102.688866,14.47 102.688866,14.68 L102.688866,17.17 C102.718866,17.17 102.748866,17.2 102.838866,17.2 L103.288866,17.2 C103.438866,17.2 103.588866,17.17 103.738866,17.17 C103.948866,17.17 104.098866,17.2 104.308866,17.23 C105.238866,17.32 106.198866,17.26 107.128866,17.23 C107.818866,17.23 108.568866,17.23 109.288866,17.02 L109.588866,16.93 C109.798866,16.84 109.918866,16.81 110.128866,16.69 C110.188866,16.66 110.278866,16.63 110.398866,16.54 C110.608866,16.42 110.818866,16.21 111.058866,15.94 L111.238866,15.73 C111.388866,15.55 111.508866,15.37 111.598866,15.19 L111.688866,15.01 L111.808866,14.59 L111.868866,14.35 L111.928866,14.11 C111.958866,14.05 111.958866,13.96 111.958866,13.84 C112.048866,13.15 111.898866,12.52 111.748866,11.89 L111.658866,11.62 Z M110.128866,14.08 L110.038866,14.41 C110.008866,14.5 110.008866,14.59 109.918866,14.68 C109.828866,14.95 109.618866,15.16 109.318866,15.31 L109.048866,15.43 C108.208866,15.67 107.308866,15.61 106.438866,15.58 L106.108866,15.58 C105.778866,15.58 105.508866,15.55 105.178866,15.55 L104.488866,15.55 L104.488866,15.01 C104.458866,14.95 104.458866,14.86 104.458866,14.71 C104.458866,14.59 104.458866,14.5 104.488866,14.44 L104.488866,14.2 L104.518866,14.2 L104.518866,14.17 C104.518866,14.08 104.548866,14.02 104.548866,13.93 C104.548866,13.81 104.548866,13.72 104.518866,13.66 L104.548866,13.66 C104.578866,13.18 104.518866,12.73 104.518866,12.25 L104.518866,11.95 C104.518866,11.62 104.428866,11.23 104.548866,10.99 C104.578866,10.96 104.638866,10.9 104.788866,10.87 L104.998866,10.87 C105.748866,10.78 106.468866,10.87 107.278866,10.87 C107.398866,10.87 107.488866,10.87 107.548866,10.84 C108.298866,10.93 109.228866,11.08 109.588866,11.77 C109.648866,11.83 109.708866,11.92 109.768866,12.04 C109.858866,12.19 109.978866,12.4 110.068866,12.61 L110.128866,12.88 L110.128866,12.97 C110.128866,13.06 110.158866,13.09 110.158866,13.18 C110.218866,13.39 110.218866,13.6 110.188866,13.84 L110.128866,14.08 Z M117.868866,32.5 C117.778866,32.5 117.718866,32.47 117.688866,32.38 C117.478866,32.05 117.748866,31.81 118.078866,31.81 C118.648866,31.84 119.128866,32.02 119.698866,31.81 C119.788866,31.81 119.878866,31.78 119.998866,31.75 C121.828866,31.12 121.918866,28.96 121.918866,27.16 C121.918866,27.07 121.948866,26.98 121.948866,26.89 C121.978866,26.29 121.978866,25.69 121.948866,25.06 C121.948866,23.29 121.918866,21.58 121.918866,19.81 C121.918866,19.09 121.858866,18.4 121.858866,17.68 C121.858866,16.48 121.918866,15.28 121.948866,14.05 C121.948866,13.36 121.978866,12.76 121.978866,12.07 C121.978866,11.11 121.978866,10.15 121.948866,9.19 C121.948866,8.26 121.948866,7.36 121.918866,6.43 C121.918866,5.74 121.888866,5.08 121.618866,4.45 C121.408866,4 121.168866,3.67 120.868866,3.43 L120.658866,3.28 C119.728866,2.89 118.708866,2.77 117.718866,2.77 C117.628866,2.77 117.568866,2.74 117.508866,2.68 C117.478866,2.59 117.418866,2.56 117.418866,2.47 C117.418866,2.26 117.508866,2.17 117.718866,2.17 C117.808866,2.14 117.928866,2.14 118.078866,2.14 C119.008866,2.35 120.028866,2.26 120.898866,2.74 C120.988866,2.83 121.048866,2.8 121.138866,2.89 C121.528866,3.19 121.828866,3.58 122.068866,4.03 C122.428866,4.72 122.518866,5.47 122.518866,6.19 C122.548866,7.18 122.548866,8.14 122.548866,9.13 C122.578866,10.06 122.578866,10.9 122.578866,11.83 C122.578866,13.6 122.518866,15.31 122.518866,17.11 C122.518866,18.91 122.578866,20.68 122.578866,22.51 C122.488866,23.5 122.548866,24.49 122.548866,25.48 L122.548866,26.95 C122.398866,28.96 122.548866,31.84 119.788866,32.41 C119.698866,32.41 119.698866,32.44 119.608866,32.44 C119.038866,32.56 118.438866,32.5 117.868866,32.5 L117.868866,32.5 Z M120.118866,18.82 L120.118866,21.55 C120.118866,22.06 120.088866,22.72 120.088866,23.29 L120.088866,23.62 C120.118866,24.19 119.998866,24.76 120.088866,25.33 L120.088866,27.16 C119.998866,27.97 120.178866,29.05 119.788866,29.8 L119.638866,29.98 L119.428866,30.16 L119.098866,30.31 C118.978866,30.37 118.858866,30.4 118.738866,30.4 C118.378866,30.49 117.988866,30.46 117.628866,30.49 L117.358866,30.49 C117.028866,30.55 116.788866,30.64 116.578866,30.79 L116.398866,31 C116.188866,31.72 116.098866,32.68 116.458866,33.43 C116.518866,33.52 116.578866,33.58 116.668866,33.64 L116.908866,33.82 L117.178866,33.94 C118.108866,34.06 118.798866,34.06 119.668866,33.97 L119.968866,33.97 C121.048866,33.88 122.038866,33.34 122.848866,32.65 L123.058866,32.41 L123.418866,31.96 C123.478866,31.9 123.538866,31.81 123.568866,31.72 C123.598866,31.63 123.658866,31.57 123.688866,31.54 C123.958866,30.7 124.168866,29.83 124.258866,28.96 L124.258866,26.02 C124.258866,25.33 124.318866,24.73 124.318866,24.04 L124.318866,23.14 C124.288866,22.63 124.288866,22.12 124.288866,21.55 L124.318866,21.55 L124.318866,19.63 L124.318866,16.81 C124.318866,15.28 124.288866,13.75 124.288866,12.79 C124.288866,12.22 124.258866,11.92 124.258866,11.83 L124.258866,8.29 L124.258866,6.25 C124.288866,5.56 124.168866,4.9 124.018866,4.27 L123.928866,3.97 C123.838866,3.7 123.718866,3.43 123.568866,3.22 C123.538866,3.13 123.478866,3.07 123.418866,2.98 L123.058866,2.53 L122.848866,2.29 C122.038866,1.6 121.048866,1.06 119.968866,0.97 L119.668866,0.97 C119.098866,0.88 118.648866,0.88 118.078866,0.91 C117.988866,0.91 117.898866,0.94 117.808866,0.94 C117.058866,0.85 116.338866,1.33 116.248866,2.14 C116.248866,2.26 116.218866,2.35 116.218866,2.47 C116.188866,2.86 116.188866,3.28 116.338866,3.67 C116.368866,3.79 116.428866,3.88 116.458866,3.91 C116.608866,4.15 116.818866,4.3 117.088866,4.36 C117.148866,4.36 117.208866,4.39 117.298866,4.42 C117.688866,4.48 118.018866,4.51 118.288866,4.48 C118.378866,4.48 118.468866,4.51 118.558866,4.51 C118.768866,4.51 118.888866,4.54 119.098866,4.63 L119.428866,4.78 L119.638866,4.96 L119.788866,5.14 C120.178866,5.89 119.998866,6.97 120.088866,7.78 L120.088866,8.92 C120.178866,9.79 120.118866,10.63 120.118866,11.5 L120.178866,14.41 L120.118866,16 L120.118866,18.82 Z" id="sign-up" fill="#5D6063"></path>
    </g>
</svg>